<svg width="188" height="188" viewBox="0 0 188 188" fill="none" xmlns="http://www.w3.org/2000/svg">
<path fill-rule="evenodd" clip-rule="evenodd" d="M93.9648 0C161.918 0 188 26.0817 188 93.9648C188 161.918 161.918 188 93.9648 188C26.0817 188 0 161.918 0 93.9648C0 26.0817 26.0817 0 93.9648 0Z" fill="#FFC463"/>
<path fill-rule="evenodd" clip-rule="evenodd" d="M131.325 91.921C125.545 91.921 120.751 87.1276 120.751 81.1359C120.751 75.2851 125.545 70.5622 131.325 70.5622C137.387 70.5622 142.181 75.2146 142.181 81.1359C142.181 87.1276 137.317 91.921 131.325 91.921ZM128.294 148.807H35.9506C34.7522 148.807 33.8358 147.891 33.8358 146.693V125.334C33.8358 112.434 46.3128 101.931 61.7503 101.79H69.1519L70.1388 98.3357C64.9929 95.0931 61.6798 89.4538 61.3274 82.6162C53.3619 77.3294 54.7717 60.5525 56.675 52.6574C58.2963 46.2427 61.2569 43.846 66.6142 41.5903H66.6847C74.7912 38.4887 88.537 37.8543 97.9828 42.6477C102.917 45.1149 106.16 48.8509 107.499 53.5033C109.896 60.9049 109.191 70.9851 105.737 78.0343V78.1048C104.116 81.4178 102.776 82.1932 102.706 82.4047C102.635 82.5457 103.411 93.1194 94.1058 98.5472L94.9517 101.79H102.635C118.002 102.001 130.409 112.504 130.409 125.334V146.693C130.409 147.891 129.492 148.807 128.294 148.807ZM70.0683 106.019H65.3454L72.183 121.527L79.0207 112.998L70.0683 106.019ZM60.693 106.09C48.075 106.654 38.0653 115.042 38.0653 125.334V144.578H44.198V133.511C44.198 130.762 48.4275 130.762 48.4275 133.511V144.578H53.5733V133.511C53.5733 130.762 57.8028 130.762 57.8028 133.511V144.578H74.5092L76.5535 125.827L75.4961 124.206C74.2978 125.686 72.9584 128.013 71.4076 127.66C70.7027 127.519 70.0683 127.096 69.7158 126.391L60.693 106.09ZM89.8058 144.578H106.442V128.576C106.442 125.827 110.671 125.827 110.671 128.576V144.578H115.817V130.268C115.817 127.449 120.047 127.449 120.047 130.268V144.578H126.179V125.334C126.179 115.042 116.17 106.654 103.552 106.09L94.5287 126.391C93.8943 127.731 91.991 128.153 90.9337 126.885L88.7485 124.206L87.6911 125.686L89.8058 144.578ZM98.8992 106.019H93.9648L85.0124 112.927L91.991 121.527L98.8992 106.019ZM81.9813 132.383C81.2059 132.383 80.642 132.031 80.219 131.396L78.7387 144.578H85.5059L84.0255 131.044C83.5321 131.749 83.1092 132.383 81.9813 132.383ZM78.2453 120.752L82.0518 126.391L85.9288 120.752L82.0518 116.029L78.2453 120.752ZM81.9813 109.967L90.8632 103.129L90.1583 100.239C85.9993 101.508 78.1043 101.508 74.0158 100.098L73.1699 103.129L81.9813 109.967ZM65.5569 80.8539V81.6293C65.5569 90.4407 71.6896 96.8554 80.1485 96.8554H84.096C93.0484 96.8554 99.0402 90.5112 98.4762 81.6998C97.9123 73.2409 98.7582 73.0294 97.4189 63.3016C87.973 65.9098 76.8354 73.7343 66.0503 64.4295C64.711 69.6458 65.3454 75.2146 65.5569 80.8539ZM68.2355 45.5378C63.7241 47.4411 62.0323 48.9214 60.8339 53.7148C59.1422 60.482 58.7192 70.1393 61.1159 75.6376C60.9044 70.3507 60.9044 65.2754 63.1601 59.7066C63.7241 58.2262 65.6273 57.8738 66.6847 59.0721C76.9059 70.8442 87.973 60.5525 98.8287 58.6492C99.9566 58.4377 101.084 59.2131 101.296 60.4115C102.212 66.1917 102.565 69.8573 102.494 75.0031C104.961 69.0114 105.455 60.6934 103.481 54.7722V54.7017C102.494 51.1771 100.027 48.3575 96.15 46.3837C88.0435 42.2952 75.6371 42.7182 68.2355 45.5378ZM135.837 104.609C124.065 104.609 124.981 105.737 124.981 98.8997C122.796 98.1947 120.822 97.0669 119.201 95.7276C113.279 98.8292 114.76 98.9701 109.05 89.2424C107.711 86.9866 110.812 85.7883 112.856 84.5195C112.433 82.1932 112.433 80.3605 112.856 77.9638C110.812 76.6949 107.852 75.4966 109.05 73.2409C114.76 63.0901 113.491 63.3721 119.271 66.6852C120.892 65.2754 122.937 64.077 124.981 63.3016C124.981 56.8164 124.206 57.8738 135.837 57.8738C138.515 57.8738 137.951 61.1164 137.951 63.3721C139.925 64.077 141.828 65.2754 143.591 66.7557C149.441 63.3721 148.173 63.0901 153.882 73.3114C155.151 75.6376 152.05 76.7654 150.005 77.8933C150.499 80.149 150.499 82.4047 150.005 84.5899C155.927 87.9735 155.292 86.7752 149.653 96.503C148.314 98.7587 145.776 96.7849 143.661 95.6571C141.969 97.0669 140.066 98.1947 137.951 98.8997C137.951 101.367 138.515 104.609 135.837 104.609ZM129.21 100.38H133.722C133.722 98.1947 133.228 95.798 135.273 95.3046C141.476 93.7538 141.758 89.9473 144.296 91.2866L146.974 92.6964L149.159 88.9604C147.186 87.903 144.859 87.0571 145.564 84.9424C147.538 79.1621 143.802 76.6244 146.481 75.0736L149.159 73.5933L146.974 69.7163C145.141 70.8442 143.309 72.395 141.828 70.9147C136.964 66.0508 133.722 67.8835 133.722 64.9934V62.1738H129.21C129.21 64.218 129.633 66.5442 127.66 67.0376C121.456 68.5884 121.174 72.8179 118.566 71.2671L115.958 69.7163L113.773 73.5933C119.06 76.9064 116.804 75.6376 116.804 81.2064C116.804 87.0571 119.06 85.7883 113.773 88.9604L115.958 92.6964C117.861 91.7096 119.765 90.1587 121.174 91.78C124.84 95.939 129.21 94.3177 129.21 97.3489V100.38ZM131.325 74.7917C127.801 74.7917 124.981 77.6113 124.981 81.1359C124.981 84.7309 127.942 87.6916 131.325 87.6916C134.991 87.6916 137.951 84.7309 137.951 81.1359C137.951 77.6113 135.061 74.7917 131.325 74.7917Z" fill="white"/>
</svg>
