<svg width="16" height="16" viewBox="0 0 16 16" fill="none" xmlns="http://www.w3.org/2000/svg">
<path d="M3.57812 8.28906V7.03906H5.41146V8.28906H3.57812Z" fill="white" stroke="#5E72E4" stroke-width="0.5"/>
<path d="M9.16146 6.78906H6.82812V8.53906H9.16146V6.78906Z" fill="#5E72E4"/>
<path d="M5.66146 9.70703H3.32812V11.457H5.66146V9.70703Z" fill="#5E72E4"/>
<path d="M9.16146 9.70703H6.82812V11.457H9.16146V9.70703Z" fill="#5E72E4"/>
<path d="M12.6615 6.78906H10.3281V8.53906H12.6615V6.78906Z" fill="#5E72E4"/>
<path d="M14.4167 2.70703H11.5V1.54036C11.5 1.38565 11.4385 1.23728 11.3291 1.12789C11.2197 1.01849 11.0714 0.957031 10.9167 0.957031C10.762 0.957031 10.6136 1.01849 10.5042 1.12789C10.3948 1.23728 10.3333 1.38565 10.3333 1.54036V2.70703H5.66667V1.54036C5.66667 1.38565 5.60521 1.23728 5.49581 1.12789C5.38642 1.01849 5.23804 0.957031 5.08333 0.957031C4.92862 0.957031 4.78025 1.01849 4.67085 1.12789C4.56146 1.23728 4.5 1.38565 4.5 1.54036V2.70703H1.58333C1.42862 2.70703 1.28025 2.76849 1.17085 2.87789C1.06146 2.98728 1 3.13566 1 3.29036L1 13.7904C1 13.9451 1.06146 14.0934 1.17085 14.2028C1.28025 14.3122 1.42862 14.3737 1.58333 14.3737H14.4167C14.5714 14.3737 14.7197 14.3122 14.8291 14.2028C14.9385 14.0934 15 13.9451 15 13.7904V3.29036C15 3.13566 14.9385 2.98728 14.8291 2.87789C14.7197 2.76849 14.5714 2.70703 14.4167 2.70703ZM13.8333 13.207H2.16667V5.04036H13.8333V13.207Z" fill="#5E72E4"/>
</svg>
