<svg width="16" height="16" viewBox="0 0 16 16" fill="none" xmlns="http://www.w3.org/2000/svg">
<g clip-path="url(#clip0_1513_20410)">
<path d="M8.70979 5.38423H11.6953V1.32442H0.925985V14.6757H8.31653V5.7775C8.31653 5.56036 8.49266 5.38423 8.70979 5.38423ZM2.38471 8.92833H6.57982C6.79696 8.92833 6.97309 9.10445 6.97309 9.3214V10.7576C6.97309 10.9748 6.79696 11.1507 6.57982 11.1507H2.38471C2.16757 11.1507 1.99163 10.9748 1.99163 10.7576V9.3214C1.99163 9.10445 2.16757 8.92833 2.38471 8.92833ZM6.18675 9.71466H2.77797V10.3644H6.18675V9.71466ZM2.38471 5.77258H6.57982C6.79696 5.77258 6.97309 5.94852 6.97309 6.16566V7.60189C6.97309 7.81903 6.79696 7.99496 6.57982 7.99496H2.38471C2.16757 7.99496 1.99163 7.81903 1.99163 7.60189V6.16566C1.99163 5.94852 2.16757 5.77258 2.38471 5.77258ZM6.18675 6.55892H2.77797V7.20863H6.18675V6.55892ZM2.38471 2.61684H6.57982C6.79696 2.61684 6.97309 2.79278 6.97309 3.00992V4.44615C6.97309 4.66309 6.79696 4.83922 6.57982 4.83922H2.38471C2.16757 4.83922 1.99163 4.66309 1.99163 4.44615V3.00992C1.99163 2.79278 2.16757 2.61684 2.38471 2.61684ZM6.18675 3.40318H2.77797V4.05289H6.18675V3.40318ZM12.4816 5.38423H15.4671C15.6842 5.38423 15.8603 5.56036 15.8603 5.7775V15.069C15.8603 15.2861 15.6842 15.462 15.4671 15.462C10.489 15.462 5.51097 15.462 0.532911 15.462C0.315776 15.462 0.139648 15.2861 0.139648 15.069V0.93116C0.139648 0.714213 0.315776 0.538086 0.532911 0.538086H12.0885C12.3055 0.538086 12.4816 0.714213 12.4816 0.93116V5.38423ZM12.6454 14.6757V13.0337H11.5314V14.6757H12.6454ZM10.7451 14.6757V12.6404C10.7451 12.4233 10.921 12.2473 11.1382 12.2473H13.0387C13.2558 12.2473 13.4318 12.4233 13.4318 12.6404V14.6757H15.074V6.17057H12.0885H9.10287V14.6757H10.7451ZM10.2231 9.32612H11.3846C11.6017 9.32612 11.7777 9.50206 11.7777 9.7192V10.8807C11.7777 11.0978 11.6017 11.2739 11.3846 11.2739H10.2231C10.006 11.2739 9.82987 11.0978 9.82987 10.8807V9.7192C9.82987 9.50206 10.006 9.32612 10.2231 9.32612ZM10.9913 10.1125H10.6162V10.4876H10.9913V10.1125ZM12.7923 9.32612H13.9537C14.1709 9.32612 14.347 9.50206 14.347 9.7192V10.8807C14.347 11.0978 14.1709 11.2739 13.9537 11.2739H12.7923C12.5751 11.2739 12.3992 11.0978 12.3992 10.8807V9.7192C12.3992 9.50206 12.5751 9.32612 12.7923 9.32612ZM13.5607 10.1125H13.1855V10.4876H13.5607V10.1125ZM10.2231 7.03836H11.3846C11.6017 7.03836 11.7777 7.21449 11.7777 7.43162V8.59308C11.7777 8.81021 11.6017 8.98615 11.3846 8.98615H10.2231C10.006 8.98615 9.82987 8.81021 9.82987 8.59308V7.43162C9.82987 7.21449 10.006 7.03836 10.2231 7.03836ZM10.9913 7.82469H10.6162V8.19982H10.9913V7.82469ZM12.7923 7.03836H13.9537C14.1709 7.03836 14.347 7.21449 14.347 7.43162V8.59308C14.347 8.81021 14.1709 8.98615 13.9537 8.98615H12.7923C12.5751 8.98615 12.3992 8.81021 12.3992 8.59308V7.43162C12.3992 7.21449 12.5751 7.03836 12.7923 7.03836ZM13.5607 7.82469H13.1855V8.19982H13.5607V7.82469Z" fill="#5E72E4"/>
</g>
<defs>
<clipPath id="clip0_1513_20410">
<rect width="16" height="16" fill="white"/>
</clipPath>
</defs>
</svg>
