<svg width="30" height="30" viewBox="0 0 30 30" fill="none" xmlns="http://www.w3.org/2000/svg">
<g clip-path="url(#clip0_2564_10995)">
<path d="M23.1397 0.0114156C22.6782 -0.041133 22.2681 0.0876111 21.9043 0.400275C21.543 0.71294 21.3428 1.11756 21.2939 1.61678L20.9106 5.52902C20.8618 6.02823 20.9814 6.47227 21.272 6.8585C21.5625 7.24473 21.9385 7.46281 22.4023 7.51536L23.7744 7.67038C23.6401 8.05661 23.4839 8.41919 23.3032 8.7555C23.125 9.09707 22.8442 9.40974 22.4731 9.69613C23.1421 9.5884 23.7476 9.38083 24.2969 9.07868C24.8413 8.77915 25.3272 8.38241 25.7422 7.89633L27.2656 8.06975C27.7271 8.12229 28.1372 7.98829 28.501 7.68089C28.8623 7.36822 29.0625 6.9636 29.1113 6.46439L29.4946 2.55214C29.5435 2.05556 29.4238 1.61415 29.1333 1.22266C28.8428 0.833801 28.4668 0.618352 28.0029 0.565803L23.1397 0.0114156ZM9.81201 14.9641C13.0347 14.126 16.5308 13.9999 20.4443 14.9641C20.7642 15.0429 21.0962 15.2242 21.2622 15.5001C21.3306 15.5789 21.394 15.6656 21.4453 15.7602L23.8574 19.3887L25.3345 15.0351C25.4761 14.6015 25.6592 14.3178 25.9106 14.1864V14.1811L27.5586 12.8543C27.7344 12.7124 27.9858 12.7518 28.1177 12.941C28.2495 13.1302 28.2129 13.4008 28.0371 13.5427L27.0752 14.3178C27.1606 14.3546 27.2485 14.394 27.3364 14.4386L28.3887 13.6977C28.5303 13.5979 28.7231 13.6399 28.8159 13.7949C28.9087 13.9473 28.8696 14.1549 28.728 14.2547L28.1885 14.6331H29.563C29.8047 14.6331 30.0024 14.8459 30.0024 15.106C30.0024 15.3661 29.8047 15.5789 29.563 15.5789H28.3716C28.3472 15.7471 28.2251 15.9652 28.1763 16.1149L25.6152 24.0577H25.6128C25.498 24.4045 25.2734 24.7145 24.9561 24.9142C24.2407 25.3661 23.3203 25.1086 22.9004 24.3362L20.5957 20.5211L19.4605 27.2369C19.209 28.7266 18.3789 29.9983 17.0581 29.9983H13.1982C11.8774 29.9983 11.0474 28.7266 10.7935 27.2369L9.60205 20.1927L7.10205 24.3362C6.68213 25.106 5.76172 25.3661 5.04639 24.9142C4.72656 24.7119 4.50439 24.4045 4.38965 24.0577H4.38721L1.82617 16.1149C1.77734 15.9652 1.65771 15.7471 1.63086 15.5789H0.439453C0.197754 15.5789 0 15.3661 0 15.106C0 14.8459 0.197754 14.6331 0.439453 14.6331H1.81396L1.27441 14.2547C1.13281 14.1549 1.09375 13.9473 1.18652 13.7949C1.2793 13.6425 1.47217 13.6005 1.61377 13.6977L2.66602 14.4386C2.75391 14.3966 2.83936 14.3546 2.92725 14.3178L1.96533 13.5427C1.78955 13.4008 1.75293 13.1302 1.88477 12.9436C2.0166 12.7545 2.26807 12.715 2.44385 12.8569L4.0918 14.1838V14.189C4.34326 14.3204 4.52637 14.6042 4.66797 15.0377L6.14502 19.3913L8.55713 15.7629C8.80859 15.3031 9.28955 15.0246 9.79004 14.972L9.81201 14.9641ZM14.9146 2.64936C17.6416 2.64936 19.8511 5.02718 19.8511 7.96202C19.8511 10.8969 17.6416 13.2747 14.9146 13.2747C12.1875 13.2747 9.97803 10.8969 9.97803 7.96202C9.97803 5.02981 12.1875 2.64936 14.9146 2.64936ZM24.6094 5.1822L25.4028 5.31883L25.2905 6.0729L24.4971 5.93627L24.6094 5.1822ZM25.4639 4.90632L24.6729 4.76969C24.7485 3.72135 24.6704 3.11967 24.8267 2.08446C24.8828 1.70348 25.2173 1.44337 25.5713 1.50642C25.9253 1.56948 26.167 1.92681 26.1108 2.30779C25.9521 3.34037 25.6982 3.88688 25.4639 4.90632Z" fill="white"/>
</g>
<defs>
<clipPath id="clip0_2564_10995">
<rect width="30" height="30" fill="white"/>
</clipPath>
</defs>
</svg>
