<svg width="16" height="16" viewBox="0 0 16 16" fill="none" xmlns="http://www.w3.org/2000/svg">
<g clip-path="url(#clip0_8856_61320)">
<path d="M11.2467 2.27398H11.2465C11.1816 2.27389 11.1179 2.25666 11.0619 2.22404C11.0058 2.19142 10.9593 2.14456 10.9271 2.08822M11.2467 2.27398L12.6213 2.41065C12.7727 2.56298 12.8577 2.76965 12.8577 2.98498V7.46532L12.7577 7.46507M11.2467 2.27398H11.247H12.0863C12.2689 2.27398 12.4147 2.34423 12.5503 2.48105L12.5504 2.48113C12.683 2.61465 12.7577 2.79595 12.7577 2.98498L12.7577 7.46507M11.2467 2.27398L12.7577 7.46507M10.9271 2.08822L11.014 2.03865L10.9273 2.08841C10.9272 2.08835 10.9272 2.08828 10.9271 2.08822ZM10.9271 2.08822C10.914 2.06523 10.9061 2.03876 10.9009 2.01646C10.8953 1.99249 10.891 1.96564 10.8877 1.9379C10.8811 1.88233 10.878 1.81757 10.878 1.75398C10.878 1.6904 10.8811 1.62564 10.8877 1.57007C10.891 1.54233 10.8953 1.51548 10.9009 1.49151C10.9061 1.46919 10.914 1.44269 10.9272 1.41968C10.9594 1.36328 11.0059 1.31638 11.062 1.28377C11.1182 1.25114 11.182 1.23396 11.247 1.23398C11.247 1.23398 11.247 1.23398 11.247 1.23398H12.3237C12.7065 1.23398 13.0736 1.38739 13.3443 1.66022L13.3444 1.6603C13.615 1.93362 13.7667 2.30271 13.7667 2.68732C13.7667 2.68733 13.7667 2.68733 13.7667 2.68734V7.46632C13.7667 7.54881 13.7137 7.60991 13.6668 7.64867C13.6172 7.68972 13.5536 7.72325 13.4907 7.74954C13.3665 7.80144 13.2179 7.83598 13.1263 7.83598H13.1258C13.0279 7.8355 12.9341 7.79618 12.8651 7.72664C12.7961 7.65717 12.7575 7.5632 12.7577 7.46532C12.7577 7.46524 12.7577 7.46515 12.7577 7.46507M2.34327 16.1007H2.34333H7.01667C7.21768 16.1007 7.50133 15.9144 7.50133 15.5373C7.50133 15.3496 7.43025 15.2188 7.32612 15.1376C7.22637 15.0598 7.10655 15.0353 7.01667 15.0353H2.69172C2.59891 15.0353 2.50703 15.0168 2.42139 14.9811C2.33574 14.9453 2.25803 14.8929 2.19274 14.827L2.19261 14.8268C2.06002 14.6934 1.98567 14.5124 1.98567 14.323L1.986 2.80065V2.80065C1.986 2.59679 2.04557 2.47554 2.13745 2.40167C2.23379 2.32421 2.38442 2.28332 2.59733 2.28332H3.599C3.68534 2.28332 3.74665 2.22282 3.78336 2.17421C3.82341 2.12117 3.85633 2.05326 3.88225 1.98612C3.93348 1.8534 3.96767 1.69601 3.96767 1.60465C3.96767 1.40081 3.80328 1.23398 3.599 1.23398H2.34333C1.5454 1.23398 0.9 1.88547 0.9 2.68732V14.6473C0.9 14.6473 0.9 14.6473 0.9 14.6473C0.89992 15.0319 1.05168 15.401 1.32227 15.6743C1.45587 15.8093 1.61488 15.9165 1.79013 15.9896C1.96537 16.0628 2.15337 16.1005 2.34327 16.1007ZM1.886 2.80065L1.88567 14.323C1.88567 14.5387 1.97033 14.745 2.12167 14.8973L1.886 2.80065Z" fill="#5E72E4" stroke="#5E72E4" stroke-width="0.2"/>
<path d="M11.1327 3.15544L11.1327 3.15553C11.0657 3.22294 10.9861 3.27644 10.8984 3.31297C10.8107 3.34948 10.7166 3.3683 10.6216 3.36833C10.6216 3.36833 10.6216 3.36833 10.6216 3.36833L4.15956 3.36833C4.15953 3.36833 4.1595 3.36833 4.15947 3.36833C4.06421 3.36805 3.96992 3.34902 3.88201 3.31231C3.79407 3.27559 3.71423 3.22192 3.64703 3.15434C3.57984 3.08677 3.52661 3.00662 3.49039 2.91847C3.45417 2.83033 3.43567 2.73591 3.43594 2.64062V2.64033L3.43594 0.828L3.43594 0.827717C3.43567 0.732421 3.45417 0.638005 3.49039 0.54986C3.52661 0.461715 3.57984 0.381567 3.64703 0.313992C3.71423 0.246417 3.79407 0.192739 3.88201 0.156022C3.96991 0.119322 4.06417 0.100287 4.15942 0.1H10.6216C10.8132 0.1 10.997 0.176629 11.1327 0.313149C11.2684 0.449776 11.3449 0.634784 11.3449 0.828V2.64033C11.3449 2.834 11.2687 3.01893 11.1327 3.15544ZM10.9368 3.40528C10.8369 3.44687 10.7298 3.4683 10.6216 3.46833H4.15927C4.05085 3.46803 3.94354 3.44637 3.84348 3.40459C3.74342 3.36281 3.65258 3.30174 3.57612 3.22485C3.49967 3.14797 3.43911 3.05677 3.3979 2.95648C3.35669 2.85619 3.33563 2.74876 3.33594 2.64033V0.828C3.33563 0.719572 3.35669 0.612145 3.3979 0.511853C3.43911 0.411561 3.49967 0.320368 3.57612 0.243481C3.65258 0.166594 3.74342 0.105519 3.84348 0.0637422C3.94354 0.0219656 4.05085 0.000305986 4.15927 0H10.6216C10.8399 0 11.0493 0.0873333 11.2036 0.242667C11.3579 0.398 11.4449 0.608333 11.4449 0.828V2.64033C11.4449 2.86033 11.3583 3.07067 11.2036 3.226C11.1274 3.30276 11.0367 3.36369 10.9368 3.40528ZM8.98219 13.233L9.02867 13.2795C8.92629 13.331 8.84961 13.4236 8.84961 13.5467V14.0253C8.84961 14.2204 9.04171 14.339 9.22394 14.339H14.1506C14.3325 14.339 14.5246 14.2204 14.5246 14.0257V13.5467C14.5246 13.3516 14.3325 13.233 14.1503 13.233H9.22361H8.98219ZM8.50061 14.1214V14.1213V13.5033C8.50061 13.31 8.57686 13.1251 8.7128 12.9886L8.71293 12.9884C8.77986 12.921 8.85948 12.8674 8.94719 12.8308C9.0349 12.7943 9.12898 12.7754 9.22401 12.7753L9.32394 12.7753V12.775H14.1506C14.3418 12.775 14.5256 12.8516 14.6617 12.9881C14.7973 13.1247 14.8736 13.3097 14.8736 13.503V14.1213C14.8736 14.3146 14.7974 14.4997 14.6616 14.6366C14.5946 14.704 14.515 14.7575 14.4272 14.794C14.3395 14.8305 14.2453 14.8493 14.1503 14.8493H9.22368C9.12872 14.8493 9.03471 14.8304 8.94705 14.7939C8.85939 14.7574 8.77981 14.7039 8.71289 14.6365L8.64194 14.707L8.71289 14.6365C8.57686 14.4996 8.50055 14.3144 8.50061 14.1214ZM4.37461 0.672667C4.19118 0.672667 4.01727 0.804578 4.01727 0.996V2.46533C4.01727 2.65658 4.19098 2.789 4.37461 2.789H10.4326C10.6161 2.789 10.7899 2.657 10.7899 2.46533V0.996333C10.7899 0.804667 10.6161 0.672667 10.4326 0.672667H4.37461ZM8.74494 15.2817H14.5936C14.6756 15.2817 14.7542 15.3142 14.8122 15.3722C14.8702 15.4302 14.9028 15.5088 14.9028 15.5908C14.9028 15.6728 14.8702 15.7515 14.8122 15.8094C14.7542 15.8674 14.6756 15.9 14.5936 15.9H8.74494C8.66295 15.9 8.58431 15.8674 8.52633 15.8094C8.46835 15.7515 8.43577 15.6728 8.43577 15.5908C8.43577 15.5088 8.46835 15.4302 8.52633 15.3722C8.58431 15.3142 8.66295 15.2817 8.74494 15.2817ZM4.12194 5.1H10.4433C10.5369 5.1 10.6266 5.13717 10.6928 5.20334C10.7589 5.26951 10.7961 5.35926 10.7961 5.45283C10.7961 5.54641 10.7589 5.63616 10.6928 5.70232C10.6266 5.76849 10.5369 5.80567 10.4433 5.80567H4.12194C4.02836 5.80567 3.93862 5.76849 3.87245 5.70232C3.80628 5.63616 3.76911 5.54641 3.76911 5.45283C3.76911 5.35926 3.80628 5.26951 3.87245 5.20334C3.93862 5.13717 4.02836 5.1 4.12194 5.1ZM4.12194 7.1H7.94794C8.04152 7.1 8.13126 7.13717 8.19743 7.20334C8.2636 7.26951 8.30077 7.35926 8.30077 7.45283C8.30077 7.54641 8.2636 7.63616 8.19743 7.70232C8.13126 7.76849 8.04152 7.80567 7.94794 7.80567H4.12194C4.02836 7.80567 3.93862 7.76849 3.87245 7.70232C3.80628 7.63616 3.76911 7.54641 3.76911 7.45283C3.76911 7.35926 3.80628 7.26951 3.87245 7.20334C3.93862 7.13717 4.02836 7.1 4.12194 7.1ZM4.12194 9.1H6.21661C6.31018 9.1 6.39993 9.13717 6.4661 9.20334C6.53227 9.26951 6.56944 9.35926 6.56944 9.45283C6.56944 9.54641 6.53227 9.63616 6.4661 9.70232C6.39993 9.76849 6.31018 9.80567 6.21661 9.80567H4.12194C4.02836 9.80567 3.93862 9.76849 3.87245 9.70232C3.80628 9.63616 3.76911 9.54641 3.76911 9.45283C3.76911 9.35926 3.80628 9.26951 3.87245 9.20334C3.93862 9.13717 4.02836 9.1 4.12194 9.1Z" fill="#5E72E4" stroke="#5E72E4" stroke-width="0.2"/>
<path d="M10.867 9.03058C10.6225 9.17752 10.4804 9.368 10.443 9.58173C10.406 9.7938 10.4757 10.0089 10.6138 10.1999L10.6134 10.2002L10.6202 10.2079C11.1918 10.8489 11.3826 11.3369 11.1711 11.8242L11.1711 11.8242C11.1653 11.8375 11.1593 11.8516 11.153 11.8663C11.1064 11.9755 11.0442 12.121 10.9494 12.2591C10.8425 12.4149 10.7002 12.5517 10.5043 12.6101L10.5329 12.806H12.7799L12.8107 12.6109C12.6327 12.553 12.4935 12.4156 12.3852 12.2573C12.2808 12.1046 12.2118 11.9426 12.1661 11.8355C12.1645 11.8318 12.163 11.8282 12.1615 11.8247L12.1615 11.8247C11.9815 11.4036 12.1705 10.9029 12.6251 10.3781L12.6256 10.3785L12.6319 10.3693L12.7876 10.143L12.7879 10.1432L12.4259 9.1163L12.4836 9.03465C12.0227 8.70873 11.3467 8.74201 10.867 9.03058ZM10.867 9.03058L10.9185 9.1163L10.867 9.03061C10.867 9.0306 10.867 9.03059 10.867 9.03058ZM10.5329 12.706V12.606H10.7462C10.6826 12.6479 10.6118 12.6824 10.5329 12.706ZM10.5329 12.706L10.5614 12.8018C10.64 12.7783 10.7111 12.7454 10.7754 12.706H10.5329ZM12.7799 12.706L12.749 12.8011C12.6769 12.7777 12.611 12.745 12.5508 12.706H12.7799ZM12.7799 12.706V12.606H12.5813C12.6414 12.648 12.7074 12.6824 12.7799 12.706ZM12.7859 10.5378L12.7861 10.5379L12.9096 10.3987C13.3557 9.89488 13.2804 9.19881 12.7198 8.7658L12.7859 10.5378ZM12.7859 10.5378L12.7821 10.5426M12.7859 10.5378L12.7821 10.5426M12.7821 10.5426C12.5997 10.7756 12.475 10.9791 12.4381 11.196C12.4004 11.4173 12.4564 11.6357 12.5963 11.893C12.805 12.2778 13.1895 12.5543 13.6221 12.6522C13.6776 12.6648 13.7077 12.6887 13.7231 12.7098C13.7387 12.7312 13.7438 12.7559 13.7399 12.7802C13.7325 12.8249 13.6869 12.887 13.5729 12.887H9.77585C9.66204 12.887 9.6165 12.825 9.6091 12.7802C9.6051 12.7559 9.6103 12.7312 9.62584 12.7098C9.64123 12.6886 9.67131 12.6647 9.72668 12.6521C10.16 12.5542 10.544 12.2778 10.7531 11.893L10.7531 11.893M12.7821 10.5426L10.7531 11.893M10.7531 11.893C10.9058 11.6112 10.936 11.3271 10.8917 11.0908C10.8493 10.8642 10.7356 10.671 10.584 10.5749M10.7531 11.893L10.6652 11.8453C10.9485 11.3226 10.7719 10.8023 10.5212 10.6536M10.5212 10.6536L10.5926 10.5837L10.584 10.5749M10.5212 10.6536L10.2665 10.3936M10.5212 10.6536L10.2665 10.3936M10.584 10.5749L10.3422 10.328M10.584 10.5749L10.3422 10.328M10.3422 10.328C9.94215 9.80446 10.07 9.11615 10.6644 8.71237L10.3422 10.328ZM10.2665 10.3936C9.82319 9.81897 9.96985 9.0633 10.6082 8.62963L10.2665 10.3936ZM10.6644 8.71235C11.2675 8.30293 12.1511 8.32696 12.7197 8.76577L10.6644 8.71235Z" fill="#5E72E4" stroke="#5E72E4" stroke-width="0.2"/>
</g>
<defs>
<clipPath id="clip0_8856_61320">
<rect width="16" height="16" fill="white"/>
</clipPath>
</defs>
</svg>
