<svg width="30" height="30" viewBox="0 0 30 30" fill="none" xmlns="http://www.w3.org/2000/svg">
<g clip-path="url(#clip0_2501_15826)">
<path d="M6.57217 21.2207C6.10143 21.2207 5.72432 20.8643 5.72432 20.4248C5.72432 19.9854 6.10663 19.6289 6.57217 19.6289H12.1612C12.632 19.6289 13.0091 19.9854 13.0091 20.4248C13.0091 20.8643 12.6294 21.2207 12.1612 21.2207H6.57217ZM15.8908 18.9136C15.6411 18.9136 15.4278 18.7134 15.4278 18.4692C15.4278 18.2349 15.6411 18.0347 15.8908 18.0347H17.1001C17.1105 18.0347 17.1365 18.0347 17.1469 18.0347C17.5735 18.0444 17.9532 18.1226 18.2731 18.313C18.6294 18.5254 18.8895 18.8477 19.0325 19.3262C19.0325 19.3359 19.0325 19.3481 19.0455 19.3604L19.1651 19.8047H29.5397C29.7997 19.8047 30.0026 20.0049 30.0026 20.2393C30.0026 20.2832 29.9896 20.3271 29.9792 20.3735L28.7698 24.9487C28.723 25.1489 28.5332 25.2832 28.3199 25.2832H20.7308C20.8973 25.8618 21.0637 26.1743 21.2874 26.3184C21.5605 26.4844 22.0338 26.4966 22.8296 26.4844H22.8401H28.2003C28.4603 26.4844 28.6632 26.6846 28.6632 26.9189C28.6632 27.1631 28.4499 27.3535 28.2003 27.3535H22.8375C21.8518 27.3633 21.2484 27.3413 20.762 27.041C20.2627 26.7285 20.0026 26.1963 19.7425 25.2271L18.1534 19.5801C18.1534 19.5679 18.1534 19.5679 18.143 19.5581C18.0728 19.314 17.9532 19.1455 17.7867 19.0576C17.6203 18.9575 17.3966 18.9136 17.1339 18.9136C17.1209 18.9136 17.1105 18.9136 17.0975 18.9136H15.8908ZM26.8114 27.8638C27.4408 27.8638 27.9506 28.3423 27.9506 28.9331C27.9506 29.5239 27.4408 30.0024 26.8114 30.0024C26.1821 30.0024 25.6723 29.5239 25.6723 28.9331C25.6723 28.3423 26.1821 27.8638 26.8114 27.8638ZM21.8179 27.8638C22.4473 27.8638 22.9571 28.3423 22.9571 28.9331C22.9571 29.5239 22.4473 30.0024 21.8179 30.0024C21.1886 30.0024 20.6788 29.5239 20.6788 28.9331C20.6788 28.3423 21.1912 27.8638 21.8179 27.8638ZM6.57217 8.19824C6.10143 8.19824 5.72432 7.83936 5.72432 7.40234C5.72432 6.96289 6.10663 6.60645 6.57217 6.60645H19.7113C20.1821 6.60645 20.5592 6.96289 20.5592 7.40234C20.5592 7.8418 20.1795 8.19824 19.7113 8.19824H6.57217ZM1.96879 0H24.2393C24.7828 0 25.277 0.20752 25.6307 0.539551C25.9844 0.871582 26.2055 1.33545 26.2055 1.8457V16.4893H24.515V1.85303C24.515 1.78223 24.4837 1.71631 24.4343 1.66748C24.3823 1.62109 24.3121 1.5918 24.2367 1.5918H1.96879C1.89337 1.5918 1.82315 1.62109 1.77113 1.66748C1.71912 1.71387 1.69311 1.78223 1.69311 1.85303V25.9424C1.69311 26.0132 1.72432 26.0791 1.77373 26.1279C1.82315 26.1768 1.89337 26.2036 1.97139 26.2036H16.2887C16.4473 26.7871 16.6268 27.2974 16.8687 27.7832H1.96879C1.42523 27.7832 0.931079 27.5757 0.577373 27.2437C0.221066 26.9141 0 26.4502 0 25.9399V1.84814C0 1.33789 0.221066 0.871582 0.574772 0.539551C0.928479 0.20752 1.42523 0 1.96879 0ZM6.57217 14.7095C6.10143 14.7095 5.72432 14.353 5.72432 13.9136C5.72432 13.4741 6.10663 13.1177 6.57217 13.1177H19.7113C20.1821 13.1177 20.5592 13.4741 20.5592 13.9136C20.5592 14.353 20.1795 14.7095 19.7113 14.7095H6.57217Z" fill="white"/>
</g>
<defs>
<clipPath id="clip0_2501_15826">
<rect width="30" height="30" fill="white"/>
</clipPath>
</defs>
</svg>
