<svg width="202" height="203" viewBox="0 0 202 203" fill="none" xmlns="http://www.w3.org/2000/svg">
<g clip-path="url(#clip0_7012_19639)">
<path d="M100.962 202.284C156.722 202.284 201.924 157.081 201.924 101.322C201.924 45.5617 156.722 0.359375 100.962 0.359375C45.2023 0.359375 0 45.5617 0 101.322C0 157.081 45.2023 202.284 100.962 202.284Z" fill="url(#paint0_linear_7012_19639)"/>
<path fill-rule="evenodd" clip-rule="evenodd" d="M49.8358 100.488C47.715 97.1558 47.0334 94.1262 47.7908 91.3995C48.5482 88.8243 50.5174 87.3852 51.5021 86.7793C53.0926 83.8254 56.4252 81.9319 60.2122 81.9319C64.075 81.9319 67.4076 83.8254 68.9224 86.7793C69.9827 87.3852 72.0277 88.8243 72.7851 91.4752C73.6183 94.1262 72.9366 97.1558 70.8159 100.488C70.4372 101.852 72.1035 107.229 66.8774 111.395L68.3165 113.894L71.2703 113.97C74.5272 108.29 80.6622 104.427 87.706 104.427H90.2812L92.7806 100.11C85.4338 94.5806 87.706 86.6278 87.2516 85.0373C84.2977 80.5686 83.3888 76.4786 84.4492 72.9188C85.4338 69.359 88.1605 67.4655 89.4481 66.7838C91.4173 62.8453 95.8103 60.2701 100.961 60.2701C106.035 60.2701 110.504 62.7696 112.397 66.7838C113.761 67.4655 116.563 69.359 117.624 72.9945C118.684 76.5544 117.775 80.5686 114.897 85.0373C114.442 86.5521 116.715 94.6563 109.216 100.11L111.716 104.427H114.291C121.259 104.427 127.47 108.29 130.727 113.97L133.681 113.894L135.12 111.395C129.969 107.154 131.636 101.852 131.257 100.488C129.136 97.1558 128.454 94.1262 129.212 91.3995C129.969 88.8243 131.938 87.3852 132.999 86.7793C134.514 83.8254 137.846 81.9319 141.633 81.9319C145.496 81.9319 148.829 83.8254 150.343 86.7793C151.404 87.3852 153.449 88.8243 154.206 91.4752C155.039 94.1262 154.358 97.1558 152.237 100.488C151.858 101.852 153.525 107.229 148.298 111.395L149.738 113.894H151.328C159.205 113.894 165.567 120.332 165.567 128.134V140.631C165.567 141.615 164.734 142.373 163.825 142.373H38.1717C37.1871 142.373 36.4297 141.615 36.4297 140.631V128.134C36.4297 120.332 42.7919 113.894 50.6689 113.894H52.2595L53.6985 111.395C49.9115 108.29 49.8358 104.957 49.8358 100.488ZM95.886 97.9132C97.5523 98.6706 99.0671 99.2765 101.036 99.2765C106.641 99.2765 111.337 94.7321 111.337 88.9758V84.6586C110.883 71.3283 90.9629 75.6455 90.7356 84.5828V88.9758C90.7356 92.7628 92.8564 96.0954 95.886 97.9132ZM95.886 101.852L93.3866 106.093L100.961 116.091L108.535 106.093L106.111 101.852C102.93 103.139 99.0671 103.064 95.886 101.852ZM88.4634 79.9627C93.1593 71.6312 109.216 68.9803 113.761 79.584C114.594 77.4632 114.745 75.6455 114.215 73.9792C113.079 70.0407 110.049 70.2679 109.444 68.7531C106.793 62.2394 95.1286 62.2394 92.4019 68.7531C91.796 70.2679 88.9179 70.0407 87.7818 73.9792C87.3273 75.7212 87.5545 77.6905 88.4634 79.9627ZM73.9212 116.545C72.8609 119.196 72.255 120.408 72.255 123.438V138.889H80.5864V127.073C80.5864 124.801 84.1462 124.801 84.1462 127.073V138.889H117.851V127.073C117.851 124.801 121.411 124.801 121.411 127.073V138.889H129.666V122.983C129.515 114.955 122.774 107.987 114.291 107.987H111.564L102.4 120.105C101.718 121.014 100.279 121.014 99.5973 120.105L90.4327 107.987H87.706C81.6468 107.987 76.4207 111.471 73.9212 116.545ZM69.3011 118.818C69.4526 118.363 69.5283 117.909 69.6798 117.454H68.165L61.6513 126.089C60.9696 126.998 59.5306 126.998 58.8489 126.089L52.4109 117.454H50.6689C44.7611 117.454 39.9138 122.226 39.9138 128.134V138.889H68.7709V123.438C68.7709 121.847 68.9224 120.332 69.3011 118.818ZM132.241 117.454C132.923 119.423 133.226 121.393 133.226 123.438V138.889H162.007V128.134C162.007 122.226 157.236 117.454 151.328 117.454H149.586L143.072 126.089C142.466 126.922 140.952 126.922 140.27 126.089L133.832 117.454H132.241ZM141.709 113.743C140.497 113.743 139.285 113.516 138.225 113.137L136.786 115.561L141.709 122.074L146.632 115.561L145.193 113.137C144.133 113.516 142.921 113.743 141.709 113.743ZM134.741 100.034C134.741 103.972 134.514 107.078 138.452 109.35C142.921 111.925 148.677 108.365 148.677 103.215V100.11C148.374 91.0965 135.044 94.0504 134.741 100.034ZM132.772 95.5652C136.786 90.1119 147.087 88.8243 150.874 95.1108C151.934 90.4906 147.995 90.1876 147.39 88.6728C145.572 84.3556 137.771 84.3556 135.953 88.6728C135.347 90.1876 131.257 90.5664 132.772 95.5652ZM67.2561 100.034C66.6502 90.7936 53.3956 94.4291 53.3198 100.034C53.3198 103.972 53.0926 107.002 57.0311 109.35C61.4998 112.001 67.2561 108.29 67.2561 103.215V100.034ZM60.288 113.743C59.0761 113.743 57.8643 113.516 56.8039 113.137L55.3648 115.561L60.288 122.074L65.2111 115.561L63.772 113.137C62.7117 113.516 61.4998 113.743 60.288 113.743ZM69.3768 95.1108C70.5129 90.4906 66.5744 90.1876 65.9685 88.6728C64.1507 84.3556 56.3494 84.3556 54.5317 88.6728C53.9258 90.1876 49.76 90.5664 51.3506 95.5652C55.4406 90.0362 65.6655 88.8243 69.3768 95.1108Z" fill="white"/>
</g>
<defs>
<linearGradient id="paint0_linear_7012_19639" x1="100.987" y1="0.359375" x2="100.987" y2="202.334" gradientUnits="userSpaceOnUse">
<stop stop-color="#FFCC3C"/>
<stop offset="1" stop-color="#F2B507"/>
</linearGradient>
<clipPath id="clip0_7012_19639">
<rect width="202" height="202" fill="white" transform="translate(0 0.359375)"/>
</clipPath>
</defs>
</svg>