<svg width="30" height="30" viewBox="0 0 30 30" fill="none" xmlns="http://www.w3.org/2000/svg">
<path d="M25 10H21.25V5H3.75C2.375 5 1.25 6.125 1.25 7.5V21.25H3.75C3.75 23.325 5.425 25 7.5 25C9.575 25 11.25 23.325 11.25 21.25H18.75C18.75 23.325 20.425 25 22.5 25C24.575 25 26.25 23.325 26.25 21.25H28.75V15L25 10ZM24.375 11.875L26.825 15H21.25V11.875H24.375ZM7.5 22.5C6.8125 22.5 6.25 21.9375 6.25 21.25C6.25 20.5625 6.8125 20 7.5 20C8.1875 20 8.75 20.5625 8.75 21.25C8.75 21.9375 8.1875 22.5 7.5 22.5ZM10.275 18.75C9.5875 17.9875 8.6125 17.5 7.5 17.5C6.3875 17.5 5.4125 17.9875 4.725 18.75H3.75V7.5H18.75V18.75H10.275ZM22.5 22.5C21.8125 22.5 21.25 21.9375 21.25 21.25C21.25 20.5625 21.8125 20 22.5 20C23.1875 20 23.75 20.5625 23.75 21.25C23.75 21.9375 23.1875 22.5 22.5 22.5Z" fill="white"/>
<g clip-path="url(#clip0_2349_10135)">
<path d="M7.33331 8.54167H7.12498V8.125H6.70831V8.54167H6.29165V8.125H5.87498V8.54167H5.66665C5.20623 8.54167 4.83331 8.91458 4.83331 9.375V11.4583C4.83331 11.9187 5.20623 12.2917 5.66665 12.2917H7.33331C7.79373 12.2917 8.16665 11.9187 8.16665 11.4583V9.375C8.16665 8.91458 7.79373 8.54167 7.33331 8.54167ZM6.49998 11.4583C6.21248 11.4583 5.97915 11.2292 5.97915 10.9458C5.97915 10.7188 6.06873 10.6562 6.49998 10.1562C6.92706 10.6521 7.02081 10.7188 7.02081 10.9458C7.02081 11.2292 6.78748 11.4583 6.49998 11.4583ZM7.33331 9.79167H5.66665V9.375H7.33331V9.79167Z" fill="white"/>
<path d="M7.33329 7.70898H5.66663V8.12565H7.33329V7.70898Z" fill="white"/>
</g>
<g clip-path="url(#clip1_2349_10135)">
<path d="M7.33331 14.0417H7.12498V13.625H6.70831V14.0417H6.29165V13.625H5.87498V14.0417H5.66665C5.20623 14.0417 4.83331 14.4146 4.83331 14.875V16.9583C4.83331 17.4187 5.20623 17.7917 5.66665 17.7917H7.33331C7.79373 17.7917 8.16665 17.4187 8.16665 16.9583V14.875C8.16665 14.4146 7.79373 14.0417 7.33331 14.0417ZM6.49998 16.9583C6.21248 16.9583 5.97915 16.7292 5.97915 16.4458C5.97915 16.2188 6.06873 16.1562 6.49998 15.6562C6.92706 16.1521 7.02081 16.2188 7.02081 16.4458C7.02081 16.7292 6.78748 16.9583 6.49998 16.9583ZM7.33331 15.2917H5.66665V14.875H7.33331V15.2917Z" fill="white"/>
<path d="M7.33329 13.209H5.66663V13.6257H7.33329V13.209Z" fill="white"/>
</g>
<g clip-path="url(#clip2_2349_10135)">
<path d="M11.8333 8.54167H11.625V8.125H11.2083V8.54167H10.7916V8.125H10.375V8.54167H10.1666C9.70623 8.54167 9.33331 8.91458 9.33331 9.375V11.4583C9.33331 11.9187 9.70623 12.2917 10.1666 12.2917H11.8333C12.2937 12.2917 12.6666 11.9187 12.6666 11.4583V9.375C12.6666 8.91458 12.2937 8.54167 11.8333 8.54167ZM11 11.4583C10.7125 11.4583 10.4791 11.2292 10.4791 10.9458C10.4791 10.7188 10.5687 10.6562 11 10.1562C11.4271 10.6521 11.5208 10.7188 11.5208 10.9458C11.5208 11.2292 11.2875 11.4583 11 11.4583ZM11.8333 9.79167H10.1666V9.375H11.8333V9.79167Z" fill="white"/>
<path d="M11.8333 7.70898H10.1666V8.12565H11.8333V7.70898Z" fill="white"/>
</g>
<g clip-path="url(#clip3_2349_10135)">
<path d="M11.8333 14.0417H11.625V13.625H11.2083V14.0417H10.7916V13.625H10.375V14.0417H10.1666C9.70623 14.0417 9.33331 14.4146 9.33331 14.875V16.9583C9.33331 17.4187 9.70623 17.7917 10.1666 17.7917H11.8333C12.2937 17.7917 12.6666 17.4187 12.6666 16.9583V14.875C12.6666 14.4146 12.2937 14.0417 11.8333 14.0417ZM11 16.9583C10.7125 16.9583 10.4791 16.7292 10.4791 16.4458C10.4791 16.2188 10.5687 16.1562 11 15.6562C11.4271 16.1521 11.5208 16.2188 11.5208 16.4458C11.5208 16.7292 11.2875 16.9583 11 16.9583ZM11.8333 15.2917H10.1666V14.875H11.8333V15.2917Z" fill="white"/>
<path d="M11.8333 13.209H10.1666V13.6257H11.8333V13.209Z" fill="white"/>
</g>
<g clip-path="url(#clip4_2349_10135)">
<path d="M16.3333 8.54167H16.125V8.125H15.7083V8.54167H15.2916V8.125H14.875V8.54167H14.6666C14.2062 8.54167 13.8333 8.91458 13.8333 9.375V11.4583C13.8333 11.9187 14.2062 12.2917 14.6666 12.2917H16.3333C16.7937 12.2917 17.1666 11.9187 17.1666 11.4583V9.375C17.1666 8.91458 16.7937 8.54167 16.3333 8.54167ZM15.5 11.4583C15.2125 11.4583 14.9791 11.2292 14.9791 10.9458C14.9791 10.7188 15.0687 10.6562 15.5 10.1562C15.9271 10.6521 16.0208 10.7188 16.0208 10.9458C16.0208 11.2292 15.7875 11.4583 15.5 11.4583ZM16.3333 9.79167H14.6666V9.375H16.3333V9.79167Z" fill="white"/>
<path d="M16.3333 7.70898H14.6666V8.12565H16.3333V7.70898Z" fill="white"/>
</g>
<g clip-path="url(#clip5_2349_10135)">
<path d="M16.3333 14.0417H16.125V13.625H15.7083V14.0417H15.2916V13.625H14.875V14.0417H14.6666C14.2062 14.0417 13.8333 14.4146 13.8333 14.875V16.9583C13.8333 17.4187 14.2062 17.7917 14.6666 17.7917H16.3333C16.7937 17.7917 17.1666 17.4187 17.1666 16.9583V14.875C17.1666 14.4146 16.7937 14.0417 16.3333 14.0417ZM15.5 16.9583C15.2125 16.9583 14.9791 16.7292 14.9791 16.4458C14.9791 16.2188 15.0687 16.1562 15.5 15.6562C15.9271 16.1521 16.0208 16.2188 16.0208 16.4458C16.0208 16.7292 15.7875 16.9583 15.5 16.9583ZM16.3333 15.2917H14.6666V14.875H16.3333V15.2917Z" fill="white"/>
<path d="M16.3333 13.209H14.6666V13.6257H16.3333V13.209Z" fill="white"/>
</g>
<rect x="4" y="12.5" width="14.5" height="0.5" fill="#D9D9D9"/>
<defs>
<clipPath id="clip0_2349_10135">
<rect width="5" height="5" fill="white" transform="translate(4 7.5)"/>
</clipPath>
<clipPath id="clip1_2349_10135">
<rect width="5" height="5" fill="white" transform="translate(4 13)"/>
</clipPath>
<clipPath id="clip2_2349_10135">
<rect width="5" height="5" fill="white" transform="translate(8.5 7.5)"/>
</clipPath>
<clipPath id="clip3_2349_10135">
<rect width="5" height="5" fill="white" transform="translate(8.5 13)"/>
</clipPath>
<clipPath id="clip4_2349_10135">
<rect width="5" height="5" fill="white" transform="translate(13 7.5)"/>
</clipPath>
<clipPath id="clip5_2349_10135">
<rect width="5" height="5" fill="white" transform="translate(13 13)"/>
</clipPath>
</defs>
</svg>
