<svg width="94" height="94" viewBox="0 0 94 94" fill="none" xmlns="http://www.w3.org/2000/svg">
<path d="M46.9995 84.564C56.9674 84.564 66.5271 80.6043 73.5754 73.5559C80.6238 66.5075 84.5835 56.9479 84.5835 46.98C84.5835 37.0121 80.6238 27.4525 73.5754 20.4041C66.5271 13.3557 56.9674 9.396 46.9995 9.396C37.0316 9.396 27.472 13.3557 20.4236 20.4041C13.3753 27.4525 9.41553 37.0121 9.41553 46.98C9.41553 56.9479 13.3753 66.5075 20.4236 73.5559C27.472 80.6043 37.0316 84.564 46.9995 84.564ZM46.9995 93.96C21.0525 93.96 0.0195312 72.9271 0.0195312 46.98C0.0195312 21.0329 21.0525 0 46.9995 0C72.9466 0 93.9795 21.0329 93.9795 46.98C93.9795 72.9271 72.9466 93.96 46.9995 93.96ZM42.3015 65.772H51.6975V75.168H42.3015V65.772ZM42.3015 18.792H51.6975V56.376H42.3015V18.792Z" fill="#FB1E1E"/>
</svg>
