<svg width="22" height="18" viewBox="0 0 22 18" fill="none" xmlns="http://www.w3.org/2000/svg">
<path d="M5.3239 18.0003C4.8325 18.0003 4.35214 17.8525 3.94356 17.5756C3.53498 17.2988 3.21653 16.9052 3.02848 16.4448C2.84043 15.9844 2.79123 15.4778 2.8871 14.989C2.98296 14.5003 3.21959 14.0513 3.56706 13.6989C3.91453 13.3465 4.35724 13.1066 4.83919 13.0094C5.32114 12.9121 5.8207 12.962 6.27469 13.1527C6.72868 13.3434 7.11672 13.6664 7.38972 14.0808C7.66273 14.4951 7.80844 14.9823 7.80844 15.4806C7.8076 16.1486 7.54556 16.789 7.0798 17.2613C6.61404 17.7337 5.98258 17.9994 5.3239 18.0003ZM5.3239 14.4007C5.1133 14.4007 4.90743 14.4641 4.73233 14.5827C4.55722 14.7014 4.42074 14.87 4.34015 15.0674C4.25956 15.2647 4.23847 15.4818 4.27956 15.6913C4.32064 15.9007 4.42205 16.0932 4.57097 16.2442C4.71988 16.3952 4.90961 16.498 5.11617 16.5397C5.32272 16.5814 5.53681 16.56 5.73138 16.4783C5.92595 16.3965 6.09225 16.2581 6.20925 16.0805C6.32625 15.903 6.3887 15.6942 6.3887 15.4806C6.3887 15.1942 6.27652 14.9195 6.07683 14.717C5.87714 14.5145 5.6063 14.4007 5.3239 14.4007Z" fill="white"/>
<path d="M16.6926 18.0003C16.2012 18.0003 15.7208 17.8525 15.3122 17.5756C14.9036 17.2988 14.5852 16.9052 14.3971 16.4448C14.2091 15.9844 14.1599 15.4778 14.2557 14.989C14.3516 14.5003 14.5882 14.0513 14.9357 13.6989C15.2832 13.3465 15.7259 13.1066 16.2078 13.0094C16.6898 12.9121 17.1894 12.962 17.6433 13.1527C18.0973 13.3434 18.4854 13.6664 18.7584 14.0808C19.0314 14.4951 19.1771 14.9823 19.1771 15.4806C19.1762 16.1486 18.9142 16.789 18.4485 17.2613C17.9827 17.7337 17.3512 17.9994 16.6926 18.0003ZM16.6926 14.4007C16.482 14.4007 16.2761 14.4641 16.101 14.5827C15.9259 14.7014 15.7894 14.87 15.7088 15.0674C15.6282 15.2647 15.6071 15.4818 15.6482 15.6913C15.6893 15.9007 15.7907 16.0932 15.9396 16.2442C16.0885 16.3952 16.2783 16.498 16.4848 16.5397C16.6914 16.5814 16.9055 16.56 17.1 16.4783C17.2946 16.3965 17.4609 16.2581 17.5779 16.0805C17.6949 15.903 17.7574 15.6942 17.7574 15.4806C17.7574 15.1942 17.6452 14.9195 17.4455 14.717C17.2458 14.5145 16.975 14.4007 16.6926 14.4007Z" fill="white"/>
<path d="M21.9644 8.84776L19.4799 3.80843C19.4503 3.74832 19.4047 3.69782 19.3482 3.66264C19.2917 3.62746 19.2267 3.60901 19.1604 3.60938H14.1914C14.0972 3.60938 14.0069 3.6473 13.9404 3.71481C13.8738 3.78231 13.8364 3.87387 13.8364 3.96933V14.008C14.1644 13.3627 14.6966 12.8478 15.3477 12.5459C15.9987 12.244 16.7309 12.1727 17.4267 12.3433C18.1226 12.514 18.7417 12.9167 19.1848 13.4869C19.628 14.0572 19.8694 14.7618 19.8703 15.4878H21.645C21.7391 15.4878 21.8294 15.4499 21.896 15.3824C21.9625 15.3149 21.9999 15.2233 21.9999 15.1279V9.00866C22.0005 8.95297 21.9884 8.89789 21.9644 8.84776ZM14.9012 8.64871V4.68924H18.7217L20.6739 8.64871H14.9012Z" fill="white"/>
<path d="M12.4227 0H0.709869C0.5216 0 0.341042 0.0758468 0.207916 0.210855C0.0747896 0.345863 0 0.528974 0 0.719904V14.758C0 14.949 0.0747896 15.1321 0.207916 15.2671C0.341042 15.4021 0.5216 15.4779 0.709869 15.4779H2.12961C2.12961 14.6188 2.46616 13.7948 3.06523 13.1872C3.6643 12.5797 4.47681 12.2384 5.32402 12.2384C6.17123 12.2384 6.98374 12.5797 7.58281 13.1872C8.18188 13.7948 8.51843 14.6188 8.51843 15.4779H12.7776C12.8718 15.4779 12.9621 15.44 13.0286 15.3725C13.0952 15.305 13.1326 15.2135 13.1326 15.118V0.719904C13.1326 0.528974 13.0578 0.345863 12.9247 0.210855C12.7915 0.0758468 12.611 0 12.4227 0Z" fill="white"/>
</svg>
