<svg width="292" height="186" viewBox="0 0 292 186" fill="none" xmlns="http://www.w3.org/2000/svg">
<path d="M98.5731 175.079C93.7258 175.079 88.9874 173.642 84.957 170.949C80.9266 168.256 77.7853 164.428 75.9303 159.95C74.0753 155.472 73.59 150.544 74.5356 145.79C75.4813 141.035 77.8155 136.668 81.2431 133.241C84.6706 129.813 89.0376 127.479 93.7918 126.533C98.5459 125.588 103.474 126.073 107.952 127.928C112.43 129.783 116.258 132.924 118.951 136.955C121.644 140.985 123.082 145.724 123.082 150.571C123.073 157.068 120.488 163.297 115.894 167.892C111.3 172.486 105.071 175.071 98.5731 175.079ZM98.5731 140.067C96.4957 140.067 94.4649 140.683 92.7376 141.837C91.0103 142.992 89.664 144.632 88.8691 146.551C88.0741 148.471 87.8661 150.583 88.2713 152.62C88.6766 154.658 89.677 156.529 91.1459 157.998C92.6149 159.467 94.4865 160.467 96.524 160.873C98.5615 161.278 100.673 161.07 102.593 160.275C104.512 159.48 106.152 158.134 107.307 156.406C108.461 154.679 109.077 152.648 109.077 150.571C109.077 147.785 107.97 145.114 106 143.144C104.03 141.174 101.359 140.067 98.5731 140.067Z" fill="url(#paint0_linear_5621_20660)"/>
<path d="M210.716 175.079C205.869 175.079 201.13 173.642 197.1 170.949C193.07 168.256 189.928 164.428 188.073 159.95C186.218 155.472 185.733 150.544 186.679 145.79C187.624 141.035 189.959 136.668 193.386 133.241C196.814 129.813 201.181 127.479 205.935 126.533C210.689 125.588 215.617 126.073 220.095 127.928C224.573 129.783 228.401 132.924 231.094 136.955C233.787 140.985 235.225 145.724 235.225 150.571C235.216 157.068 232.631 163.297 228.037 167.892C223.443 172.486 217.214 175.071 210.716 175.079ZM210.716 140.067C208.639 140.067 206.608 140.683 204.881 141.837C203.153 142.992 201.807 144.632 201.012 146.551C200.217 148.471 200.009 150.583 200.414 152.62C200.82 154.658 201.82 156.529 203.289 157.998C204.758 159.467 206.63 160.467 208.667 160.873C210.705 161.278 212.816 161.07 214.736 160.275C216.655 159.48 218.295 158.134 219.45 156.406C220.604 154.679 221.22 152.648 221.22 150.571C221.22 147.785 220.113 145.114 218.143 143.144C216.174 141.174 213.502 140.067 210.716 140.067Z" fill="url(#paint1_linear_5621_20660)"/>
<path d="M262.723 85.9999L238.214 36.9831C237.922 36.3984 237.472 35.9072 236.915 35.565C236.358 35.2228 235.717 35.0434 235.063 35.0469H186.046C185.118 35.0469 184.227 35.4158 183.571 36.0724C182.914 36.729 182.545 37.6196 182.545 38.5481V136.193C185.78 129.916 191.03 124.908 197.453 121.971C203.875 119.035 211.097 118.341 217.961 120.001C224.825 121.661 230.933 125.578 235.304 131.125C239.675 136.671 242.056 143.525 242.066 150.587H259.572C260.5 150.587 261.391 150.218 262.047 149.561C262.704 148.904 263.073 148.014 263.073 147.085V87.5649C263.079 87.0232 262.959 86.4875 262.723 85.9999ZM193.049 84.0637V45.5505H230.736L249.992 84.0637H193.049Z" fill="url(#paint2_linear_5621_20660)"/>
<path d="M168.599 0H53.0598C51.2026 0 49.4215 0.737751 48.1083 2.05096C46.7951 3.36416 46.0574 5.14525 46.0574 7.0024V143.549C46.0574 145.406 46.7951 147.188 48.1083 148.501C49.4215 149.814 51.2026 150.552 53.0598 150.552H67.0646C67.0646 142.194 70.3845 134.18 76.2939 128.27C82.2033 122.361 90.2182 119.041 98.5754 119.041C106.933 119.041 114.947 122.361 120.857 128.27C126.766 134.18 130.086 142.194 130.086 150.552H172.101C173.029 150.552 173.92 150.183 174.576 149.526C175.233 148.87 175.602 147.979 175.602 147.05V7.0024C175.602 5.14525 174.864 3.36416 173.551 2.05096C172.238 0.737751 170.457 0 168.599 0Z" fill="url(#paint3_linear_5621_20660)"/>
<path d="M0 29.5C0 28.1193 1.11929 27 2.5 27H46V39H2.5C1.11929 39 0 37.8807 0 36.5V29.5Z" fill="url(#paint4_linear_5621_20660)"/>
<path d="M0 71.5C0 70.1193 1.11929 69 2.5 69H46V80H2.5C1.11929 80 0 78.8807 0 77.5V71.5Z" fill="url(#paint5_linear_5621_20660)"/>
<path d="M11 50.5C11 49.1193 12.1193 48 13.5 48H46V60H13.5C12.1193 60 11 58.8807 11 57.5V50.5Z" fill="url(#paint6_linear_5621_20660)"/>
<path d="M11 91.5C11 90.1193 12.1193 89 13.5 89H46V101H13.5C12.1193 101 11 99.8807 11 98.5V91.5Z" fill="url(#paint7_linear_5621_20660)"/>
<path d="M251.125 185.25C273.285 185.25 291.25 167.285 291.25 145.125C291.25 122.965 273.285 105 251.125 105C228.965 105 211 122.965 211 145.125C211 167.285 228.965 185.25 251.125 185.25Z" fill="url(#paint8_linear_5621_20660)"/>
<path d="M257.43 145.13L267.652 134.907C268.066 134.493 268.395 134.001 268.619 133.461C268.843 132.92 268.958 132.34 268.958 131.755C268.958 131.169 268.843 130.59 268.619 130.049C268.395 129.508 268.066 129.016 267.652 128.603C267.238 128.189 266.747 127.86 266.206 127.636C265.665 127.412 265.086 127.297 264.5 127.297C263.915 127.297 263.335 127.412 262.794 127.636C262.253 127.86 261.762 128.189 261.348 128.603L251.125 138.825L240.902 128.603C240.066 127.767 238.933 127.297 237.75 127.297C236.568 127.297 235.434 127.767 234.598 128.603C233.762 129.439 233.292 130.572 233.292 131.755C233.292 132.937 233.762 134.071 234.598 134.907L244.821 145.13L234.598 155.353C234.184 155.766 233.856 156.258 233.632 156.799C233.408 157.34 233.292 157.919 233.292 158.505C233.292 159.09 233.408 159.67 233.632 160.211C233.856 160.751 234.184 161.243 234.598 161.657C235.012 162.071 235.503 162.399 236.044 162.623C236.585 162.847 237.165 162.962 237.75 162.962C238.336 162.962 238.915 162.847 239.456 162.623C239.997 162.399 240.488 162.071 240.902 161.657L251.125 151.434L261.348 161.657C262.184 162.493 263.318 162.962 264.5 162.962C265.683 162.962 266.816 162.493 267.652 161.657C268.488 160.821 268.958 159.687 268.958 158.505C268.958 157.322 268.488 156.189 267.652 155.353L257.43 145.13Z" fill="url(#paint9_linear_5621_20660)"/>
<defs>
<linearGradient id="paint0_linear_5621_20660" x1="98.5731" y1="126.062" x2="98.5731" y2="175.079" gradientUnits="userSpaceOnUse">
<stop stop-color="#FFDD7C"/>
<stop offset="1" stop-color="#EAAE03"/>
</linearGradient>
<linearGradient id="paint1_linear_5621_20660" x1="210.716" y1="126.062" x2="210.716" y2="175.079" gradientUnits="userSpaceOnUse">
<stop stop-color="#FFDD7C"/>
<stop offset="1" stop-color="#EAAE03"/>
</linearGradient>
<linearGradient id="paint2_linear_5621_20660" x1="222.809" y1="35.0469" x2="222.809" y2="150.587" gradientUnits="userSpaceOnUse">
<stop stop-color="#FFDD7C"/>
<stop offset="1" stop-color="#EAAE03"/>
</linearGradient>
<linearGradient id="paint3_linear_5621_20660" x1="110.83" y1="0" x2="110.83" y2="150.552" gradientUnits="userSpaceOnUse">
<stop stop-color="#FFDD7C"/>
<stop offset="1" stop-color="#EAAE03"/>
</linearGradient>
<linearGradient id="paint4_linear_5621_20660" x1="23" y1="27" x2="23" y2="39" gradientUnits="userSpaceOnUse">
<stop stop-color="#FFDD7C"/>
<stop offset="1" stop-color="#EAAE03"/>
</linearGradient>
<linearGradient id="paint5_linear_5621_20660" x1="23" y1="69" x2="23" y2="80" gradientUnits="userSpaceOnUse">
<stop stop-color="#FFDD7C"/>
<stop offset="1" stop-color="#EAAE03"/>
</linearGradient>
<linearGradient id="paint6_linear_5621_20660" x1="28.5" y1="48" x2="28.5" y2="60" gradientUnits="userSpaceOnUse">
<stop stop-color="#FFDD7C"/>
<stop offset="1" stop-color="#EAAE03"/>
</linearGradient>
<linearGradient id="paint7_linear_5621_20660" x1="28.5" y1="89" x2="28.5" y2="101" gradientUnits="userSpaceOnUse">
<stop stop-color="#FFDD7C"/>
<stop offset="1" stop-color="#EAAE03"/>
</linearGradient>
<linearGradient id="paint8_linear_5621_20660" x1="224.733" y1="118.733" x2="276.021" y2="170.02" gradientUnits="userSpaceOnUse">
<stop stop-color="#E85155"/>
<stop offset="1" stop-color="#C21D2C"/>
</linearGradient>
<linearGradient id="paint9_linear_5621_20660" x1="236.018" y1="130.023" x2="266.156" y2="160.16" gradientUnits="userSpaceOnUse">
<stop stop-color="white"/>
<stop offset="1" stop-color="#F2EDED"/>
</linearGradient>
</defs>
</svg>
