<svg width="214" height="176" viewBox="0 0 214 176" fill="none" xmlns="http://www.w3.org/2000/svg">
<path d="M51.7872 175.089C47.0073 175.089 42.3347 173.652 38.3603 170.959C34.3859 168.265 31.2883 164.438 29.4591 159.959C27.6299 155.481 27.1513 150.553 28.0838 145.798C29.0163 141.044 31.3181 136.677 34.698 133.249C38.0779 129.821 42.3842 127.487 47.0723 126.541C51.7604 125.596 56.6197 126.081 61.0358 127.936C65.4519 129.791 69.2264 132.932 71.882 136.963C74.5376 140.994 75.955 145.732 75.955 150.58C75.9468 157.078 73.3979 163.307 68.8673 167.901C64.3368 172.496 58.1944 175.081 51.7872 175.089ZM51.7872 140.076C49.7386 140.076 47.7361 140.692 46.0328 141.846C44.3295 143 43.0019 144.641 42.218 146.56C41.434 148.479 41.2289 150.591 41.6286 152.629C42.0282 154.667 43.0147 156.538 44.4632 158.007C45.9118 159.476 47.7573 160.477 49.7665 160.882C51.7757 161.287 53.8583 161.079 55.7509 160.284C57.6435 159.489 59.2611 158.143 60.3992 156.416C61.5374 154.688 62.1448 152.657 62.1448 150.58C62.1448 147.794 61.0536 145.122 59.1111 143.152C57.1687 141.182 54.5342 140.076 51.7872 140.076Z" fill="url(#paint0_linear_5621_19909)"/>
<path d="M162.372 175.089C157.592 175.089 152.92 173.652 148.945 170.959C144.971 168.265 141.873 164.438 140.044 159.959C138.215 155.481 137.736 150.553 138.669 145.798C139.601 141.044 141.903 136.677 145.283 133.249C148.663 129.821 152.969 127.487 157.657 126.541C162.346 125.596 167.205 126.081 171.621 127.936C176.037 129.791 179.812 132.932 182.467 136.963C185.123 140.994 186.54 145.732 186.54 150.58C186.532 157.078 183.983 163.307 179.453 167.901C174.922 172.496 168.78 175.081 162.372 175.089ZM162.372 140.076C160.324 140.076 158.321 140.692 156.618 141.846C154.915 143 153.587 144.641 152.803 146.56C152.019 148.479 151.814 150.591 152.214 152.629C152.613 154.667 153.6 156.538 155.048 158.007C156.497 159.476 158.343 160.477 160.352 160.882C162.361 161.287 164.443 161.079 166.336 160.284C168.229 159.489 169.846 158.143 170.984 156.416C172.123 154.688 172.73 152.657 172.73 150.58C172.73 147.794 171.639 145.122 169.696 143.152C167.754 141.182 165.119 140.076 162.372 140.076Z" fill="url(#paint1_linear_5621_19909)"/>
<path d="M213.655 86.0255L189.487 37.0066C189.199 36.4219 188.755 35.9307 188.206 35.5885C187.657 35.2463 187.024 35.0668 186.379 35.0704H138.044C137.128 35.0704 136.25 35.4393 135.603 36.0959C134.955 36.7525 134.591 37.6431 134.591 38.5717V136.221C137.781 129.943 142.958 124.935 149.292 121.998C155.625 119.062 162.747 118.368 169.515 120.028C176.284 121.688 182.306 125.605 186.617 131.152C190.927 136.699 193.275 143.553 193.285 150.615H210.547C211.463 150.615 212.341 150.246 212.989 149.589C213.636 148.933 214 148.042 214 147.114V87.5906C214.006 87.0488 213.887 86.5131 213.655 86.0255ZM144.949 84.0893V45.5744H182.112L201.101 84.0893H144.949Z" fill="url(#paint2_linear_5621_19909)"/>
<path d="M120.839 0H6.90508C5.07374 0 3.31741 0.737782 2.02245 2.05104C0.727498 3.3643 0 5.14547 0 7.0027V143.555C0 145.413 0.727498 147.194 2.02245 148.507C3.31741 149.82 5.07374 150.558 6.90508 150.558H20.7153C20.7153 142.2 23.989 134.185 29.8163 128.276C35.6436 122.366 43.5471 119.046 51.7881 119.046C60.0292 119.046 67.9327 122.366 73.76 128.276C79.5873 134.185 82.861 142.2 82.861 150.558H124.292C125.207 150.558 126.085 150.189 126.733 149.533C127.38 148.876 127.744 147.985 127.744 147.057V7.0027C127.744 5.14547 127.017 3.3643 125.722 2.05104C124.427 0.737782 122.67 0 120.839 0Z" fill="url(#paint3_linear_5621_19909)"/>
<defs>
<linearGradient id="paint0_linear_5621_19909" x1="51.7872" y1="126.07" x2="51.7872" y2="175.089" gradientUnits="userSpaceOnUse">
<stop stop-color="#FFDD7C"/>
<stop offset="1" stop-color="#EAAE03"/>
</linearGradient>
<linearGradient id="paint1_linear_5621_19909" x1="162.372" y1="126.07" x2="162.372" y2="175.089" gradientUnits="userSpaceOnUse">
<stop stop-color="#FFDD7C"/>
<stop offset="1" stop-color="#EAAE03"/>
</linearGradient>
<linearGradient id="paint2_linear_5621_19909" x1="174.296" y1="35.0703" x2="174.296" y2="150.615" gradientUnits="userSpaceOnUse">
<stop stop-color="#FFDD7C"/>
<stop offset="1" stop-color="#EAAE03"/>
</linearGradient>
<linearGradient id="paint3_linear_5621_19909" x1="63.872" y1="0" x2="63.872" y2="150.558" gradientUnits="userSpaceOnUse">
<stop stop-color="#FFDD7C"/>
<stop offset="1" stop-color="#EAAE03"/>
</linearGradient>
</defs>
</svg>
