<svg width="38" height="25" viewBox="0 0 38 25" fill="none" xmlns="http://www.w3.org/2000/svg">
<path d="M14.3607 24.9988C13.6686 24.9988 12.992 24.7936 12.4166 24.409C11.8411 24.0245 11.3926 23.478 11.1277 22.8386C10.8628 22.1991 10.7935 21.4955 10.9286 20.8167C11.0636 20.1379 11.3969 19.5144 11.8863 19.025C12.3757 18.5356 12.9992 18.2023 13.678 18.0672C14.3568 17.9322 15.0605 18.0015 15.6999 18.2664C16.3393 18.5312 16.8859 18.9798 17.2704 19.5552C17.6549 20.1307 17.8601 20.8073 17.8601 21.4994C17.8589 22.4271 17.4899 23.3165 16.8339 23.9725C16.1779 24.6285 15.2885 24.9976 14.3607 24.9988V24.9988ZM14.3607 19.9997C14.0641 19.9997 13.7741 20.0876 13.5275 20.2524C13.2809 20.4172 13.0887 20.6514 12.9751 20.9255C12.8616 21.1995 12.8319 21.5011 12.8898 21.792C12.9477 22.0829 13.0905 22.3501 13.3003 22.5599C13.51 22.7696 13.7772 22.9125 14.0681 22.9703C14.3591 23.0282 14.6606 22.9985 14.9347 22.885C15.2087 22.7715 15.4429 22.5792 15.6077 22.3326C15.7725 22.086 15.8605 21.796 15.8605 21.4994C15.8605 21.1016 15.7025 20.7202 15.4212 20.4389C15.14 20.1577 14.7585 19.9997 14.3607 19.9997V19.9997Z" fill="white"/>
<path d="M30.3734 24.9988C29.6813 24.9988 29.0047 24.7936 28.4293 24.409C27.8538 24.0245 27.4053 23.478 27.1404 22.8386C26.8755 22.1991 26.8062 21.4955 26.9413 20.8167C27.0763 20.1379 27.4096 19.5144 27.899 19.025C28.3884 18.5356 29.0119 18.2023 29.6907 18.0672C30.3695 17.9322 31.0732 18.0015 31.7126 18.2664C32.352 18.5312 32.8986 18.9798 33.2831 19.5552C33.6676 20.1307 33.8728 20.8073 33.8728 21.4994C33.8716 22.4271 33.5026 23.3165 32.8466 23.9725C32.1906 24.6285 31.3012 24.9976 30.3734 24.9988V24.9988ZM30.3734 19.9997C30.0768 19.9997 29.7868 20.0876 29.5402 20.2524C29.2936 20.4172 29.1014 20.6514 28.9878 20.9255C28.8743 21.1995 28.8446 21.5011 28.9025 21.792C28.9604 22.0829 29.1032 22.3501 29.3129 22.5599C29.5227 22.7696 29.7899 22.9125 30.0808 22.9703C30.3718 23.0282 30.6733 22.9985 30.9474 22.885C31.2214 22.7715 31.4556 22.5792 31.6204 22.3326C31.7852 22.086 31.8732 21.796 31.8732 21.4994C31.8732 21.1016 31.7152 20.7202 31.4339 20.4389C31.1526 20.1577 30.7712 19.9997 30.3734 19.9997V19.9997Z" fill="white"/>
<path d="M37.7986 12.2753L34.2992 5.27646C34.2575 5.19298 34.1933 5.12284 34.1137 5.07398C34.0342 5.02512 33.9426 4.9995 33.8493 5.00001H26.8505C26.7179 5.00001 26.5908 5.05268 26.497 5.14643C26.4033 5.24018 26.3506 5.36734 26.3506 5.49992V19.442C26.8125 18.5458 27.5621 17.8306 28.4791 17.4114C29.3961 16.9921 30.4274 16.8931 31.4074 17.1301C32.3875 17.3671 33.2595 17.9264 33.8837 18.7183C34.5078 19.5103 34.8478 20.4889 34.8491 21.4972H37.3487C37.4813 21.4972 37.6084 21.4445 37.7022 21.3508C37.796 21.257 37.8486 21.1299 37.8486 20.9973V12.4987C37.8495 12.4214 37.8324 12.3449 37.7986 12.2753V12.2753ZM27.8503 11.9988V6.49975H33.2314L35.9809 11.9988H27.8503Z" fill="white"/>
<path d="M24.3593 0H7.86213C7.59696 0 7.34265 0.105339 7.15515 0.292843C6.96764 0.480347 6.8623 0.734658 6.8623 0.999829V20.4965C6.8623 20.7617 6.96764 21.016 7.15515 21.2035C7.34265 21.391 7.59696 21.4963 7.86213 21.4963H9.86179C9.86179 20.3031 10.3358 19.1587 11.1796 18.3149C12.0234 17.4711 13.1678 16.9971 14.361 16.9971C15.5543 16.9971 16.6987 17.4711 17.5425 18.3149C18.3862 19.1587 18.8603 20.3031 18.8603 21.4963H24.8592C24.9918 21.4963 25.119 21.4437 25.2127 21.3499C25.3065 21.2562 25.3591 21.129 25.3591 20.9964V0.999829C25.3591 0.734658 25.2538 0.480347 25.0663 0.292843C24.8788 0.105339 24.6245 0 24.3593 0Z" fill="white"/>
<rect y="3.92188" width="13.3333" height="1.66667" rx="0.833333" fill="white"/>
<rect y="9.79688" width="13.3333" height="1.66667" rx="0.833333" fill="white"/>
<rect x="1.96094" y="6.85938" width="11.6667" height="1.66667" rx="0.833333" fill="white"/>
<rect x="1.96094" y="12.7422" width="11.6667" height="1.66667" rx="0.833333" fill="white"/>
</svg>
