<svg width="25" height="25" viewBox="0 0 25 25" fill="none" xmlns="http://www.w3.org/2000/svg">
<path d="M24.2886 7.44661L13.1221 0.203947C12.703 -0.0679825 12.1631 -0.0679825 11.744 0.203947L0.577463 7.44661C-0.00936923 7.82727 -0.176529 8.61141 0.204055 9.19815C0.584808 9.78507 1.36911 9.95197 1.9556 9.57156L2.65581 9.11744V23.7299C2.65581 24.4293 3.22281 24.9963 3.92218 24.9963V25.0001H15.4826C15.8593 25.0001 16.1647 24.6947 16.1647 24.318V20.1887C16.1647 19.812 15.8593 19.5066 15.4826 19.5066H11.8515V14.8164C11.8515 14.4397 11.5461 14.1343 11.1694 14.1343H8.37884V9.44602C8.37884 9.06932 8.07348 8.76396 7.69678 8.76396H5.18854V7.47464L12.433 2.77584L19.6775 7.47464V23.7299C19.6775 24.4293 20.2445 24.9963 20.9438 24.9963C21.6432 24.9963 22.2102 24.4293 22.2102 23.7299V9.11736L22.9104 9.57148C23.1233 9.70959 23.3622 9.77553 23.5983 9.77553C24.013 9.77544 24.4193 9.57198 24.662 9.19807C25.0426 8.61132 24.8755 7.82719 24.2886 7.44661Z" fill="white"/>
</svg>
