<svg width="16" height="16" viewBox="0 0 16 16" fill="none" xmlns="http://www.w3.org/2000/svg">
<g clip-path="url(#clip0_2095_57237)">
<path d="M15.1022 5.61016C15.1022 5.46794 15.1115 5.32394 15.0929 5.18438C15.0133 4.59994 14.5978 4.34349 14.0595 4.57327C13.748 4.70616 13.4649 4.90393 13.1658 5.06705C12.8124 5.25949 12.5724 5.51816 12.6684 5.95327C12.7569 6.35371 13.0502 6.48482 13.428 6.49816C13.5018 6.50038 13.5738 6.55505 13.648 6.58571V11.8835L10.2493 13.6173C9.12932 13.0302 8.07776 12.4684 7.01643 11.9248C5.22709 11.0093 5.83643 11.0186 4.10265 11.9204C3.5542 12.2057 3.01243 12.5026 2.30309 12.8822C2.30309 11.251 2.31332 9.80571 2.2982 8.36038C2.29154 7.72527 2.24976 7.13727 3.00932 6.82038C3.39154 6.66127 3.44532 6.17905 3.23909 5.86838C3.0142 5.5306 2.68354 5.47549 2.33909 5.62438C2.02798 5.7586 1.74665 5.95905 1.44354 6.11416C1.04309 6.31816 0.888426 6.63282 0.890649 7.08038C0.90176 9.32438 0.88576 11.5693 0.899982 13.8128C0.906204 14.7635 1.3542 15.0057 2.22487 14.5497C3.15554 14.0626 4.08754 13.5759 4.99554 13.0488C5.38576 12.8222 5.69065 12.8146 6.08976 13.0368C7.25554 13.6853 8.45465 14.2737 9.62443 14.9155C10.0715 15.1604 10.4471 15.1533 10.8964 14.9088C12.0444 14.286 13.2068 13.6901 14.3826 13.1217C14.9142 12.8644 15.1195 12.5088 15.112 11.9173C15.0858 9.8146 15.1022 7.71238 15.1022 5.61016ZM7.40709 9.71771C7.85065 10.1404 8.13954 10.1346 8.58843 9.70927C9.60443 8.74794 10.5138 7.6906 11.0782 6.39727C11.3346 5.80971 11.4595 5.16482 11.644 4.54571C11.5684 2.70349 10.3382 1.24616 8.53776 0.95238C6.8222 0.67238 5.14709 1.69105 4.60576 3.35594C4.30265 4.28838 4.40443 5.20749 4.76976 6.09994C5.35109 7.52038 6.31065 8.67371 7.40709 9.71771ZM8.09643 2.36394C9.31643 2.41638 10.268 3.49905 10.1075 4.72527C9.94443 5.9746 9.27509 6.99994 8.50087 7.95149C8.23331 8.28082 7.83909 8.2586 7.51687 7.99282C6.82531 7.4226 5.87909 5.4226 5.8742 4.5226C5.86798 3.26794 6.85331 2.3106 8.09643 2.36394Z" fill="#5E72E4"/>
</g>
<defs>
<clipPath id="clip0_2095_57237">
<rect width="16" height="16" fill="white"/>
</clipPath>
</defs>
</svg>
