<svg width="31" height="26" viewBox="0 0 31 26" fill="none" xmlns="http://www.w3.org/2000/svg">
<path d="M11.1577 16.7344C7.43385 16.7344 0 18.6033 0 22.3132V25.1027H22.3155V22.3132C22.3155 18.6033 14.8816 16.7344 11.1577 16.7344Z" fill="white"/>
<path d="M29.4294 5.35572C29.4434 5.2023 29.4573 5.04888 29.4573 4.88151C29.4573 4.71415 29.4434 4.56073 29.4155 4.40731L30.4476 3.59837C30.5452 3.52864 30.5591 3.38916 30.5033 3.29153L29.527 1.60393C29.4712 1.49235 29.3318 1.46445 29.2341 1.49235L28.0347 1.9805C27.7836 1.78524 27.5047 1.63182 27.2118 1.5063L27.0305 0.209208C27.0026 0.0836832 26.905 0 26.7794 0H24.8268C24.7013 0 24.6037 0.0836832 24.5897 0.209208L24.4084 1.5063C24.1155 1.63182 23.8366 1.79919 23.5855 1.9805L22.3721 1.49235C22.2606 1.45051 22.135 1.49235 22.0792 1.60393L21.1029 3.29153C21.0472 3.40311 21.0611 3.52864 21.1587 3.59837L22.1908 4.40731C22.1629 4.56073 22.149 4.72809 22.149 4.88151C22.149 5.03493 22.1629 5.2023 22.1908 5.35572L21.1587 6.16465C21.0611 6.23439 21.0472 6.37386 21.1029 6.47149L22.0792 8.1591C22.135 8.27068 22.2745 8.29857 22.3721 8.27068L23.5855 7.78253C23.8366 7.97779 24.1155 8.1312 24.4084 8.25673L24.5897 9.55382C24.6037 9.67934 24.7013 9.76302 24.8268 9.76302H26.7794C26.905 9.76302 27.0026 9.67934 27.0165 9.55382L27.1979 8.25673C27.4908 8.1312 27.7697 7.96384 28.0207 7.78253L29.2341 8.27068C29.3457 8.31252 29.4712 8.27068 29.527 8.1591L30.5033 6.47149C30.5591 6.35991 30.5452 6.23439 30.4476 6.16465L29.4294 5.35572ZM25.8031 6.62491C24.8408 6.62491 24.0597 5.84387 24.0597 4.88151C24.0597 3.91916 24.8408 3.13811 25.8031 3.13811C26.7655 3.13811 27.5465 3.91916 27.5465 4.88151C27.5465 5.84387 26.7655 6.62491 25.8031 6.62491Z" fill="white"/>
<path d="M26.3945 12.1088L25.6972 10.8953C25.6553 10.8117 25.5577 10.7838 25.4879 10.8117L24.6232 11.1603C24.4419 11.0209 24.2466 10.9093 24.0374 10.8256L23.9119 9.9051C23.884 9.82141 23.8003 9.76562 23.7167 9.76562H22.3219C22.2383 9.76562 22.1685 9.82141 22.1546 9.91904L22.029 10.8396C21.8198 10.9232 21.6246 11.0488 21.4433 11.1743L20.5785 10.8256C20.4949 10.7977 20.4112 10.8256 20.3693 10.9093L19.672 12.1227C19.6301 12.2064 19.6441 12.2901 19.7138 12.3459L20.453 12.9177C20.4391 13.0293 20.4251 13.1408 20.4251 13.2524C20.4251 13.364 20.4391 13.4895 20.453 13.5872L19.7138 14.159C19.6441 14.2148 19.6301 14.3124 19.672 14.3821L20.3693 15.5955C20.4112 15.6792 20.5088 15.7071 20.5785 15.6792L21.4433 15.3305C21.6246 15.47 21.8198 15.5816 22.029 15.6653L22.1546 16.5858C22.1685 16.6834 22.2383 16.7392 22.3219 16.7392H23.7167C23.8003 16.7392 23.884 16.6834 23.884 16.5858L24.0095 15.6653C24.2188 15.5816 24.414 15.4561 24.5953 15.3305L25.4601 15.6792C25.5437 15.7071 25.6274 15.6792 25.6693 15.5955L26.3666 14.3821C26.4085 14.2985 26.3945 14.2148 26.3248 14.159L25.5995 13.5872C25.6135 13.4756 25.6274 13.364 25.6274 13.2524C25.6274 13.1408 25.6135 13.0153 25.5995 12.9177L26.3387 12.3459C26.4085 12.2901 26.4224 12.1924 26.3945 12.1088ZM23.0193 14.41C22.3777 14.41 21.8617 13.88 21.8617 13.2524C21.8617 12.6108 22.3917 12.0948 23.0193 12.0948C23.6469 12.0948 24.1769 12.6248 24.1769 13.2524C24.1769 13.894 23.6609 14.41 23.0193 14.41Z" fill="white"/>
<path d="M5.22247 8.37203H17.1194C17.496 8.37203 17.8028 8.06519 17.8028 7.68862V7.66072C17.8028 7.28415 17.496 6.97731 17.1194 6.97731H16.7428C16.7428 4.91313 15.6131 3.14183 13.9534 2.16553V3.49051C13.9534 3.88104 13.6466 4.18787 13.256 4.18787C12.8655 4.18787 12.5587 3.88104 12.5587 3.49051V1.5937C12.1124 1.48212 11.6521 1.39844 11.164 1.39844C10.6758 1.39844 10.2156 1.48212 9.76925 1.5937V3.49051C9.76925 3.88104 9.46242 4.18787 9.0719 4.18787C8.68137 4.18787 8.37454 3.88104 8.37454 3.49051V2.16553C6.71482 3.14183 5.5851 4.91313 5.5851 6.97731H5.22247C4.8459 6.97731 4.53906 7.28415 4.53906 7.66072V7.70256C4.53906 8.06519 4.8459 8.37203 5.22247 8.37203Z" fill="white"/>
<path d="M11.1727 13.9498C13.7668 13.9498 15.9287 12.1645 16.5563 9.76562H5.78906C6.41669 12.1645 8.5785 13.9498 11.1727 13.9498Z" fill="white"/>
</svg>
