<svg width="206" height="170" viewBox="0 0 206 170" fill="none" xmlns="http://www.w3.org/2000/svg">
<path d="M75.0717 113.465C50.0165 113.465 0 126.039 0 151.001V169.769H150.143V151.001C150.143 126.039 100.127 113.465 75.0717 113.465Z" fill="url(#paint0_linear_6164_12753)"/>
<path d="M198.023 36.9016C198.117 35.8694 198.211 34.8371 198.211 33.7111C198.211 32.585 198.117 31.5527 197.929 30.5205L204.873 25.0778C205.53 24.6086 205.624 23.6702 205.249 23.0133L198.68 11.6587C198.305 10.908 197.366 10.7204 196.709 10.908L188.639 14.1924C186.95 12.8787 185.073 11.8464 183.103 11.0019L181.883 2.27478C181.695 1.43023 181.038 0.867188 180.194 0.867188H167.056C166.211 0.867188 165.555 1.43023 165.461 2.27478L164.241 11.0019C162.27 11.8464 160.393 12.9725 158.704 14.1924L150.54 10.908C149.789 10.6265 148.945 10.908 148.57 11.6587L142.001 23.0133C141.625 23.7641 141.719 24.6086 142.376 25.0778L149.32 30.5205C149.133 31.5527 149.039 32.6788 149.039 33.7111C149.039 34.7433 149.133 35.8694 149.32 36.9016L142.376 42.3443C141.719 42.8135 141.625 43.7519 142.001 44.4088L148.57 55.7634C148.945 56.5141 149.883 56.7018 150.54 56.5141L158.704 53.2297C160.393 54.5435 162.27 55.5757 164.241 56.4203L165.461 65.1473C165.555 65.9919 166.211 66.5549 167.056 66.5549H180.194C181.038 66.5549 181.695 65.9919 181.789 65.1473L183.009 56.4203C184.979 55.5757 186.856 54.4496 188.545 53.2297L196.709 56.5141C197.46 56.7956 198.305 56.5141 198.68 55.7634L205.249 44.4088C205.624 43.6581 205.53 42.8135 204.873 42.3443L198.023 36.9016ZM173.625 45.441C167.15 45.441 161.895 40.186 161.895 33.7111C161.895 27.2361 167.15 21.9811 173.625 21.9811C180.1 21.9811 185.355 27.2361 185.355 33.7111C185.355 40.186 180.1 45.441 173.625 45.441Z" fill="url(#paint1_linear_6164_12753)"/>
<path d="M177.6 82.3237L172.908 74.1596C172.626 73.5966 171.97 73.4089 171.5 73.5966L165.682 75.9426C164.462 75.0042 163.149 74.2534 161.741 73.6904L160.897 67.497C160.709 66.934 160.146 66.5586 159.583 66.5586H150.199C149.636 66.5586 149.167 66.9339 149.073 67.5908L148.228 73.7843C146.821 74.3473 145.507 75.1918 144.287 76.0364L138.469 73.6904C137.906 73.5027 137.343 73.6904 137.061 74.2534L132.369 82.4175C132.088 82.9805 132.182 83.5436 132.651 83.9189L137.624 87.7664C137.53 88.5171 137.437 89.2678 137.437 90.0185C137.437 90.7692 137.53 91.6138 137.624 92.2707L132.651 96.1181C132.182 96.4934 132.088 97.1503 132.369 97.6195L137.061 105.784C137.343 106.347 138 106.534 138.469 106.347L144.287 104.001C145.507 104.939 146.821 105.69 148.228 106.253L149.073 112.446C149.167 113.103 149.636 113.478 150.199 113.478H159.583C160.146 113.478 160.709 113.103 160.709 112.446L161.553 106.253C162.961 105.69 164.275 104.845 165.495 104.001L171.313 106.347C171.876 106.534 172.439 106.347 172.72 105.784L177.412 97.6195C177.694 97.0565 177.6 96.4934 177.131 96.1181L172.251 92.2707C172.345 91.5199 172.439 90.7692 172.439 90.0185C172.439 89.2678 172.345 88.4232 172.251 87.7664L177.225 83.9189C177.694 83.5436 177.788 82.8867 177.6 82.3237ZM154.891 97.8072C150.574 97.8072 147.102 94.2413 147.102 90.0185C147.102 85.7019 150.668 82.2298 154.891 82.2298C159.114 82.2298 162.679 85.7957 162.679 90.0185C162.679 94.3351 159.207 97.8072 154.891 97.8072Z" fill="url(#paint2_linear_6164_12753)"/>
<path d="M35.1138 57.1698H115.159C117.693 57.1698 119.757 55.1054 119.757 52.5717V52.384C119.757 49.8503 117.693 47.7859 115.159 47.7859H112.625C112.625 33.8976 105.024 21.98 93.8574 15.4112V24.3259C93.8574 26.9535 91.7929 29.0179 89.1654 29.0179C86.5379 29.0179 84.4734 26.9535 84.4734 24.3259V11.5638C81.4706 10.813 78.3738 10.25 75.0895 10.25C71.8051 10.25 68.7084 10.813 65.7055 11.5638V24.3259C65.7055 26.9535 63.641 29.0179 61.0135 29.0179C58.386 29.0179 56.3215 26.9535 56.3215 24.3259V15.4112C45.1546 21.98 37.5536 33.8976 37.5536 47.7859H35.1138C32.5801 47.7859 30.5156 49.8503 30.5156 52.384V52.6655C30.5156 55.1054 32.5801 57.1698 35.1138 57.1698Z" fill="url(#paint3_linear_6164_12753)"/>
<path d="M75.144 94.7105C92.5982 94.7105 107.143 82.699 111.366 66.5586H38.9219C43.1447 82.699 57.6898 94.7105 75.144 94.7105Z" fill="url(#paint4_linear_6164_12753)"/>
<defs>
<linearGradient id="paint0_linear_6164_12753" x1="-56.4722" y1="116.121" x2="79.8399" y2="263.733" gradientUnits="userSpaceOnUse">
<stop stop-color="#FFDD7C"/>
<stop offset="1" stop-color="#EAAE03"/>
</linearGradient>
<linearGradient id="paint1_linear_6164_12753" x1="117.827" y1="3.96623" x2="226.591" y2="46.7886" gradientUnits="userSpaceOnUse">
<stop stop-color="#FFDD7C"/>
<stop offset="1" stop-color="#EAAE03"/>
</linearGradient>
<linearGradient id="paint2_linear_6164_12753" x1="115.105" y1="68.7722" x2="192.78" y2="99.3467" gradientUnits="userSpaceOnUse">
<stop stop-color="#FFDD7C"/>
<stop offset="1" stop-color="#EAAE03"/>
</linearGradient>
<linearGradient id="paint3_linear_6164_12753" x1="-3.05001" y1="12.4636" x2="107.206" y2="97.6226" gradientUnits="userSpaceOnUse">
<stop stop-color="#FFDD7C"/>
<stop offset="1" stop-color="#EAAE03"/>
</linearGradient>
<linearGradient id="paint4_linear_6164_12753" x1="11.6741" y1="67.8868" x2="79.9802" y2="139.266" gradientUnits="userSpaceOnUse">
<stop stop-color="#FFDD7C"/>
<stop offset="1" stop-color="#EAAE03"/>
</linearGradient>
</defs>
</svg>
