<svg width="214" height="214" viewBox="0 0 214 214" fill="none" xmlns="http://www.w3.org/2000/svg">
<path d="M190.526 57.4102L168.145 25.441C166.501 23.0925 164.314 21.1749 161.771 19.8508C159.228 18.5266 156.403 17.8348 153.536 17.834H60.4638C57.5966 17.8349 54.772 18.5268 52.2289 19.851C49.6859 21.1751 47.4993 23.0926 45.8545 25.441L23.4735 57.4102C19.7932 62.6518 17.8232 68.903 17.8335 75.3076V173.876C17.8402 179.786 20.191 185.452 24.37 189.631C28.549 193.81 34.215 196.16 40.125 196.167H173.875C179.785 196.16 185.451 193.81 189.63 189.631C193.809 185.452 196.16 179.786 196.167 173.876V75.3076C196.177 68.903 194.207 62.6518 190.526 57.4102Z" fill="url(#paint0_linear_849_4648)"/>
<path d="M187.389 66.875H26.8892C25.7182 66.8749 24.5587 67.1055 23.4769 67.5536C22.3951 68.0017 21.4121 68.6585 20.5841 69.4865C19.7561 70.3145 19.0994 71.2974 18.6513 72.3793C18.2032 73.4611 17.9726 74.6206 17.9727 75.7915V173.875C17.9794 179.785 20.3301 185.451 24.5091 189.63C28.6882 193.809 34.3542 196.16 40.2642 196.167H174.014C179.924 196.16 185.59 193.809 189.769 189.63C193.948 185.451 196.299 179.785 196.306 173.875V75.7915C196.306 74.6206 196.075 73.4611 195.627 72.3793C195.179 71.2974 194.522 70.3145 193.694 69.4865C192.866 68.6585 191.883 68.0017 190.801 67.5536C189.72 67.1055 188.56 66.8749 187.389 66.875Z" fill="url(#paint1_linear_849_4648)"/>
<path d="M122.604 17.834L133.75 66.8755V93.6255C133.75 95.9903 132.811 98.2583 131.138 99.9305C129.466 101.603 127.198 102.542 124.833 102.542H89.1665C86.8017 102.542 84.5338 101.603 82.8616 99.9305C81.1894 98.2583 80.25 95.9903 80.25 93.6255V66.8755L91.396 17.834H122.604Z" fill="url(#paint2_linear_849_4648)"/>
<path d="M91.396 17.834L80.25 66.8755H133.75L122.604 17.834H91.396Z" fill="url(#paint3_linear_849_4648)"/>
<path d="M107.035 86.5195C98.1002 86.5195 89.366 89.1691 81.937 94.1327C74.5077 99.0968 68.7173 106.152 65.2983 114.407C61.8788 122.661 60.9843 131.745 62.7275 140.508C64.4703 149.271 68.7728 157.321 75.0909 163.639C81.4085 169.956 89.4583 174.259 98.2213 176.002C106.984 177.745 116.068 176.851 124.323 173.432C132.577 170.012 139.633 164.222 144.597 156.793C149.561 149.364 152.21 140.63 152.21 131.695C152.197 119.718 147.433 108.235 138.964 99.7659C130.495 91.2968 119.012 86.5331 107.035 86.5195ZM107.035 167.835C99.8874 167.835 92.9002 165.715 86.957 161.744C81.0138 157.773 76.3813 152.129 73.6462 145.525C70.9107 138.921 70.195 131.655 71.5896 124.644C72.9839 117.634 76.4258 111.195 81.4805 106.14C86.5348 101.086 92.9739 97.6437 99.9844 96.2494C106.995 94.8548 114.262 95.5705 120.866 98.306C127.469 101.041 133.113 105.674 137.085 111.617C141.056 117.56 143.175 124.547 143.175 131.695C143.164 141.277 139.353 150.462 132.578 157.238C125.803 164.013 116.617 167.824 107.035 167.835Z" fill="#D0743F"/>
<path d="M123.782 114.948C123.362 114.529 122.864 114.196 122.316 113.969C121.768 113.742 121.181 113.625 120.587 113.625C119.994 113.625 119.407 113.742 118.859 113.969C118.311 114.196 117.813 114.529 117.394 114.948L107.035 125.307L96.6768 114.948C95.8263 114.118 94.6824 113.655 93.4936 113.662C92.3043 113.669 91.1664 114.144 90.3252 114.985C89.4846 115.826 89.0094 116.964 89.0026 118.153C88.9954 119.342 89.4579 120.486 90.2888 121.336L100.647 131.695L90.2884 142.054C89.8611 142.471 89.5206 142.97 89.2872 143.52C89.0538 144.07 88.9319 144.661 88.9285 145.258C88.9251 145.856 89.0403 146.449 89.2673 147.001C89.4943 147.554 89.8289 148.056 90.2515 148.478C90.6738 148.901 91.1761 149.236 91.7288 149.463C92.2815 149.69 92.874 149.805 93.4716 149.802C94.0691 149.798 94.66 149.676 95.2101 149.443C95.7603 149.209 96.2587 148.869 96.6763 148.442L107.035 138.083L117.393 148.442C117.811 148.869 118.309 149.209 118.859 149.443C119.41 149.676 120 149.798 120.598 149.802C121.195 149.805 121.788 149.69 122.341 149.463C122.893 149.236 123.396 148.901 123.818 148.478C124.241 148.056 124.575 147.554 124.802 147.001C125.029 146.449 125.144 145.856 125.141 145.258C125.138 144.661 125.016 144.07 124.782 143.52C124.549 142.97 124.208 142.471 123.781 142.054L113.423 131.695L123.782 121.337C124.201 120.918 124.534 120.42 124.761 119.871C124.988 119.323 125.105 118.736 125.105 118.143C125.105 117.549 124.988 116.962 124.761 116.414C124.534 115.866 124.201 115.368 123.782 114.948Z" fill="#D0743F"/>
<defs>
<linearGradient id="paint0_linear_849_4648" x1="107" y1="61.3224" x2="107" y2="-28.8113" gradientUnits="userSpaceOnUse">
<stop stop-color="#E9D2AE"/>
<stop offset="1" stop-color="#FF7302"/>
</linearGradient>
<linearGradient id="paint1_linear_849_4648" x1="123.5" y1="67" x2="107.139" y2="213.181" gradientUnits="userSpaceOnUse">
<stop stop-color="#FFEE9D"/>
<stop offset="1" stop-color="#FFB752"/>
</linearGradient>
<linearGradient id="paint2_linear_849_4648" x1="107" y1="-32.1831" x2="107" y2="102.512" gradientUnits="userSpaceOnUse">
<stop offset="0.431" stop-color="#FFFAE0"/>
<stop offset="1" stop-color="#F59815"/>
</linearGradient>
<linearGradient id="paint3_linear_849_4648" x1="107" y1="134.676" x2="107" y2="20.1412" gradientUnits="userSpaceOnUse">
<stop stop-color="#FFDBA2"/>
<stop offset="1" stop-color="#FFB478"/>
</linearGradient>
</defs>
</svg>
