<svg width="205" height="197" viewBox="0 0 205 197" fill="none" xmlns="http://www.w3.org/2000/svg">
<path d="M64.0395 196.976H185.862H205V184.482H192.118V94.813C192.118 92.2406 190.646 90.4031 188.438 89.3006C186.23 88.1981 183.653 88.5656 181.813 90.0356L131.391 131.93L131.023 94.813C131.023 92.6081 129.551 90.4031 127.711 89.3006C125.503 88.1981 123.294 88.5656 121.086 90.0356L70.2962 127.887V60.6361C70.2962 57.3286 67.3519 54.3887 64.0395 54.3887H33.4919C30.1795 54.3887 27.6032 56.5936 27.2352 59.9011L12.5135 184.482H0V196.976H18.0341H64.0395Z" fill="url(#paint0_linear_8856_60100)"/>
<path d="M44.5411 50.3412C45.2771 50.7087 46.0132 50.7087 46.7493 50.7087C49.6937 50.7087 52.27 48.8713 53.3741 45.9313C58.5267 30.4966 73.9845 28.2916 85.3938 30.864C105.268 35.6415 122.934 37.4789 136.92 10.6519C138.76 7.34443 137.288 2.9345 133.976 1.46452C130.663 -0.372949 126.247 1.09702 124.774 4.40447C115.941 21.3092 108.949 22.4117 88.7062 17.6343C70.3041 13.2243 48.2215 19.1042 40.4926 41.5214C39.0204 45.1963 40.8606 49.2388 44.5411 50.3412Z" fill="url(#paint1_linear_8856_60100)"/>
<defs>
<linearGradient id="paint0_linear_8856_60100" x1="7.5" y1="68.8936" x2="63.4171" y2="212.224" gradientUnits="userSpaceOnUse">
<stop offset="0.18609" stop-color="#FFCC3C"/>
<stop offset="1" stop-color="#F2B507"/>
</linearGradient>
<linearGradient id="paint1_linear_8856_60100" x1="43.5601" y1="5.75494" x2="58.938" y2="59.3001" gradientUnits="userSpaceOnUse">
<stop offset="0.18609" stop-color="#FFCC3C"/>
<stop offset="1" stop-color="#F2B507"/>
</linearGradient>
</defs>
</svg>
