<svg width="214" height="214" viewBox="0 0 214 214" fill="none" xmlns="http://www.w3.org/2000/svg">
<path d="M184.603 49.4257L104.353 13.7587C103.783 13.5057 103.166 13.375 102.542 13.375C101.918 13.375 101.301 13.5057 100.73 13.7587L20.4805 49.4257C19.6926 49.7761 19.0232 50.3474 18.5534 51.0705C18.0836 51.7935 17.8335 52.6373 17.8335 53.4996V151.583C17.8335 152.445 18.0836 153.289 18.5534 154.012C19.0232 154.735 19.6926 155.307 20.4805 155.657L100.73 191.324C101.301 191.577 101.918 191.708 102.542 191.708C103.166 191.708 103.783 191.577 104.353 191.324L184.603 155.657C185.391 155.307 186.06 154.735 186.53 154.012C187 153.289 187.25 152.445 187.25 151.583V53.4996C187.25 52.6373 187 51.7935 186.53 51.0705C186.06 50.3474 185.391 49.7761 184.603 49.4257Z" fill="url(#paint0_linear_3867_13619)"/>
<path d="M104.353 191.324L184.603 155.657C185.391 155.307 186.06 154.736 186.53 154.013C187 153.29 187.25 152.446 187.25 151.583V53.5C187.25 52.6377 187 51.7939 186.53 51.0709C186.06 50.3478 185.391 49.7765 184.603 49.4261L104.353 13.7591C103.783 13.506 103.166 13.3751 102.542 13.375V191.708C103.166 191.708 103.783 191.577 104.353 191.324Z" fill="url(#paint1_linear_3867_13619)"/>
<path d="M102.542 89.1661L186.825 51.7069C186.394 50.6967 185.602 49.8834 184.603 49.4257L104.353 13.7587C103.783 13.5057 103.166 13.375 102.542 13.375C101.918 13.375 101.301 13.5057 100.73 13.7587L20.4805 49.4257C19.4819 49.8834 18.6898 50.6967 18.2585 51.7069L102.542 89.1661Z" fill="url(#paint2_linear_3867_13619)"/>
<path d="M65.3983 72.657L151.137 34.5508L140.16 29.6719L54.4203 67.7781L65.3983 72.657Z" fill="url(#paint3_linear_3867_13619)"/>
<path d="M156.043 191.711C178.203 191.711 196.168 173.746 196.168 151.586C196.168 129.426 178.203 111.461 156.043 111.461C133.882 111.461 115.918 129.426 115.918 151.586C115.918 173.746 133.882 191.711 156.043 191.711Z" fill="url(#paint4_linear_3867_13619)"/>
<path d="M162.348 151.583L172.57 141.36C172.984 140.946 173.313 140.455 173.537 139.914C173.761 139.373 173.876 138.793 173.876 138.208C173.876 137.622 173.761 137.043 173.537 136.502C173.313 135.961 172.984 135.47 172.57 135.056C172.156 134.642 171.665 134.313 171.124 134.089C170.583 133.865 170.004 133.75 169.418 133.75C168.833 133.75 168.253 133.865 167.712 134.089C167.172 134.313 166.68 134.642 166.266 135.056L156.043 145.278L145.82 135.056C144.984 134.22 143.851 133.75 142.668 133.75C141.486 133.75 140.352 134.22 139.516 135.056C138.68 135.892 138.211 137.025 138.211 138.208C138.211 139.39 138.68 140.524 139.516 141.36L149.739 151.583L139.516 161.806C139.102 162.22 138.774 162.711 138.55 163.252C138.326 163.793 138.211 164.372 138.211 164.958C138.211 165.543 138.326 166.123 138.55 166.664C138.774 167.205 139.102 167.696 139.516 168.11C139.93 168.524 140.422 168.852 140.962 169.076C141.503 169.3 142.083 169.416 142.668 169.416C143.254 169.416 143.833 169.3 144.374 169.076C144.915 168.852 145.406 168.524 145.82 168.11L156.043 157.887L166.266 168.11C167.102 168.946 168.236 169.416 169.418 169.416C170.601 169.416 171.734 168.946 172.57 168.11C173.406 167.274 173.876 166.14 173.876 164.958C173.876 163.775 173.406 162.642 172.57 161.806L162.348 151.583Z" fill="url(#paint5_linear_3867_13619)"/>
<defs>
<linearGradient id="paint0_linear_3867_13619" x1="241.991" y1="176.963" x2="34.5594" y2="66.2606" gradientUnits="userSpaceOnUse">
<stop offset="0.19" stop-color="#CE943A"/>
<stop offset="1" stop-color="#C49671"/>
</linearGradient>
<linearGradient id="paint1_linear_3867_13619" x1="92.2724" y1="107.034" x2="271.76" y2="31.7999" gradientUnits="userSpaceOnUse">
<stop stop-color="#FD9B02"/>
<stop offset="1" stop-color="#FF7302"/>
</linearGradient>
<linearGradient id="paint2_linear_3867_13619" x1="102.542" y1="9.43357" x2="102.542" y2="156.189" gradientUnits="userSpaceOnUse">
<stop stop-color="#FED200"/>
<stop offset="1" stop-color="#F59815"/>
</linearGradient>
<linearGradient id="paint3_linear_3867_13619" x1="102.779" y1="8.08922" x2="102.779" y2="191.072" gradientUnits="userSpaceOnUse">
<stop stop-color="#FD9B02"/>
<stop offset="1" stop-color="#FF7302"/>
</linearGradient>
<linearGradient id="paint4_linear_3867_13619" x1="129.651" y1="125.194" x2="180.939" y2="176.481" gradientUnits="userSpaceOnUse">
<stop stop-color="#E85155"/>
<stop offset="1" stop-color="#C21D2C"/>
</linearGradient>
<linearGradient id="paint5_linear_3867_13619" x1="140.936" y1="136.476" x2="171.074" y2="166.613" gradientUnits="userSpaceOnUse">
<stop stop-color="white"/>
<stop offset="1" stop-color="#F2EDED"/>
</linearGradient>
</defs>
</svg>
