<svg width="26" height="25" viewBox="0 0 26 25" fill="none" xmlns="http://www.w3.org/2000/svg">
<path d="M13.0214 0.297465C12.7087 0.113822 12.3211 0.113823 12.0085 0.297467L0.493544 7.0608C0.187787 7.24038 0 7.56846 0 7.92306V24C0 24.5523 0.447715 25 1 25H3.22206H4.70905H20.3208H21.8078H24.0299C24.5822 25 25.0299 24.5523 25.0299 24V7.92307C25.0299 7.56847 24.8421 7.24038 24.5364 7.0608L13.0214 0.297465ZM20.3209 23.513H5.20456C4.9309 23.513 4.70905 23.2912 4.70905 23.0175C4.70905 22.7438 4.9309 22.522 5.20456 22.522H19.8253C20.099 22.522 20.3208 22.7438 20.3208 23.0175V23.513C20.3208 23.513 20.3208 23.513 20.3209 23.513ZM20.3209 21.035H5.20456C4.9309 21.035 4.70905 20.8131 4.70905 20.5394C4.70905 20.2658 4.9309 20.0439 5.20456 20.0439H19.8253C20.099 20.0439 20.3208 20.2658 20.3208 20.5394V21.0349C20.3208 21.0349 20.3208 21.035 20.3209 21.035ZM20.3209 18.5569H5.20456C4.9309 18.5569 4.70905 18.335 4.70905 18.0614C4.70905 17.7877 4.9309 17.5659 5.20456 17.5659H19.8253C20.099 17.5659 20.3208 17.7877 20.3208 18.0614V18.5568C20.3208 18.5569 20.3208 18.5569 20.3209 18.5569ZM20.3209 16.0789H5.20456C4.9309 16.0789 4.70905 15.857 4.70905 15.5834C4.70905 15.3097 4.9309 15.0879 5.20456 15.0879H19.8253C20.099 15.0879 20.3208 15.3097 20.3208 15.5834V16.0788C20.3208 16.0789 20.3208 16.0789 20.3209 16.0789ZM20.3209 13.6008H5.20459C4.93091 13.6008 4.70905 13.379 4.70905 13.1053C4.70905 12.8316 4.93091 12.6097 5.20459 12.6097H19.8253C20.099 12.6097 20.3208 12.8316 20.3208 13.1053V13.6008C20.3208 13.6008 20.3208 13.6008 20.3209 13.6008ZM20.3209 11.1228H5.20456C4.9309 11.1228 4.70905 10.9009 4.70905 10.6273C4.70905 10.3536 4.9309 10.1317 5.20456 10.1317H19.8253C20.099 10.1317 20.3208 10.3536 20.3208 10.6273V11.1227C20.3208 11.1227 20.3208 11.1228 20.3209 11.1228ZM21.8079 23.513V22.522V21.035V20.044V18.557V17.566V16.079V15.088V13.601V12.6099V11.1229V9.64481C21.8079 9.09252 21.3601 8.64481 20.8079 8.64481H4.22206C3.66978 8.64481 3.22206 9.09252 3.22206 9.64481V11.1228V12.6098V13.6009V15.0879V16.0789V17.5659V18.5569V20.0439V21.0349V22.5219V22.6454C3.22206 23.1245 2.83365 23.5129 2.35452 23.5129C1.87539 23.5129 1.48698 23.1245 1.48698 22.6454V8.77418C1.48698 8.41958 1.67477 8.0915 1.98053 7.91191L12.0085 2.02199C12.3211 1.83834 12.7087 1.83835 13.0214 2.02199L23.0493 7.91191C23.3551 8.0915 23.5428 8.41958 23.5428 8.77418V22.6455C23.5428 23.1246 23.1544 23.513 22.6753 23.513H21.8079C21.8079 23.513 21.8079 23.513 21.8079 23.513Z" fill="white"/>
</svg>
