<svg width="16" height="16" viewBox="0 0 16 16" fill="none" xmlns="http://www.w3.org/2000/svg">
<g clip-path="url(#clip0_4935_14902)">
<path d="M12.9134 10.0683C13.346 9.04053 13.4456 7.90301 13.1982 6.81569C12.9507 5.72836 12.3688 4.74593 11.5341 4.0065C10.6993 3.26707 9.65389 2.80784 8.54466 2.69337C7.43544 2.5789 6.31823 2.81495 5.3501 3.36833L4.68877 2.21033C5.70053 1.63208 6.84623 1.32924 8.01157 1.33205C9.17691 1.33486 10.3211 1.64321 11.3301 2.22633C14.3234 3.95433 15.4701 7.65433 14.0748 10.7397L14.9694 11.2557L12.1928 12.7317L12.0828 9.589L12.9134 10.0683ZM3.0801 5.931C2.64753 6.9588 2.54796 8.09632 2.79538 9.18364C3.0428 10.271 3.62478 11.2534 4.45949 11.9928C5.29419 12.7323 6.33965 13.1915 7.44888 13.306C8.55811 13.4204 9.67532 13.1844 10.6434 12.631L11.3048 13.789C10.293 14.3673 9.14731 14.6701 7.98197 14.6673C6.81663 14.6645 5.67239 14.3561 4.66344 13.773C1.6701 12.045 0.523437 8.345 1.91877 5.25966L1.02344 4.74433L3.8001 3.26833L3.9101 6.411L3.07944 5.93166L3.0801 5.931Z" fill="#5E72E4"/>
</g>
<g clip-path="url(#clip1_4935_14902)">
<path d="M7.48958 5.45573H7.61979V5.84635C7.61979 5.91826 7.67809 5.97656 7.75 5.97656C7.82191 5.97656 7.88021 5.91826 7.88021 5.84635V5.45573H8.14062V5.84635C8.14062 5.91826 8.19893 5.97656 8.27083 5.97656C8.34273 5.97656 8.40104 5.91826 8.40104 5.84635V5.45573H8.53125C8.60315 5.45573 8.66146 5.39742 8.66146 5.32552C8.66146 5.25362 8.60315 5.19531 8.53125 5.19531C8.22583 5.19531 7.81452 5.19531 7.48958 5.19531C7.41767 5.19531 7.35938 5.25362 7.35938 5.32552C7.35938 5.39742 7.41767 5.45573 7.48958 5.45573Z" fill="#5E72E4"/>
<path d="M8.84495 8.52151C8.84495 8.09438 8.18025 7.28593 8.10445 7.19517C8.05249 7.1329 7.95661 7.13282 7.90456 7.19517C7.82876 7.28595 7.16406 8.0944 7.16406 8.52151C7.16406 8.98751 7.54424 9.36195 8.00451 9.36195C8.46496 9.36195 8.84495 8.98729 8.84495 8.52151ZM7.8151 8.91213C7.8151 8.85459 7.90259 8.70537 8.00451 8.56506C8.10642 8.70537 8.19391 8.85461 8.19391 8.91213C8.19391 9.01657 8.10895 9.10153 8.00451 9.10153C7.90008 9.10153 7.8151 9.01657 7.8151 8.91213ZM8.45315 8.88867C8.43477 8.68004 8.18352 8.36406 8.10445 8.26937C8.05249 8.20712 7.95661 8.20703 7.90456 8.26937C7.82549 8.36406 7.57424 8.68004 7.55586 8.88867C7.47382 8.78859 7.42448 8.66071 7.42448 8.52151C7.42448 8.30047 7.74779 7.8141 8.00453 7.48593C8.26125 7.81395 8.58453 8.30022 8.58453 8.52151C8.58453 8.66071 8.5352 8.78859 8.45315 8.88867Z" fill="#5E72E4"/>
<path d="M9.4401 5.71745H9.17969V4.9362H9.375C9.4469 4.9362 9.50521 4.87789 9.50521 4.80599C9.50521 4.73409 9.4469 4.67578 9.375 4.67578C9.15415 4.67578 6.72676 4.67578 6.64062 4.67578C6.56871 4.67578 6.51042 4.73408 6.51042 4.80599C6.51042 4.8779 6.56871 4.9362 6.64062 4.9362H6.83594V5.71745H6.57552C6.28833 5.71745 6.05469 5.95109 6.05469 6.23828V10.2747C6.05469 10.5619 6.28833 10.7956 6.57552 10.7956H6.60408L6.62039 10.8608C6.68743 11.129 6.92737 11.3164 7.20389 11.3164H8.81172C9.08824 11.3164 9.32819 11.129 9.39523 10.8608L9.41155 10.7956H9.4401C9.72729 10.7956 9.96094 10.5619 9.96094 10.2747V6.23828C9.96094 5.95109 9.72729 5.71745 9.4401 5.71745ZM6.3151 6.62891H9.70052V9.88411H6.3151V6.62891ZM7.09635 4.9362H8.91927V5.71745H7.09635V4.9362ZM6.57552 5.97786C6.6923 5.97786 9.29594 5.97786 9.4401 5.97786C9.5837 5.97786 9.70052 6.09469 9.70052 6.23828V6.36849H6.3151V6.23828C6.3151 6.09469 6.43193 5.97786 6.57552 5.97786ZM9.1426 10.7976C9.10458 10.9498 8.96852 11.056 8.81172 11.056H7.20389C7.0471 11.056 6.91104 10.9498 6.87302 10.7976L6.87251 10.7956H9.14312L9.1426 10.7976ZM9.4401 10.5352C9.23839 10.5352 6.70207 10.5352 6.57552 10.5352C6.43193 10.5352 6.3151 10.4183 6.3151 10.2747V10.1445H9.70052V10.2747C9.70052 10.4183 9.5837 10.5352 9.4401 10.5352Z" fill="#5E72E4"/>
</g>
<defs>
<clipPath id="clip0_4935_14902">
<rect width="16" height="16" fill="white"/>
</clipPath>
<clipPath id="clip1_4935_14902">
<rect width="6.66667" height="6.66667" fill="white" transform="translate(4.67188 4.66406)"/>
</clipPath>
</defs>
</svg>
