<svg width="27" height="26" viewBox="0 0 27 26" fill="none" xmlns="http://www.w3.org/2000/svg">
<path d="M22.3797 16.4437C23.1939 14.5091 23.3813 12.3681 22.9156 10.3215C22.4499 8.27489 21.3545 6.42573 19.7834 5.03396C18.2123 3.64219 16.2445 2.77781 14.1567 2.56235C12.0688 2.3469 9.96599 2.79119 8.14377 3.83278L6.89899 1.65316C8.80334 0.564751 10.9598 -0.00524792 13.1533 3.64104e-05C15.3467 0.00532074 17.5004 0.585703 19.3995 1.68328C25.0336 4.93576 27.1919 11.9 24.5656 17.7073L26.2495 18.6785L21.0232 21.4567L20.8162 15.5415L22.3797 16.4437ZM3.87111 8.6563C3.05692 10.5909 2.8695 12.7319 3.3352 14.7785C3.80091 16.8251 4.89632 18.6743 6.46742 20.066C8.03853 21.4578 10.0063 22.3222 12.0941 22.5376C14.182 22.7531 16.2848 22.3088 18.107 21.2672L19.3518 23.4468C17.4475 24.5352 15.291 25.1052 13.0975 25.1C10.9041 25.0947 8.75039 24.5143 6.85131 23.4167C1.21717 20.1642 -0.941113 13.2 1.68522 7.3927L0 6.42272L5.22632 3.64456L5.43336 9.55977L3.86986 8.65755L3.87111 8.6563Z" fill="white"/>
<g clip-path="url(#clip0_5113_22078)">
<path d="M12.2939 7.49016H12.539V8.22541C12.539 8.36074 12.6487 8.47049 12.7841 8.47049C12.9194 8.47049 13.0292 8.36074 13.0292 8.22541V7.49016H13.5193V8.22541C13.5193 8.36074 13.6291 8.47049 13.7644 8.47049C13.8997 8.47049 14.0095 8.36074 14.0095 8.22541V7.49016H14.2546C14.3899 7.49016 14.4996 7.38042 14.4996 7.24508C14.4996 7.10975 14.3899 7 14.2546 7C13.6797 7 12.9055 7 12.2939 7C12.1586 7 12.0488 7.10975 12.0488 7.24508C12.0488 7.38042 12.1586 7.49016 12.2939 7.49016Z" fill="white"/>
<path d="M14.8542 13.2641C14.8542 12.4602 13.6031 10.9385 13.4605 10.7676C13.3626 10.6504 13.1822 10.6503 13.0842 10.7676C12.9415 10.9385 11.6904 12.4602 11.6904 13.2641C11.6904 14.1412 12.406 14.846 13.2723 14.846C14.139 14.846 14.8542 14.1408 14.8542 13.2641ZM12.9158 13.9994C12.9158 13.8911 13.0805 13.6102 13.2723 13.3461C13.4642 13.6102 13.6288 13.8911 13.6288 13.9994C13.6288 14.1959 13.4689 14.3559 13.2723 14.3559C13.0758 14.3559 12.9158 14.1959 12.9158 13.9994ZM14.1168 13.9552C14.0822 13.5625 13.6093 12.9678 13.4605 12.7895C13.3626 12.6724 13.1822 12.6722 13.0842 12.7895C12.9354 12.9678 12.4625 13.5625 12.4279 13.9552C12.2735 13.7668 12.1806 13.5261 12.1806 13.2641C12.1806 12.8481 12.7891 11.9326 13.2724 11.3149C13.7556 11.9323 14.3641 12.8476 14.3641 13.2641C14.3641 13.5261 14.2712 13.7668 14.1168 13.9552Z" fill="white"/>
<path d="M15.9698 7.98409H15.4796V6.5136H15.8472C15.9826 6.5136 16.0923 6.40385 16.0923 6.26852C16.0923 6.13319 15.9826 6.02344 15.8472 6.02344C15.4316 6.02344 10.8626 6.02344 10.7005 6.02344C10.5652 6.02344 10.4554 6.13316 10.4554 6.26852C10.4554 6.40388 10.5652 6.5136 10.7005 6.5136H11.0681V7.98409H10.578C10.0374 7.98409 9.59766 8.42387 9.59766 8.96442V16.5619C9.59766 17.1025 10.0374 17.5423 10.578 17.5423H10.6317L10.6624 17.665C10.7886 18.17 11.2402 18.5226 11.7607 18.5226H14.787C15.3075 18.5226 15.7591 18.17 15.8853 17.6651L15.916 17.5423H15.9698C16.5103 17.5423 16.9501 17.1025 16.9501 16.5619V8.96442C16.9501 8.42387 16.5103 7.98409 15.9698 7.98409ZM10.0878 9.69966H16.4599V15.8267H10.0878V9.69966ZM11.5583 6.5136H14.9895V7.98409H11.5583V6.5136ZM10.578 8.47425C10.7978 8.47425 15.6984 8.47425 15.9698 8.47425C16.2401 8.47425 16.4599 8.69414 16.4599 8.96442V9.2095H10.0878V8.96442C10.0878 8.69414 10.3077 8.47425 10.578 8.47425ZM15.4098 17.5462C15.3383 17.8325 15.0821 18.0324 14.787 18.0324H11.7607C11.4656 18.0324 11.2095 17.8325 11.1379 17.5461L11.137 17.5423H15.4108L15.4098 17.5462ZM15.9698 17.0521C15.5901 17.0521 10.8162 17.0521 10.578 17.0521C10.3077 17.0521 10.0878 16.8322 10.0878 16.5619V16.3169H16.4599V16.5619C16.4599 16.8322 16.2401 17.0521 15.9698 17.0521Z" fill="white"/>
</g>
<defs>
<clipPath id="clip0_5113_22078">
<rect width="12.5482" height="12.5482" fill="white" transform="translate(7 6)"/>
</clipPath>
</defs>
</svg>
