<svg width="30" height="29" viewBox="0 0 30 29" fill="none" xmlns="http://www.w3.org/2000/svg">
<path d="M17.2039 17.2742V17.2028H3.22516C1.44395 17.2028 0 18.6467 0 20.428V21.7473C0 22.5677 0.255848 23.3677 0.731921 24.0358C2.94357 27.1399 6.56183 28.6774 11.468 28.6774C12.4927 28.6774 13.4613 28.6104 14.3728 28.4759C14.3483 28.307 14.3357 28.1341 14.3357 27.9585V20.7878C14.3357 19.0533 15.5674 17.6064 17.2039 17.2742ZM11.468 0C15.4282 0 18.6386 3.21041 18.6386 7.17063C18.6386 11.1309 15.4282 14.3413 11.468 14.3413C7.50769 14.3413 4.29729 11.1309 4.29729 7.17063C4.29729 3.21041 7.50769 0 11.468 0Z" fill="white"/>
<path d="M21.3947 14.334C22.9787 14.334 24.2629 15.6181 24.2629 17.2022V18.6363H26.0555C26.6495 18.6363 27.1311 19.1179 27.1311 19.7119L27.1314 20.7875C26.9027 20.7875 26.6741 20.8661 26.4885 21.0231L26.4116 21.0953C25.8297 21.7012 25.2245 21.9826 24.5497 21.9826C23.9886 21.9826 23.5458 22.4438 23.5458 22.9984V24.7918C23.5458 26.4941 24.208 27.8175 25.4678 28.6764L16.7338 28.6751C16.1398 28.6751 15.6582 28.1935 15.6582 27.5995V19.7119C15.6582 19.1179 16.1398 18.6363 16.7338 18.6363H18.5264V17.2022C18.5264 15.6181 19.8106 14.334 21.3947 14.334ZM27.3345 21.5922C28.0459 22.3346 28.8342 22.6997 29.7125 22.6997C29.8511 22.6997 29.9668 22.8021 29.9935 22.9382L29.9993 22.9984V24.7918C29.9993 26.7149 29.0578 28.0223 27.2218 28.6598C27.1629 28.6802 27.0993 28.6802 27.0404 28.6598C25.2656 28.0435 24.3266 26.8013 24.266 24.9821L24.2629 24.7918V22.9984C24.2629 22.8334 24.3913 22.6997 24.5497 22.6997C25.427 22.6997 26.2156 22.3345 26.9288 21.592C27.0408 21.4753 27.2226 21.4754 27.3345 21.5922ZM21.3947 22.5801C20.8007 22.5801 20.3192 23.0617 20.3192 23.6557C20.3192 24.2497 20.8007 24.7313 21.3947 24.7313C21.9888 24.7313 22.4703 24.2497 22.4703 23.6557C22.4703 23.0617 21.9888 22.5801 21.3947 22.5801ZM21.3947 15.7681C20.6026 15.7681 19.9605 16.4102 19.9605 17.2022V18.6363H22.8288V17.2022C22.8288 16.4102 22.1867 15.7681 21.3947 15.7681Z" fill="white"/>
</svg>
