<svg width="32" height="32" viewBox="0 0 32 32" fill="none" xmlns="http://www.w3.org/2000/svg">
<path d="M18.0326 15.084H13.0549C12.6637 15.084 12.3438 15.404 12.3438 15.7951V20.7729C12.3438 21.164 12.6637 21.484 13.0549 21.484H18.0326C18.4237 21.484 18.7438 21.164 18.7438 20.7729V15.7951C18.7438 15.404 18.4237 15.084 18.0326 15.084ZM18.0326 20.7729H13.0549V15.7951H18.0326V20.7729ZM17.6735 17.2173L17.1722 16.7124L14.8291 19.0555L13.9117 18.1418L13.4069 18.6431L14.8291 20.0618L17.6735 17.2173Z" fill="white"/>
<g clip-path="url(#clip0_2349_10193)">
<path d="M11.6155 23.086H11.387V22.6289H10.9298V23.086H10.4727V22.6289H10.0155V23.086H9.78697C9.28182 23.086 8.87268 23.4952 8.87268 24.0003V26.286C8.87268 26.7912 9.28182 27.2003 9.78697 27.2003H11.6155C12.1207 27.2003 12.5298 26.7912 12.5298 26.286V24.0003C12.5298 23.4952 12.1207 23.086 11.6155 23.086ZM10.7013 26.286C10.3858 26.286 10.1298 26.0346 10.1298 25.7238C10.1298 25.4746 10.2281 25.406 10.7013 24.8575C11.1698 25.4015 11.2727 25.4746 11.2727 25.7238C11.2727 26.0346 11.0167 26.286 10.7013 26.286ZM11.6155 24.4575H9.78697V24.0003H11.6155V24.4575Z" fill="white"/>
<path d="M11.6156 22.1719H9.78699V22.629H11.6156V22.1719Z" fill="white"/>
</g>
<path d="M26.6693 11.1333V25.3333H25.6026V11.4667H6.40264V25.3333H5.33598V11.1333L16.0026 6.86667L26.6693 11.1333ZM29.336 28V9.33333L16.0026 4L2.66931 9.33333V28H9.06931V14.1333H16.0026H22.936V28H29.336Z" fill="white"/>
<g clip-path="url(#clip1_2349_10193)">
<path d="M19.3863 23.086H19.1577V22.6289H18.7006V23.086H18.2434V22.6289H17.7863V23.086H17.5577C17.0526 23.086 16.6434 23.4952 16.6434 24.0003V26.286C16.6434 26.7912 17.0526 27.2003 17.5577 27.2003H19.3863C19.8914 27.2003 20.3006 26.7912 20.3006 26.286V24.0003C20.3006 23.4952 19.8914 23.086 19.3863 23.086ZM18.472 26.286C18.1566 26.286 17.9006 26.0346 17.9006 25.7238C17.9006 25.4746 17.9989 25.406 18.472 24.8575C18.9406 25.4015 19.0434 25.4746 19.0434 25.7238C19.0434 26.0346 18.7874 26.286 18.472 26.286ZM19.3863 24.4575H17.5577V24.0003H19.3863V24.4575Z" fill="white"/>
<path d="M19.3863 22.1719H17.5577V22.629H19.3863V22.1719Z" fill="white"/>
</g>
<g clip-path="url(#clip2_2349_10193)">
<path d="M23.2718 23.086H23.0432V22.6289H22.5861V23.086H22.1289V22.6289H21.6718V23.086H21.4432C20.9381 23.086 20.5289 23.4952 20.5289 24.0003V26.286C20.5289 26.7912 20.9381 27.2003 21.4432 27.2003H23.2718C23.7769 27.2003 24.1861 26.7912 24.1861 26.286V24.0003C24.1861 23.4952 23.7769 23.086 23.2718 23.086ZM22.3575 26.286C22.0421 26.286 21.7861 26.0346 21.7861 25.7238C21.7861 25.4746 21.8844 25.406 22.3575 24.8575C22.8261 25.4015 22.9289 25.4746 22.9289 25.7238C22.9289 26.0346 22.6729 26.286 22.3575 26.286ZM23.2718 24.4575H21.4432V24.0003H23.2718V24.4575Z" fill="white"/>
<path d="M23.2718 22.1719H21.4432V22.629H23.2718V22.1719Z" fill="white"/>
</g>
<g clip-path="url(#clip3_2349_10193)">
<path d="M15.5009 23.086H15.2723V22.6289H14.8152V23.086H14.3581V22.6289H13.9009V23.086H13.6723C13.1672 23.086 12.7581 23.4952 12.7581 24.0003V26.286C12.7581 26.7912 13.1672 27.2003 13.6723 27.2003H15.5009C16.0061 27.2003 16.4152 26.7912 16.4152 26.286V24.0003C16.4152 23.4952 16.0061 23.086 15.5009 23.086ZM14.5866 26.286C14.2712 26.286 14.0152 26.0346 14.0152 25.7238C14.0152 25.4746 14.1135 25.406 14.5866 24.8575C15.0552 25.4015 15.1581 25.4746 15.1581 25.7238C15.1581 26.0346 14.9021 26.286 14.5866 26.286ZM15.5009 24.4575H13.6723V24.0003H15.5009V24.4575Z" fill="white"/>
<path d="M15.5009 22.1719H13.6724V22.629H15.5009V22.1719Z" fill="white"/>
</g>
<defs>
<clipPath id="clip0_2349_10193">
<rect width="5.48571" height="5.48571" fill="white" transform="translate(7.95837 21.9434)"/>
</clipPath>
<clipPath id="clip1_2349_10193">
<rect width="5.48571" height="5.48571" fill="white" transform="translate(15.7291 21.9434)"/>
</clipPath>
<clipPath id="clip2_2349_10193">
<rect width="5.48571" height="5.48571" fill="white" transform="translate(19.6146 21.9434)"/>
</clipPath>
<clipPath id="clip3_2349_10193">
<rect width="5.48571" height="5.48571" fill="white" transform="translate(11.8438 21.9434)"/>
</clipPath>
</defs>
</svg>
