<svg width="201" height="181" viewBox="0 0 201 181" fill="none" xmlns="http://www.w3.org/2000/svg">
<path d="M44.7861 149.59H31.3691V154.252H44.7861V149.59Z" fill="#EBEBEB"/>
<path d="M37.2979 155.469H23.8809V160.131H37.2979V155.469Z" fill="#EBEBEB"/>
<path d="M75.6982 62.2109H62.2812V66.8736H75.6982V62.2109Z" fill="#EBEBEB"/>
<path d="M68.2158 68.0898H54.7988V72.7525H68.2158V68.0898Z" fill="#EBEBEB"/>
<path d="M60.7607 62.2109H47.3438V66.8736H60.7607V62.2109Z" fill="#EBEBEB"/>
<path d="M199.106 155.469H185.689V160.131H199.106V155.469Z" fill="#EBEBEB"/>
<path d="M191.622 8.71094H178.205V13.3735H191.622V8.71094Z" fill="#EBEBEB"/>
<path d="M199.106 14.5898H185.689V19.2525H199.106V14.5898Z" fill="#EBEBEB"/>
<path d="M74.4316 52.6411H76.7942L77.7442 42.3867H74.4316V52.6411Z" fill="#EBEBEB"/>
<path d="M32.7777 29.0625L32.7985 29.0875C32.7985 29.0875 32.7985 29.125 32.7735 29.1125V29.0875C32.7735 29.0875 32.7444 29.0625 32.7777 29.0625Z" fill="#A6A6A6"/>
<path d="M28.9944 30.1437C29.0329 30.1667 29.0691 30.1932 29.1027 30.2229C29.0631 30.2062 29.0254 30.1852 28.9902 30.1604C28.9902 30.1604 28.9944 30.1312 28.9944 30.1437Z" fill="#A6A6A6"/>
<path d="M64.5312 35.7383V35.1758H59.2978V35.7383H64.5312Z" fill="#C7C7C7"/>
<path d="M145.955 117.707V179.734H183.456V117.707H145.955ZM180.048 156.841H149.359V140.695H180.048V156.841ZM180.048 136.841H149.359V120.703H180.048V136.841Z" fill="#DBDBDB"/>
<path d="M200.406 117.707H183.451V179.734H200.406V117.707Z" fill="#EBEBEB"/>
<path d="M156.651 120.699H149.359V136.845H156.651V120.699Z" fill="#EBEBEB"/>
<path d="M180.152 175.944H149.447V160.34H180.152V175.944ZM149.656 175.736H179.944V160.548H149.656V175.736Z" fill="#EBEBEB"/>
<path d="M167.826 164.773H161.768V166.986H167.826V164.773Z" fill="#EBEBEB"/>
<path d="M156.651 140.691H149.359V156.838H156.651V140.691Z" fill="#EBEBEB"/>
<path d="M175.852 156.841V141.953H170.722V156.841H175.852Z" fill="#A6A6A6"/>
<path d="M175.848 154.447V151.234H170.718V154.447H175.848Z" fill="#DBDBDB"/>
<path d="M175.848 148.65V146.746H170.718V148.65H175.848Z" fill="#DBDBDB"/>
<path d="M171.272 124.391H158.305V136.849H171.272V124.391Z" fill="#EBEBEB"/>
<path d="M176.201 124.391H171.271V136.849H176.201V124.391Z" fill="#C7C7C7"/>
<path d="M158.305 130.617H171.272L161.146 130.938L158.305 130.617Z" fill="#C7C7C7"/>
<path d="M171.272 135.344H158.305L168.43 135.665L171.272 135.344Z" fill="#C7C7C7"/>
<path d="M158.305 127.133H166.517L159.217 127.395L158.305 127.133Z" fill="#C7C7C7"/>
<path d="M171.271 133.512H163.059L170.359 133.774L171.271 133.512Z" fill="#C7C7C7"/>
<path d="M161.418 125.75H170.681L169.135 125.904L161.418 125.75Z" fill="#C7C7C7"/>
<path d="M159.568 131.957H168.831L167.285 132.111L159.568 131.957Z" fill="#C7C7C7"/>
<path d="M165.264 128.32H171.272L172.347 128.741L165.264 128.32Z" fill="#EBEBEB"/>
<path d="M156.65 128.32H162.659L163.734 128.741L156.65 128.32Z" fill="#EBEBEB"/>
<path d="M164.363 133.922H158.35L157.279 134.343L164.363 133.922Z" fill="#EBEBEB"/>
<path d="M171.271 132.5H176.097L177.172 132.917L171.271 132.5Z" fill="#C7C7C7"/>
<path d="M172.955 130.619H176.697L176.201 130.277L172.955 130.619Z" fill="#C7C7C7"/>
<path d="M180.044 140.961H175.848V156.84H180.044V140.961Z" fill="#EBEBEB"/>
<path d="M177.947 144.094C177.774 144.094 177.605 144.042 177.461 143.946C177.317 143.85 177.205 143.714 177.139 143.554C177.073 143.394 177.055 143.218 177.089 143.048C177.123 142.878 177.206 142.722 177.329 142.6C177.451 142.478 177.607 142.394 177.777 142.361C177.946 142.327 178.122 142.344 178.282 142.41C178.442 142.477 178.579 142.589 178.675 142.733C178.771 142.877 178.822 143.046 178.822 143.219C178.822 143.451 178.73 143.673 178.566 143.838C178.402 144.002 178.179 144.094 177.947 144.094Z" fill="white"/>
<path d="M177.947 143.719C177.848 143.719 177.752 143.689 177.669 143.635C177.587 143.58 177.523 143.501 177.485 143.41C177.447 143.319 177.438 143.218 177.457 143.121C177.476 143.024 177.524 142.935 177.594 142.865C177.664 142.795 177.753 142.748 177.85 142.728C177.947 142.709 178.047 142.719 178.139 142.757C178.23 142.795 178.308 142.859 178.363 142.941C178.418 143.023 178.447 143.12 178.447 143.219C178.447 143.351 178.395 143.479 178.301 143.572C178.207 143.666 178.08 143.719 177.947 143.719Z" fill="#A6A6A6"/>
<path d="M180.047 154.335V150.473H175.851V154.335H180.047Z" fill="white"/>
<path d="M170.717 153.562H154.838V156.863H170.717V153.562Z" fill="#C7C7C7"/>
<path d="M167.584 155.215C167.583 155.042 167.634 154.872 167.729 154.728C167.825 154.583 167.961 154.471 168.121 154.404C168.281 154.337 168.457 154.319 168.627 154.352C168.797 154.386 168.953 154.469 169.076 154.591C169.199 154.713 169.283 154.869 169.317 155.039C169.351 155.209 169.334 155.385 169.268 155.545C169.202 155.705 169.09 155.842 168.946 155.938C168.802 156.035 168.632 156.086 168.459 156.086C168.228 156.086 168.006 155.994 167.842 155.831C167.678 155.668 167.585 155.446 167.584 155.215Z" fill="white"/>
<path d="M167.959 155.215C167.959 155.116 167.988 155.019 168.043 154.937C168.098 154.855 168.176 154.791 168.268 154.753C168.359 154.715 168.46 154.705 168.557 154.724C168.654 154.744 168.743 154.791 168.813 154.861C168.882 154.931 168.93 155.02 168.949 155.117C168.969 155.214 168.959 155.315 168.921 155.406C168.883 155.498 168.819 155.576 168.737 155.631C168.655 155.686 168.558 155.715 168.459 155.715C168.326 155.715 168.199 155.662 168.105 155.568C168.012 155.475 167.959 155.347 167.959 155.215Z" fill="#A6A6A6"/>
<path d="M157.339 156.859H161.201V153.559H157.339V156.859Z" fill="white"/>
<path d="M199.911 150.506C195.915 155.923 191.752 162.194 190.744 168.977C190.744 169.081 190.898 169.115 190.919 169.01C191.381 167.166 191.971 165.356 192.686 163.594C195.315 162.869 197.89 162.277 199.269 159.669C200.678 156.989 200.499 153.498 200.232 150.577C200.203 150.41 199.99 150.402 199.911 150.506Z" fill="#5E72E4"/>
<path d="M192.718 163.532C194.514 159.503 196.814 155.461 199.743 152.148C199.743 152.148 199.793 152.148 199.777 152.182C197.86 154.54 196.402 157.107 194.981 159.719C196.302 158.378 197.752 157.174 199.006 155.753C199.031 155.724 199.068 155.753 199.043 155.79C197.793 157.286 196.443 158.907 194.822 160.011C194.385 160.811 193.947 161.62 193.506 162.424C193.614 162.361 193.727 162.307 193.835 162.253L193.856 162.282C193.731 162.345 193.61 162.411 193.481 162.465L192.847 163.603C192.797 163.69 192.681 163.615 192.718 163.532Z" fill="#263238"/>
<path d="M194.051 162.124C195.126 161.525 196.151 160.841 197.118 160.079C197.143 160.058 197.184 160.079 197.155 160.116C196.218 160.925 195.192 161.624 194.097 162.199C194.087 162.202 194.077 162.201 194.068 162.198C194.059 162.194 194.051 162.188 194.046 162.179C194.041 162.171 194.038 162.161 194.039 162.151C194.04 162.141 194.044 162.132 194.051 162.124Z" fill="#263238"/>
<path d="M190.273 167.97C190.273 168.053 190.423 168.053 190.419 167.97C190.419 165.732 190.419 163.49 190.456 161.244C191.027 160.09 192.256 159.449 193.11 158.524C193.725 157.849 194.259 157.105 194.702 156.307C195.731 154.4 196.361 152.303 196.552 150.144C196.79 147.752 195.881 139.865 194.885 140.144C194.365 140.286 192.673 144.194 192.227 145.482C191.498 147.612 190.965 149.804 190.635 152.032C189.806 157.282 189.873 162.678 190.273 167.97Z" fill="#5E72E4"/>
<path d="M190.247 158.334C190.368 155.504 191.005 152.65 191.601 149.908C192.243 146.954 192.993 144.175 194.518 141.542C194.523 141.532 194.533 141.524 194.544 141.521C194.555 141.518 194.566 141.519 194.576 141.525C194.586 141.53 194.593 141.54 194.597 141.551C194.6 141.562 194.598 141.573 194.593 141.583C193.58 143.633 192.797 145.787 192.255 148.008C192.355 147.85 192.48 147.7 192.584 147.546C192.626 147.488 192.726 147.546 192.684 147.604C192.549 147.843 192.39 148.068 192.209 148.275C192.206 148.277 192.203 148.277 192.199 148.277C192.195 148.277 192.192 148.277 192.189 148.275C191.668 150.388 191.289 152.546 190.968 154.7C190.994 154.674 191.017 154.647 191.039 154.617C191.039 154.617 191.084 154.617 191.072 154.642C191.059 154.667 190.989 154.788 190.947 154.859C190.784 155.95 190.634 157.042 190.48 158.125C192.43 156.459 194.093 154.5 195.03 152.084C194.114 154.584 192.664 156.817 190.447 158.334C190.405 158.625 190.364 158.917 190.326 159.209C190.326 159.267 190.218 159.25 190.218 159.209C190.218 158.955 190.218 158.696 190.243 158.438C190.234 158.432 190.228 158.424 190.223 158.415C190.219 158.405 190.216 158.395 190.217 158.385C190.217 158.374 190.22 158.364 190.225 158.355C190.231 158.346 190.238 158.339 190.247 158.334Z" fill="#263238"/>
<path d="M191.173 154.235C192.695 152.079 194.023 149.792 195.14 147.401C195.14 147.376 195.202 147.401 195.19 147.422C194.3 149.931 192.964 152.258 191.248 154.293C191.215 154.33 191.144 154.28 191.173 154.235Z" fill="#263238"/>
<path d="M193.165 146.855C193.782 145.763 194.415 144.701 195.011 143.592C195.011 143.559 195.069 143.592 195.057 143.617C194.582 144.778 193.979 145.882 193.261 146.909C193.206 146.98 193.115 146.917 193.165 146.855Z" fill="#263238"/>
<path d="M188.761 161.507C188.732 162.988 188.557 164.463 188.24 165.911C188.265 166.069 188.286 166.228 188.311 166.394C188.766 164.795 189.03 163.147 189.098 161.486C189.112 161.463 189.119 161.437 189.119 161.411C189.119 161.385 189.112 161.359 189.098 161.336C189.162 159.11 188.997 156.883 188.607 154.69C187.915 150.581 186.403 146.644 183.54 143.565C183.516 143.544 183.488 143.53 183.458 143.522C183.428 143.514 183.396 143.514 183.365 143.52C183.335 143.526 183.306 143.54 183.281 143.559C183.257 143.578 183.237 143.603 183.223 143.631C182.065 146.569 182.469 150.073 183.452 153.007C183.989 154.594 184.754 156.094 185.723 157.461C186.711 158.832 187.965 159.998 188.761 161.507Z" fill="#5E72E4"/>
<path d="M183.88 144.933C186.593 149.337 188.464 154.562 188.714 159.762C188.714 159.854 188.564 159.879 188.551 159.787C188.485 159.316 188.414 158.854 188.339 158.391C187.158 157.349 186.123 156.154 185.26 154.837C185.26 154.816 185.28 154.787 185.297 154.808C186.23 155.951 187.229 157.037 188.289 158.062C188.093 156.912 187.872 155.783 187.593 154.666C187.518 154.583 187.447 154.495 187.376 154.412C187.306 154.329 187.41 154.279 187.456 154.333L187.522 154.404C187.14 152.876 186.667 151.371 186.105 149.899C185.414 149.066 184.639 148.362 184.139 147.37L184.172 147.349C184.589 147.916 184.968 148.487 185.422 149.016C185.605 149.224 185.81 149.433 185.997 149.624C185.372 148.029 184.629 146.482 183.776 144.995C183.772 144.982 183.773 144.967 183.778 144.954C183.783 144.941 183.792 144.93 183.804 144.923C183.816 144.916 183.83 144.913 183.844 144.915C183.858 144.916 183.871 144.923 183.88 144.933Z" fill="#263238"/>
<path d="M184.414 150.366C185.289 151.545 186.289 152.674 187.106 153.895C187.127 153.928 187.077 153.966 187.048 153.937C186.008 152.872 185.102 151.684 184.352 150.399C184.348 150.362 184.414 150.316 184.414 150.366Z" fill="#263238"/>
<path d="M187.243 154.164L187.28 154.201C187.305 154.226 187.28 154.268 187.243 154.243L187.205 154.206C187.176 154.181 187.218 154.139 187.243 154.164Z" fill="#263238"/>
<path d="M179.626 153.4C179.948 155.861 180.94 158.186 182.493 160.121C183.132 160.88 183.923 161.498 184.814 161.934C185.822 162.43 186.872 163.005 187.914 163.413C188.409 164.672 188.776 165.977 189.01 167.309C189.043 167.196 189.077 167.08 189.114 166.963C188.443 161.23 184.731 156.325 179.981 153.175C179.943 153.152 179.9 153.14 179.857 153.141C179.813 153.141 179.77 153.154 179.733 153.177C179.696 153.2 179.667 153.234 179.648 153.273C179.629 153.313 179.622 153.357 179.626 153.4Z" fill="#5E72E4"/>
<path d="M181.267 155.096C181.234 155.067 181.267 155.008 181.317 155.033C183.927 156.974 186.007 159.538 187.367 162.492C187.401 162.571 187.297 162.638 187.251 162.559C187.03 162.175 186.805 161.796 186.576 161.429C185.492 161.225 184.467 160.463 183.659 159.738C183.638 159.717 183.659 159.688 183.692 159.704C184.107 160.082 184.568 160.405 185.063 160.667C185.505 160.892 185.984 161.034 186.442 161.213C186.026 160.575 185.609 159.963 185.192 159.371C184.022 158.926 182.924 158.309 181.934 157.542C181.905 157.517 181.934 157.467 181.967 157.488C182.948 158.078 183.957 158.619 184.992 159.109C184.332 158.232 183.618 157.397 182.855 156.608C182.488 156.417 182.113 156.221 181.759 156.013C181.73 156.013 181.759 155.946 181.759 155.958C182.053 156.063 182.332 156.203 182.592 156.375C182.184 155.942 181.742 155.513 181.267 155.096Z" fill="#263238"/>
<path d="M181.373 157.077C181.436 157.116 181.496 157.159 181.552 157.206C181.573 157.206 181.552 157.243 181.532 157.235C181.464 157.206 181.4 157.169 181.34 157.127C181.307 157.106 181.34 157.052 181.373 157.077Z" fill="#263238"/>
<path d="M196.523 179.732H183.51L184.56 167.882L184.793 165.27H195.243L195.473 167.882L196.523 179.732Z" fill="#455A64"/>
<path d="M195.473 167.882H184.561L184.794 165.27H195.244L195.473 167.882Z" fill="#263238"/>
<path d="M195.864 163.441H184.168V166.029H195.864V163.441Z" fill="#455A64"/>
<path d="M77.8956 134.625C76.0497 135.717 74.1872 136.775 72.3205 137.825C70.4538 138.875 68.5704 139.908 66.6995 140.938C64.8286 141.967 62.9494 142.979 61.0369 143.979L58.191 145.471C57.2368 145.954 56.2867 146.454 55.3242 146.929C56.2451 146.379 57.1784 145.85 58.1035 145.309L60.8994 143.725C62.7661 142.675 64.6494 141.642 66.5203 140.613C68.3912 139.583 70.2704 138.575 72.183 137.575C74.0955 136.575 75.9789 135.583 77.8956 134.625Z" fill="#DBDBDB"/>
<path d="M56.9121 134.625C58.6955 135.458 60.4622 136.358 62.2206 137.25C63.979 138.142 65.729 139.063 67.4874 139.967C69.2457 140.871 70.975 141.813 72.7083 142.759L75.3084 144.179C76.1667 144.667 77.0334 145.142 77.8876 145.638C76.9918 145.221 76.1126 144.775 75.2209 144.342L72.575 143.013C70.8166 142.121 69.0666 141.2 67.3124 140.296C65.5582 139.392 63.8248 138.45 62.0914 137.504C60.358 136.558 58.633 135.608 56.9121 134.625Z" fill="#DBDBDB"/>
<path d="M99.1961 134.625C97.3544 135.717 95.4919 136.775 93.6251 137.825C91.7584 138.875 89.8751 139.908 88 140.938C86.125 141.967 84.2499 142.979 82.3374 143.979L79.4915 145.471C78.5373 145.954 77.5873 146.454 76.6289 146.929C77.5498 146.379 78.4789 145.85 79.404 145.309L82.1999 143.725C84.0666 142.675 85.95 141.642 87.825 140.613C89.7001 139.583 91.5751 138.575 93.4876 137.575C95.4002 136.575 97.2794 135.583 99.1961 134.625Z" fill="#DBDBDB"/>
<path d="M78.2207 134.625C80.0041 135.458 81.7708 136.358 83.5333 137.25C85.2959 138.142 87.0418 139.063 88.796 139.967C90.5502 140.871 92.2877 141.813 94.0211 142.759L96.617 144.179C97.4795 144.667 98.342 145.142 99.1962 145.638C98.3045 145.221 97.4212 144.775 96.5336 144.342L93.8878 143.013C92.1252 142.121 90.3793 141.2 88.6251 140.296C86.8709 139.392 85.1334 138.45 83.4 137.504C81.6666 136.558 79.9332 135.608 78.2207 134.625Z" fill="#DBDBDB"/>
<path d="M95.3047 131.676L96.4297 138.447L104.076 179.735H105.309L99.7506 138.447L98.9298 131.676H95.3047Z" fill="#DBDBDB"/>
<path d="M98.9298 131.676H95.3047L96.4297 138.447H99.7506L98.9298 131.676Z" fill="#C7C7C7"/>
<path d="M71.291 179.735H72.5244L80.1704 138.447L81.2996 131.676H77.6745L76.8537 138.447L71.291 179.735Z" fill="#DBDBDB"/>
<path d="M77.6744 131.676L76.8535 138.447H80.1703L81.2995 131.676H77.6744Z" fill="#C7C7C7"/>
<path d="M48.3574 179.735H49.5908L57.2368 138.447L58.366 131.676H54.7409L53.9201 138.447L48.3574 179.735Z" fill="#DBDBDB"/>
<path d="M53.9199 138.447H57.2367L58.3659 131.676H54.7408L53.9199 138.447Z" fill="#C7C7C7"/>
<path d="M50.3125 134.854H106.339V128.954H85.3675L78.3173 83.5781H52.4501L50.3125 134.854Z" fill="#DBDBDB"/>
<path d="M50.3125 134.854H53.3667L55.3585 83.5781H52.4501L50.3125 134.854Z" fill="#C7C7C7"/>
<path d="M43.823 153.984H33.8145V155.743H43.823V153.984Z" fill="#455A64"/>
<path d="M49.2526 179.734H48.1692L39.3565 138.583L38.8523 136.237L37.269 128.85L36.6815 126.095L34.4606 115.758L33.6855 112.137H37.5356L38.1648 115.758L38.5773 118.133L38.8523 119.716L40.4315 128.85L40.9441 131.787L49.2526 179.734Z" fill="#455A64"/>
<path d="M37.5356 112.137L38.1648 115.758H34.4606L33.6855 112.137H37.5356Z" fill="#263238"/>
<path d="M40.9442 131.787L39.3567 138.583L38.8525 136.237L37.2692 128.85L36.6816 126.095L38.5775 118.133L38.8525 119.716L40.4317 128.85L40.9442 131.787Z" fill="#263238"/>
<path d="M44.016 112.137L43.241 115.758L40.4326 128.85L38.8534 136.237L29.5323 179.734H28.4531L37.27 128.85L38.8534 119.716L39.5367 115.758L40.1659 112.137H44.016Z" fill="#455A64"/>
<path d="M44.0164 112.137L43.2414 115.758H39.5371L40.1663 112.137H44.0164Z" fill="#263238"/>
<path d="M133.622 153.984H123.613V155.743H133.622V153.984Z" fill="#455A64"/>
<path d="M139.051 179.734H137.968L129.155 138.583L128.651 136.237L127.068 128.85L126.48 126.095L124.259 115.758L123.484 112.137H127.334L127.964 115.758L128.376 118.133L128.651 119.716L130.23 128.85L130.743 131.787L139.051 179.734Z" fill="#455A64"/>
<path d="M127.334 112.137L127.964 115.758H124.259L123.484 112.137H127.334Z" fill="#263238"/>
<path d="M130.743 131.787L129.156 138.583L128.651 136.237L127.068 128.85L126.48 126.095L128.376 118.133L128.651 119.716L130.231 128.85L130.743 131.787Z" fill="#263238"/>
<path d="M133.813 112.137L133.038 115.758L130.229 128.85L128.65 136.237L119.329 179.734H118.25L127.067 128.85L128.65 119.716L129.334 115.758L129.963 112.137H133.813Z" fill="#455A64"/>
<path d="M133.813 112.137L133.038 115.758H129.334L129.963 112.137H133.813Z" fill="#263238"/>
<path d="M141.313 109.492H26.1895V112.138H141.313V109.492Z" fill="#455A64"/>
<path d="M144.918 104.438H22.5859V109.492H144.918V104.438Z" fill="#37474F"/>
<path d="M197.716 16.9062H106.109V138.58H197.716V16.9062Z" fill="#5E72E4"/>
<g opacity="0.1">
<path d="M197.716 16.9062H106.109V138.58H197.716V16.9062Z" fill="#020100"/>
</g>
<path d="M195.224 16.9062H103.617V138.58H195.224V16.9062Z" fill="#5E72E4"/>
<path d="M190.014 21.7627L109.152 22.793L110.549 132.408L191.411 131.377L190.014 21.7627Z" fill="#EBEBEB"/>
<path d="M109.808 21.4217L107.436 131.02L188.285 132.77L190.658 23.1717L109.808 21.4217Z" fill="#DBDBDB"/>
<path d="M189.474 22.2734H108.605V131.897H189.474V22.2734Z" fill="white"/>
<path d="M126.559 55.4882C124.4 55.5424 120.213 55.6257 118.054 55.6507C118.008 53.1507 118.021 49.6548 118 47.138V46.9297H118.208C120.738 46.9547 124.225 46.9297 126.721 46.9797C126.692 49.1422 126.617 53.3298 126.559 55.4882ZM126.559 55.4882C126.504 53.4048 126.429 49.2381 126.4 47.1547L126.559 47.313C124.146 47.3422 120.658 47.3505 118.225 47.363L118.433 47.1547C118.433 49.6172 118.413 53.0757 118.383 55.4882L118.225 55.3299C120.308 55.3549 124.496 55.4382 126.559 55.4882Z" fill="#C7C7C7"/>
<path d="M130.996 48.568C137.117 48.2846 143.288 48.2846 149.409 48.568C143.284 48.8555 137.117 48.8513 130.996 48.568Z" fill="#C7C7C7"/>
<path d="M130.996 50.5813C146.696 50.3021 164.151 50.3104 179.864 50.5813C164.147 50.8479 146.701 50.8563 130.996 50.5813Z" fill="#C7C7C7"/>
<path d="M118.826 50.8788C119.135 51.1371 119.426 51.4038 119.718 51.6746C120.01 51.9455 120.289 52.2246 120.551 52.508C121.114 53.0622 121.655 53.633 122.189 54.2122L121.235 54.2747C121.992 52.6875 122.861 51.1559 123.835 49.6912C124.318 48.9634 124.832 48.2523 125.376 47.5579C125.926 46.8563 126.522 46.1923 127.16 45.5703C126.905 46.4236 126.593 47.2588 126.226 48.0704C125.872 48.8746 125.48 49.6621 125.06 50.4288C124.22 51.9665 123.276 53.445 122.235 54.8539L121.71 55.5539L121.293 54.9164C120.851 54.2622 120.418 53.6038 120.001 52.933C119.801 52.5913 119.585 52.258 119.393 51.9121C119.201 51.5663 118.997 51.2371 118.826 50.8788Z" fill="#263238"/>
<path d="M126.559 71.1484C124.4 71.2025 120.213 71.2859 118.054 71.3109C118.008 68.8108 118.021 65.3191 118 62.7982V62.5898H118.208C120.738 62.6148 124.225 62.5898 126.721 62.644C126.692 64.8066 126.617 68.99 126.559 71.1484ZM126.559 71.1484C126.504 69.065 126.429 64.8982 126.4 62.8148L126.559 62.9774C124.146 63.0065 120.658 63.0107 118.225 63.0232L118.433 62.8148C118.433 65.2774 118.413 68.74 118.383 71.1484L118.225 70.99C120.308 71.015 124.496 71.0984 126.559 71.1484Z" fill="#C7C7C7"/>
<path d="M130.996 64.2141C137.117 63.9307 143.288 63.9266 149.409 64.2141C143.284 64.4974 137.117 64.4974 130.996 64.2141Z" fill="#C7C7C7"/>
<path d="M130.996 66.2203C146.696 65.9453 164.151 65.9495 179.864 66.2203C164.147 66.4912 146.701 66.4995 130.996 66.2203Z" fill="#C7C7C7"/>
<path d="M118.826 66.5217C119.135 66.7801 119.426 67.0468 119.718 67.3176C120.01 67.5884 120.289 67.8676 120.551 68.1509C121.114 68.7093 121.655 69.2801 122.189 69.8593L121.235 69.9177C121.994 68.3395 122.863 66.8163 123.835 65.3592C124.318 64.6314 124.832 63.9203 125.376 63.2258C125.925 62.5233 126.521 61.8593 127.16 61.2383C126.905 62.0916 126.593 62.9268 126.226 63.7383C125.872 64.5467 125.48 65.33 125.06 66.1009C124.22 67.6373 123.276 69.1144 122.235 70.5218L121.71 71.226L121.293 70.5843C120.851 69.9343 120.418 69.276 120.001 68.601C119.801 68.2593 119.585 67.9259 119.393 67.5801C119.201 67.2343 118.997 66.8801 118.826 66.5217Z" fill="#263238"/>
<path d="M126.559 86.7765C124.4 86.8307 120.213 86.914 118.054 86.939C118.008 84.4389 118.021 80.943 118 78.4263V78.2305H118.208C120.738 78.2555 124.225 78.2305 126.721 78.2805C126.692 80.443 126.617 84.6265 126.559 86.789V86.7765ZM126.559 86.7765C126.504 84.6931 126.429 80.5264 126.4 78.443L126.559 78.6013C124.146 78.6305 120.658 78.6388 118.225 78.6513L118.433 78.443C118.433 80.9055 118.413 84.3639 118.383 86.7765L118.225 86.6182C120.308 86.6432 124.496 86.7265 126.559 86.7765Z" fill="#C7C7C7"/>
<path d="M130.996 79.857C137.117 79.5737 143.288 79.5737 149.409 79.857C143.284 80.1404 137.117 80.1404 130.996 79.857Z" fill="#C7C7C7"/>
<path d="M130.996 81.8703C146.696 81.5912 164.151 81.5995 179.864 81.8703C164.147 82.137 146.701 82.1453 130.996 81.8703Z" fill="#C7C7C7"/>
<path d="M126.559 102.418C124.4 102.472 120.213 102.555 118.054 102.58C118.008 100.08 118.021 96.5886 118 94.0677V93.8594H118.208C120.738 93.8844 124.225 93.8594 126.721 93.9135C126.692 96.0719 126.617 100.26 126.559 102.418ZM126.559 102.418C126.504 100.335 126.429 96.1678 126.4 94.0844L126.559 94.2469C124.146 94.2761 120.658 94.2802 118.225 94.2927L118.433 94.0844C118.433 96.5469 118.413 100.01 118.383 102.418L118.225 102.26C120.308 102.285 124.496 102.368 126.559 102.418Z" fill="#C7C7C7"/>
<path d="M130.996 95.5008C137.117 95.2133 143.288 95.2133 149.409 95.5008C143.284 95.7841 137.117 95.7841 130.996 95.5008Z" fill="#C7C7C7"/>
<path d="M130.996 97.5094C146.696 97.2344 164.151 97.2385 179.864 97.5094C164.147 97.7802 146.701 97.7886 130.996 97.5094Z" fill="#C7C7C7"/>
<path d="M126.559 118.066C124.4 118.121 120.213 118.2 118.054 118.229C118.008 115.729 118.021 112.233 118 109.716V109.508H118.208C120.738 109.533 124.225 109.508 126.721 109.558C126.692 111.72 126.617 115.904 126.559 118.066ZM126.559 118.066C126.504 115.983 126.429 111.795 126.4 109.733L126.559 109.891C124.146 109.92 120.658 109.929 118.225 109.941L118.433 109.733C118.433 112.195 118.413 115.654 118.383 118.066L118.225 117.908C120.308 117.933 124.496 118.016 126.559 118.066Z" fill="#C7C7C7"/>
<path d="M130.996 111.15C137.117 110.867 143.288 110.867 149.409 111.15C143.284 111.433 137.117 111.433 130.996 111.15Z" fill="#C7C7C7"/>
<path d="M130.996 113.155C146.696 112.876 164.151 112.885 179.864 113.155C164.147 113.422 146.701 113.43 130.996 113.155Z" fill="#C7C7C7"/>
<path d="M168.401 14.6836H128.68V26.7922H168.401V14.6836Z" fill="#C7C7C7"/>
<path d="M160.686 8.0625H136.035L134.943 14.6835H162.144L160.686 8.0625ZM148.54 12.8126C148.252 12.8126 147.971 12.7273 147.732 12.5675C147.492 12.4077 147.306 12.1806 147.196 11.9149C147.086 11.6492 147.057 11.3568 147.113 11.0747C147.169 10.7926 147.308 10.5335 147.511 10.3301C147.715 10.1268 147.974 9.98826 148.256 9.93215C148.538 9.87604 148.83 9.90484 149.096 10.0149C149.362 10.125 149.589 10.3114 149.749 10.5505C149.908 10.7896 149.994 11.0708 149.994 11.3584C149.994 11.5495 149.957 11.7389 149.884 11.9156C149.811 12.0922 149.704 12.2528 149.569 12.3879C149.434 12.5231 149.273 12.6302 149.097 12.703C148.92 12.7759 148.731 12.8132 148.54 12.8126Z" fill="#C7C7C7"/>
<path d="M162.144 14.6823H134.943L135.189 13.2031H161.815L162.144 14.6823Z" fill="#A6A6A6"/>
<path d="M22.5859 179.735C79.5457 179.481 143.447 179.477 200.407 179.735C143.447 179.994 79.5457 179.989 22.5859 179.735Z" fill="#263238"/>
<path d="M45.3295 91.0003H27.5613C27.4298 90.9968 27.2992 91.0228 27.1792 91.0765C27.0592 91.1303 26.9527 91.2103 26.8678 91.3107C26.7828 91.4111 26.7215 91.5293 26.6884 91.6565C26.6553 91.7838 26.6512 91.9169 26.6765 92.0459L28.1718 101.881C28.222 102.166 28.3689 102.426 28.5879 102.617C28.8069 102.807 29.0846 102.916 29.3746 102.926H47.1429C47.2745 102.93 47.4051 102.904 47.5253 102.85C47.6454 102.796 47.752 102.716 47.8372 102.616C47.9225 102.516 47.9841 102.398 48.0177 102.27C48.0513 102.143 48.0559 102.01 48.0313 101.881L46.536 92.0459C46.4845 91.7601 46.3367 91.5005 46.1172 91.3103C45.8977 91.1201 45.6198 91.0107 45.3295 91.0003Z" fill="#5E72E4"/>
<path d="M22.5865 102.91H77.8984V104.475H22.5865V102.91Z" fill="#5E72E4"/>
<path opacity="0.2" d="M22.5856 102.91H35.4219V104.475H22.5856V102.91Z" fill="black"/>
<path opacity="0.2" d="M45.603 91.0003H27.8201C27.6886 90.9968 27.558 91.0228 27.438 91.0765C27.318 91.1303 27.2115 91.2103 27.1266 91.3107C27.0417 91.4111 26.9804 91.5293 26.9473 91.6565C26.9141 91.7838 26.9101 91.9169 26.9353 92.0459L28.4306 101.881C28.4808 102.166 28.6277 102.426 28.8467 102.617C29.0657 102.807 29.3435 102.916 29.6335 102.926H47.4163C47.5479 102.93 47.6786 102.904 47.7987 102.85C47.9189 102.796 48.0255 102.716 48.1107 102.616C48.1959 102.516 48.2576 102.398 48.2911 102.27C48.3247 102.143 48.3294 102.01 48.3048 101.881L46.8094 92.0459C46.7585 91.7598 46.6109 91.4999 46.3913 91.3095C46.1717 91.1192 45.8934 91.0101 45.603 91.0003Z" fill="white"/>
<path opacity="0.8" d="M47.4126 102.599C47.4971 102.602 47.5812 102.586 47.6589 102.552C47.7365 102.519 47.806 102.469 47.8623 102.406C47.9181 102.338 47.9584 102.259 47.9805 102.175C48.0026 102.09 48.006 102.002 47.9903 101.916L46.4949 92.0993C46.4549 91.8877 46.3448 91.6957 46.1822 91.5545C46.0197 91.4132 45.8143 91.3308 45.5992 91.3205H27.8163C27.7318 91.3182 27.6478 91.3343 27.5701 91.3678C27.4924 91.4012 27.423 91.4512 27.3666 91.5143C27.3115 91.582 27.2718 91.6609 27.2503 91.7455C27.2289 91.8301 27.2262 91.9184 27.2423 92.0042L28.734 101.839C28.774 102.051 28.8842 102.242 29.0467 102.384C29.2092 102.525 29.4146 102.607 29.6297 102.618L47.4126 102.599Z" fill="white"/>
<path d="M52.6092 102.52H29.0242C28.9749 102.518 28.9259 102.528 28.8809 102.548C28.8358 102.568 28.7958 102.598 28.7639 102.635C28.732 102.673 28.7089 102.717 28.6963 102.765C28.6838 102.813 28.6821 102.862 28.6915 102.911H53.0625C53.0433 102.804 52.9877 102.706 52.9052 102.635C52.8226 102.564 52.7181 102.523 52.6092 102.52Z" fill="#5E72E4"/>
<path d="M70.2369 170.957L73.7133 172.916L78.0137 164.588L74.5373 162.629L70.2369 170.957Z" fill="#FFB573"/>
<path d="M74.1245 172.23L70.0752 170.239C70.0422 170.22 70.0061 170.209 69.9687 170.205C69.9313 170.201 69.8935 170.204 69.8575 170.215C69.8214 170.225 69.7878 170.243 69.7587 170.267C69.7295 170.291 69.7054 170.32 69.6877 170.353L67.9195 173.458C67.8354 173.626 67.8209 173.821 67.8791 174C67.9373 174.178 68.0636 174.327 68.2306 174.413C69.6549 175.079 70.3699 175.33 72.1489 176.203C73.2404 176.749 75.8545 178.086 77.3662 178.834C78.8779 179.581 79.5491 178.059 79.0034 177.606C76.4275 175.587 75.2706 174.059 74.6375 172.754C74.532 172.526 74.3508 172.341 74.1245 172.23Z" fill="#263238"/>
<path opacity="0.2" d="M74.5373 162.629L78.0137 164.588L75.798 168.883L72.2125 167.126L74.5373 162.629Z" fill="black"/>
<path d="M77.3605 80.9922C77.3605 80.9922 88.5863 103.558 91.9535 114.577C95.6372 126.643 78.1355 167.48 78.1355 167.48L71.7449 164.681C71.7449 164.681 83.2053 124.236 81.2134 119.75C75.7561 107.362 63.0077 81.2541 63.0077 81.2541L77.3605 80.9922Z" fill="#263238"/>
<path opacity="0.3" d="M73.1423 94.5224C76.2039 99.6577 77.5082 108.913 77.6992 114.933C75.9692 111.211 74.1137 107.336 72.3783 103.734C71.2104 100.302 70.0753 96.9945 69.0166 94.1622C69.2513 92.203 70.823 90.6204 73.1423 94.5224Z" fill="black"/>
<path d="M70.9313 165.156L77.9112 168.812L79.9141 166.449L71.6516 162.051L70.9313 165.156Z" fill="#5E72E4"/>
<path d="M75.1047 173.486C74.786 173.318 74.486 173.116 74.2097 172.885C74.1945 172.875 74.1831 172.859 74.1772 172.842C74.1713 172.824 74.1713 172.805 74.177 172.787C74.1814 172.77 74.1911 172.754 74.2048 172.742C74.2185 172.73 74.2355 172.723 74.2534 172.722C74.4062 172.694 75.7705 172.498 76.1253 172.891C76.1655 172.935 76.194 172.989 76.2083 173.047C76.2226 173.105 76.2222 173.166 76.2071 173.224C76.1899 173.313 76.1504 173.398 76.0922 173.468C76.0341 173.539 75.9591 173.593 75.8742 173.628C75.609 173.677 75.3349 173.626 75.1047 173.486ZM74.499 172.874C75.0829 173.322 75.5632 173.535 75.8142 173.453C75.8699 173.43 75.9185 173.393 75.955 173.345C75.9914 173.297 76.0144 173.24 76.0216 173.18C76.0307 173.152 76.0325 173.123 76.0268 173.094C76.0211 173.065 76.008 173.038 75.9888 173.016C75.7978 172.809 75.0502 172.814 74.499 172.874Z" fill="#5E72E4"/>
<path d="M74.2007 172.894C74.1876 172.888 74.1763 172.879 74.168 172.867C74.1586 172.853 74.1535 172.837 74.1535 172.82C74.1535 172.804 74.1586 172.788 74.168 172.774C74.168 172.73 74.61 171.655 75.1503 171.481C75.2184 171.458 75.291 171.451 75.3621 171.462C75.4332 171.472 75.5008 171.499 75.5596 171.541C75.6316 171.577 75.6888 171.637 75.7217 171.71C75.7545 171.784 75.7609 171.867 75.7397 171.945C75.6305 172.376 74.7246 172.867 74.2607 172.905L74.2007 172.894ZM75.4122 171.677C75.3781 171.661 75.3408 171.653 75.3031 171.653C75.2654 171.653 75.2281 171.661 75.1939 171.677C74.872 171.781 74.5554 172.359 74.3972 172.703C74.8392 172.594 75.4886 172.201 75.5487 171.912C75.5487 171.857 75.5487 171.786 75.4504 171.715L75.4122 171.677Z" fill="#5E72E4"/>
<path d="M69.7739 50.7362C70.4725 52.1496 71.1765 53.3939 71.9569 54.6709C72.7373 55.948 73.5286 57.1759 74.4018 58.3874C74.8274 58.9986 75.2804 59.5935 75.7225 60.1938C76.1645 60.7941 76.6502 61.378 77.1523 61.951C78.1366 63.1328 79.1918 64.2536 80.3121 65.3073C80.5849 65.5802 80.9069 65.853 81.2016 66.0986C81.4975 66.3708 81.8072 66.6276 82.1294 66.8681L83.1172 67.5994C83.2263 67.6703 83.199 67.6649 83.5319 67.8832C83.7932 68.047 84.0713 68.1824 84.3614 68.287C84.9457 68.4951 85.5693 68.5692 86.1861 68.5041C86.8029 68.4389 87.3972 68.236 87.9251 67.9105C88.1935 67.742 88.4424 67.5443 88.6673 67.3211C88.7783 67.2075 88.8821 67.0872 88.9783 66.9609C89.0584 66.8645 89.1314 66.7623 89.1966 66.6553C89.4466 66.2296 89.6655 65.7864 89.8515 65.3291C90.1701 64.543 90.4256 63.7328 90.6155 62.9061C90.9452 61.4142 91.1659 59.9004 91.2759 58.3765C91.3897 56.8931 91.4189 55.4045 91.3632 53.9178C91.3477 53.4951 91.1803 53.0921 90.8916 52.7829C90.603 52.4737 90.2125 52.279 89.7918 52.2345C89.3711 52.1901 88.9485 52.2989 88.6016 52.5409C88.2547 52.783 88.0067 53.142 87.9032 53.5522V53.6122C87.2936 56.235 86.5115 58.8146 85.562 61.3344C85.352 61.8709 85.0983 62.3892 84.8035 62.8842C84.6946 63.0758 84.5705 63.2583 84.4324 63.43C84.3942 63.4846 84.4324 63.3809 84.4924 63.3372C84.5328 63.2818 84.5765 63.229 84.6234 63.1789C84.7196 63.0751 84.8298 62.9851 84.9508 62.9115C85.1735 62.7638 85.4277 62.6703 85.693 62.6387C85.9498 62.6075 86.2104 62.6317 86.457 62.7096C86.6863 62.7587 87.0628 63.048 86.8118 62.8351L86.1569 62.213C85.7258 61.7873 85.2892 61.3289 84.869 60.865C83.1608 58.8539 81.5978 56.7238 80.192 54.4908C79.4716 53.3557 78.7567 52.1988 78.0691 51.0363C77.3815 49.8739 76.6829 48.6515 76.0717 47.5491L76.0281 47.4727C75.5938 46.6462 74.8491 46.0261 73.9577 45.7488C73.0663 45.4714 72.1012 45.5595 71.2747 45.9938C70.4483 46.428 69.8281 47.1727 69.5508 48.0641C69.2734 48.9556 69.3616 49.9206 69.7958 50.7471L69.7739 50.7362Z" fill="#263238"/>
<path opacity="0.3" d="M79.4152 60.2932C79.7525 61.9094 79.9353 63.554 79.9609 65.2048C79.7808 65.0302 79.6117 64.8556 79.4425 64.6591C78.1005 63.2888 76.8516 61.8302 75.7042 60.2932C75.2276 59.6674 74.7692 59.0308 74.329 58.3831C74.0561 57.6901 73.7832 56.997 73.5758 56.293C73.4994 56.0583 73.4285 55.8346 73.3576 55.5999C75.1312 54.7158 78.351 55.5835 79.4152 60.2932Z" fill="black"/>
<path d="M88.3477 52.1457L88.7898 49.3242L92.2988 50.9614C92.034 51.8922 91.6794 52.7951 91.2401 53.6574C91.1391 53.8598 90.9916 54.0353 90.8095 54.1696C90.6275 54.3039 90.4162 54.3931 90.193 54.4299C89.9698 54.4666 89.7411 54.4499 89.5256 54.3811C89.3101 54.3122 89.114 54.1933 88.9535 54.0339C88.7061 53.7925 88.5215 53.4942 88.4159 53.1651C88.3103 52.8359 88.2869 52.486 88.3477 52.1457Z" fill="#FFB573"/>
<path d="M90.7652 47.4297L93.3848 49.2361L92.2988 50.9388L88.7897 49.3234L90.7652 47.4297Z" fill="#FFB573"/>
<path d="M81.3781 176.252L85.291 175.357L83.7193 166.172L79.8064 167.067L81.3781 176.252Z" fill="#FFB573"/>
<path d="M85.3937 174.855L80.9951 175.864C80.958 175.871 80.9227 175.885 80.8911 175.905C80.8594 175.926 80.8322 175.952 80.8108 175.983C80.7895 176.014 80.7745 176.049 80.7668 176.086C80.7591 176.122 80.7588 176.16 80.7659 176.197L81.3498 179.728C81.3903 179.912 81.502 180.073 81.6604 180.175C81.8188 180.277 82.0112 180.313 82.1957 180.274C83.7183 179.892 84.4277 179.636 86.3651 179.183C87.5548 178.91 90.862 178.282 92.5046 177.906C94.1473 177.529 93.7271 175.914 92.9958 175.925C89.7214 175.985 87.4238 175.553 86.1195 174.937C85.8934 174.829 85.638 174.801 85.3937 174.855Z" fill="#263238"/>
<path opacity="0.2" d="M79.8071 167.072L83.7255 166.172L84.5332 170.909L80.6148 171.804L79.8071 167.072Z" fill="black"/>
<path d="M69.5285 81.1367C69.5285 81.1367 75.9954 108.041 77.9328 119.398C80.0502 131.83 85.9551 169.398 85.9551 169.398L78.7841 171.036C78.7841 171.036 69.8341 135.219 66.6197 123.164C63.127 110.066 55.8906 94.2398 55.8906 81.3878C60.2237 81.3878 69.5285 81.1367 69.5285 81.1367Z" fill="#263238"/>
<path d="M78.4956 171.106L87.2383 169.103L87.0418 166.281L77.5952 168.895L78.4956 171.106Z" fill="#5E72E4"/>
<path d="M86.933 175.221C86.5737 175.293 86.2078 175.326 85.8415 175.32C85.8234 175.319 85.8056 175.314 85.7902 175.305C85.7747 175.295 85.7623 175.281 85.7542 175.265C85.7439 175.25 85.7384 175.232 85.7384 175.213C85.7384 175.195 85.7439 175.177 85.7542 175.161C85.8579 175.047 86.7911 174.037 87.315 174.113C87.3747 174.123 87.431 174.148 87.4787 174.185C87.5264 174.222 87.5639 174.271 87.5879 174.326C87.6339 174.405 87.6582 174.494 87.6582 174.586C87.6582 174.677 87.6339 174.766 87.5879 174.845C87.4214 175.044 87.1892 175.178 86.933 175.221ZM86.0762 175.129C86.8075 175.129 87.3205 174.97 87.4624 174.747C87.492 174.694 87.5076 174.635 87.5076 174.575C87.5076 174.514 87.492 174.455 87.4624 174.403C87.4505 174.376 87.4324 174.353 87.4096 174.335C87.3868 174.317 87.36 174.304 87.3314 174.299C87.0422 174.255 86.4637 174.736 86.0762 175.129Z" fill="#5E72E4"/>
<path d="M85.8766 175.316H85.8329C85.8176 175.313 85.8035 175.306 85.792 175.295C85.7805 175.285 85.772 175.271 85.7674 175.256C85.7674 175.212 85.4073 174.105 85.7183 173.619C85.7569 173.558 85.8091 173.508 85.8707 173.471C85.9322 173.434 86.0015 173.412 86.0731 173.406C86.1518 173.389 86.2339 173.4 86.3055 173.437C86.3771 173.474 86.4338 173.534 86.466 173.608C86.657 174.012 86.2586 174.961 85.9202 175.283L85.8766 175.316ZM86.0512 173.603C86.0144 173.61 85.9795 173.626 85.9485 173.647C85.9176 173.669 85.8913 173.696 85.8711 173.728C85.7354 174.152 85.7354 174.608 85.8711 175.032C86.1731 174.654 86.316 174.172 86.2695 173.69C86.2695 173.641 86.204 173.581 86.0676 173.597L86.0512 173.603Z" fill="#5E72E4"/>
<path d="M75.0793 48.3929C74.8591 47.7246 74.4633 47.1279 73.9333 46.6651C73.4034 46.2023 72.7587 45.8905 72.0668 45.7625C71.072 45.5437 70.0639 45.3906 69.0489 45.304C66.0049 45.184 62.9565 45.2387 59.9188 45.4678C58.3307 45.5769 56.7099 45.8007 55.4165 46.0135H55.3728C55.0347 46.0692 54.7113 46.1922 54.4216 46.3753C54.1319 46.5583 53.882 46.7976 53.6865 47.0791C53.4911 47.3605 53.3542 47.6784 53.2839 48.0137C53.2135 48.3491 53.2113 48.6952 53.2772 49.0314C54.3885 54.3916 55.1487 59.8187 55.5529 65.2779C56.0113 73.2184 55.7003 79.467 55.8858 81.3826L77.3659 80.9896C78.321 61.5724 76.4709 52.7861 75.0793 48.3929Z" fill="white"/>
<path d="M60.5251 45.0781C61.6166 49.2639 68.5146 56.6804 69.3496 68.3319C69.044 74.7224 69.3005 79.0829 68.5146 83.3614L55.3624 83.0121C55.1605 80.9875 56.6504 74.4768 55.6735 67.8789C54.7239 61.4829 53.376 52.7839 52.6119 48.8983C52.5456 48.5456 52.5495 48.1834 52.6233 47.8322C52.6972 47.4811 52.8396 47.148 53.0423 46.8519C53.2451 46.5559 53.5043 46.3028 53.805 46.107C54.1057 45.9113 54.4421 45.7768 54.7949 45.7112H54.844C56.2083 45.4874 57.9165 45.2473 59.5919 45.1382L60.5251 45.0781Z" fill="#263238"/>
<path opacity="0.2" d="M57.461 76.7201C57.4821 76.7197 57.5029 76.7145 57.5218 76.7051C57.5407 76.6957 57.5572 76.6821 57.5702 76.6655C58.9365 74.8609 60.0085 72.8513 60.7464 70.7115C60.7523 70.6943 60.7548 70.6761 60.7536 70.658C60.7524 70.6398 60.7476 70.6221 60.7395 70.6058C60.7314 70.5895 60.7201 70.575 60.7062 70.5632C60.6924 70.5514 60.6764 70.5424 60.6591 70.5369C60.6236 70.5266 60.5855 70.5305 60.5529 70.5478C60.5203 70.5652 60.4957 70.5945 60.4844 70.6297C59.7592 72.7412 58.7017 74.7234 57.3519 76.5018C57.3302 76.5307 57.3209 76.5671 57.326 76.6029C57.3311 76.6387 57.3502 76.6711 57.3792 76.6928C57.4035 76.709 57.4318 76.7184 57.461 76.7201Z" fill="white"/>
<path opacity="0.3" d="M55.8055 53.7956C56.7441 57.6158 56.4222 62.904 55.6418 67.7283C54.8395 62.3146 53.7535 55.2855 52.984 50.9305C53.8954 50.3084 55.0633 50.7504 55.8055 53.7956Z" fill="black"/>
<path d="M76.1801 48.4664C75.9369 47.7214 75.5042 47.0525 74.9244 46.5253C74.3446 45.9982 73.6376 45.6308 72.873 45.4594C71.438 45.2602 69.9933 45.1381 68.5453 45.0938C69.7677 49.0558 69.0528 60.6526 68.5125 69.8046C70.1497 74.4215 70.0242 77.8105 70.0515 83.3607L79.0507 82.5748C80.033 62.2134 77.5281 52.1665 76.1801 48.4664Z" fill="#263238"/>
<path d="M68.6191 45.2735C65.9505 44.695 65.4539 43.0905 65.6012 41.2569C65.6343 40.8041 65.6962 40.3538 65.7868 39.9089L62.4087 37.1802L59.931 35.1992C60.6623 38.1244 61.5246 43.4726 59.5709 45.4699C59.5709 45.4699 61.2681 48.1495 65.8031 47.8221C69.6396 47.571 68.6191 45.2735 68.6191 45.2735Z" fill="#FFB573"/>
<path d="M64.6317 47.1758L65.3848 47.8743L63.0599 48.753L63.3383 47.8634L64.6317 47.1758Z" fill="#E0E0E0"/>
<path d="M63.7928 49.9499C63.7928 49.9499 63.7928 47.6632 64.6387 47.1721C62.9052 46.7583 61.3134 45.8898 60.0272 44.6562L58.6465 45.202C58.6465 45.202 59.154 47.8433 63.7928 49.9499Z" fill="#F5F5F5"/>
<path d="M65.9146 46.9922L65.3852 47.8708L67.8574 48.0837L67.3444 47.3033L65.9146 46.9922Z" fill="#E0E0E0"/>
<path d="M68.0189 49.4831C67.8925 48.9308 67.6358 48.4168 67.2703 47.9839C66.9048 47.551 66.4411 47.2117 65.9178 46.9945C67.2494 46.5961 67.2876 44.7461 67.2876 44.7461L68.5919 44.9971C68.5919 44.9971 69.929 47.4639 68.0189 49.4831Z" fill="#F5F5F5"/>
<path opacity="0.2" d="M65.7812 39.9084C65.6904 40.3533 65.6284 40.8035 65.5957 41.2564C64.3514 41.0272 62.6706 39.7392 62.4741 38.4731C62.4026 38.0552 62.3788 37.6304 62.4032 37.207L65.7812 39.9084Z" fill="black"/>
<path d="M70.3405 26.5352C70.7296 27.2555 70.9177 28.0673 70.885 28.8854C70.8524 29.7035 70.6002 30.4978 70.1549 31.1848L67.4808 27.8558L70.3405 26.5352Z" fill="#263238"/>
<path d="M59.5525 30.2296C59.7436 34.2243 59.6508 36.5601 61.6318 38.7048C62.2681 39.4062 63.0837 39.9205 63.9909 40.1923C64.898 40.4641 65.8621 40.4831 66.7792 40.2472C67.6963 40.0113 68.5316 39.5295 69.195 38.8538C69.8584 38.1781 70.3247 37.334 70.5436 36.4127C71.4441 32.8764 70.9857 26.9388 67.1164 25.1651C66.2885 24.7596 65.3685 24.5788 64.4487 24.6408C63.5289 24.7028 62.6415 25.0054 61.8755 25.5183C61.1095 26.0312 60.4916 26.7364 60.0839 27.5633C59.6763 28.3901 59.493 29.3096 59.5525 30.2296Z" fill="#FFB573"/>
<path d="M57.0958 26.1139C58.8203 20.5911 76.0164 17.7369 69.3475 27.0798L62.0347 26.0811L61.7618 27.9585C61.3894 29.4274 60.889 30.8609 60.2665 32.2425L60.5721 33.9397L60.2556 36.7011C60.2556 36.7011 57.2159 33.3285 55.6769 31.7295C53.3739 29.3501 55.7096 25.9775 57.0958 26.1139Z" fill="#263238"/>
<path d="M70.1965 27.2053C68.2864 28.6133 63.293 28.8808 63.293 28.8808C63.6344 28.1428 64.1585 27.5042 64.8156 27.0252C62.8127 28.3241 61.0336 29.8194 57.6883 29.9449C58.1358 28.7092 58.8301 27.5775 59.7289 26.6187C60.6277 25.6598 61.7122 24.8939 62.9164 24.3675C66.9439 22.5611 73.782 24.5694 70.1965 27.2053Z" fill="#263238"/>
<path d="M57.8956 21.2227C57.8956 21.2227 58.6378 21.7247 58.8069 23.4711C58.9761 25.2174 57.208 27.4713 57.208 27.4713L56.7714 26.3526C58.4249 24.2187 57.8956 21.2227 57.8956 21.2227Z" fill="#263238"/>
<path d="M58.4343 33.2417C58.7752 34.0375 59.3806 34.6911 60.148 35.0918C61.1248 35.572 61.6433 34.6879 61.3922 33.6074C61.1685 32.636 60.3826 31.2171 59.3894 31.1843C58.3961 31.1516 58.0087 32.2376 58.4343 33.2417Z" fill="#FFB573"/>
<path d="M65.6577 31.714C65.6577 32.036 65.8214 32.3089 66.0288 32.3198C66.2362 32.3307 66.4163 32.0742 66.4217 31.7467C66.4272 31.4193 66.258 31.1519 66.0452 31.141C65.8324 31.1301 65.6632 31.3702 65.6577 31.714Z" fill="#263238"/>
<path d="M69.2848 31.9133C69.2848 32.2408 69.4485 32.5082 69.6614 32.5191C69.8742 32.53 70.0488 32.2735 70.0488 31.9734C70.0488 31.6732 69.8851 31.3785 69.6777 31.3676C69.4704 31.3567 69.3175 31.5641 69.2848 31.9133Z" fill="#263238"/>
<path d="M68.0641 31.9141C68.4366 32.9267 68.9432 33.8848 69.5703 34.7628C69.3438 34.9106 69.0875 35.0068 68.8197 35.0445C68.5518 35.0822 68.279 35.0606 68.0204 34.9811L68.0641 31.9141Z" fill="#ED893E"/>
<path d="M66.6815 35.7909C66.3098 35.7342 65.9536 35.6024 65.6346 35.4035C65.3156 35.2046 65.0404 34.9427 64.826 34.6339C64.8131 34.6127 64.8088 34.5874 64.8139 34.5631C64.8189 34.5388 64.833 34.5173 64.8533 34.5029C64.8639 34.4961 64.8758 34.4915 64.8883 34.4895C64.9008 34.4875 64.9135 34.488 64.9258 34.4911C64.9381 34.4941 64.9496 34.4997 64.9596 34.5073C64.9697 34.515 64.9781 34.5247 64.9842 34.5357C65.2277 34.8609 65.5407 35.1277 65.9004 35.3165C66.2602 35.5054 66.6575 35.6115 67.0635 35.6272C67.0891 35.6299 67.1127 35.642 67.1298 35.6611C67.147 35.6803 67.1564 35.7051 67.1562 35.7308C67.1536 35.755 67.142 35.7772 67.1239 35.7933C67.1058 35.8095 67.0823 35.8183 67.058 35.8182C66.932 35.818 66.8062 35.8089 66.6815 35.7909Z" fill="#263238"/>
<path d="M64.0018 30.3206C63.97 30.315 63.9401 30.3019 63.9145 30.2824C63.8756 30.2504 63.8509 30.2044 63.8458 30.1543C63.8407 30.1042 63.8556 30.0542 63.8872 30.015C64.0689 29.7772 64.3063 29.5876 64.5784 29.4629C64.8506 29.3383 65.1492 29.2824 65.448 29.3001C65.4751 29.2998 65.5019 29.3054 65.5267 29.3163C65.5514 29.3272 65.5736 29.3433 65.5917 29.3634C65.6098 29.3836 65.6234 29.4073 65.6316 29.4331C65.6398 29.4589 65.6425 29.4862 65.6394 29.5131C65.6362 29.54 65.6274 29.5659 65.6135 29.5891C65.5996 29.6124 65.5809 29.6324 65.5587 29.6479C65.5365 29.6633 65.5112 29.6739 65.4846 29.6789C65.458 29.6838 65.4306 29.6831 65.4043 29.6766C65.1719 29.6642 64.9398 29.7072 64.7273 29.802C64.5147 29.8969 64.3278 30.041 64.1819 30.2224C64.1654 30.2551 64.1394 30.2821 64.1072 30.2996C64.075 30.3172 64.0382 30.3245 64.0018 30.3206Z" fill="#263238"/>
<path d="M70.9179 30.7525C70.8871 30.7473 70.8581 30.7346 70.8334 30.7156C70.8086 30.6966 70.7889 30.6718 70.776 30.6434C70.6781 30.4161 70.5284 30.2148 70.3389 30.0556C70.1494 29.8964 69.9253 29.7837 69.6845 29.7265C69.66 29.7226 69.6365 29.7138 69.6154 29.7006C69.5944 29.6874 69.5762 29.6701 69.5619 29.6497C69.5477 29.6294 69.5377 29.6064 69.5325 29.5821C69.5273 29.5578 69.527 29.5326 69.5317 29.5082C69.5398 29.4584 69.5673 29.4137 69.6082 29.384C69.6491 29.3544 69.7001 29.3421 69.75 29.35C70.0462 29.4227 70.3216 29.563 70.5545 29.76C70.7874 29.9569 70.9716 30.2051 71.0925 30.4851C71.1066 30.5164 71.112 30.5508 71.1082 30.5849C71.1044 30.6189 71.0914 30.6513 71.0708 30.6786C71.0501 30.706 71.0225 30.7273 70.9908 30.7403C70.9591 30.7533 70.9245 30.7575 70.8906 30.7525H70.9179Z" fill="#263238"/>
<path d="M51.9993 48.0806C51.6337 48.8992 51.3226 49.6414 51.0225 50.4218C50.7223 51.2022 50.4221 51.9771 50.1384 52.7575C49.5926 54.3183 49.0469 55.9064 48.6103 57.5163C47.6306 60.7992 46.9978 64.1757 46.7221 67.5906C46.5392 70.8897 46.5392 74.1965 46.7221 77.4957C46.8803 80.7701 47.1368 83.9735 47.5679 87.2097C47.6251 87.6342 47.8352 88.0232 48.159 88.3037C48.4827 88.5841 48.8977 88.7366 49.326 88.7326C49.7543 88.7286 50.1664 88.5683 50.4848 88.2818C50.8032 87.9954 51.0061 87.6025 51.0552 87.177C51.4099 83.9899 51.6883 80.7919 51.9775 77.6212C52.1194 76.0349 52.2722 74.4577 52.4359 72.8897C52.5833 71.3234 52.7797 69.768 52.9816 68.2891C53.5046 65.3227 54.2638 62.4028 55.2519 59.5574C55.7431 58.1002 56.2506 56.6377 56.7909 55.1915C57.3311 53.7453 57.9096 52.2609 58.4281 50.8911L58.4608 50.8147C58.7759 49.9627 58.75 49.0219 58.3883 48.1885C58.0267 47.3551 57.3574 46.6935 56.5199 46.3417C55.6824 45.9898 54.7413 45.9747 53.893 46.2997C53.0447 46.6247 52.3546 47.2646 51.9666 48.086L51.9993 48.0806Z" fill="#263238"/>
<path d="M51.0036 86.9381L53.2793 88.0296L49.4209 89.4103C49.4209 89.4103 46.8069 88.5862 48.0348 87.1455L48.7224 86.9272C49.8412 86.5506 50.3924 86.5888 51.0036 86.9381Z" fill="#FFB573"/>
<path d="M54.5859 90.4706L50.5093 91.251L49.4233 89.3846L53.2816 88.0039L54.5859 90.4706Z" fill="#FFB573"/>
<path d="M26.7406 0.0078125H17.4902V0.316619H26.7406V0.0078125Z" fill="#407BFF" fill-opacity="0.18"/>
<path d="M12.3726 1.63233L12.1465 1.42003C12.5707 0.968585 13.0835 0.609483 13.6528 0.365165C14.2221 0.120846 14.8356 -0.00343961 15.4551 7.24057e-05V0.306121C14.8777 0.302882 14.3058 0.419014 13.7753 0.647233C13.2449 0.875452 12.7673 1.21083 12.3726 1.63233Z" fill="#407BFF" fill-opacity="0.18"/>
<path d="M15.4664 1.08216H33.151C34.1473 1.09843 35.1017 1.48589 35.8273 2.16872C36.553 2.85154 36.9977 3.78059 37.0745 4.77405L37.7445 15.3617L37.9596 18.7971L34.309 15.3644H16.3707C15.3752 15.3482 14.4215 14.961 13.6964 14.2787C12.9712 13.5964 12.5268 12.668 12.45 11.6753L12.0144 4.78232C11.9773 4.30792 12.0392 3.831 12.1962 3.38181C12.3533 2.93263 12.602 2.52101 12.9266 2.17307C13.2512 1.82514 13.6446 1.54849 14.0818 1.36069C14.519 1.17289 14.9905 1.07804 15.4664 1.08216Z" fill="#407BFF" fill-opacity="0.18"/>
<path d="M16.401 6.13988H33.1124C33.1916 6.14047 33.27 6.12466 33.3427 6.09346C33.4155 6.06226 33.481 6.01633 33.5351 5.95858C33.5892 5.90082 33.6308 5.83249 33.6573 5.75787C33.6837 5.68326 33.6944 5.60398 33.6887 5.52503C33.675 5.35941 33.6003 5.20478 33.479 5.09116C33.3578 4.97753 33.1986 4.91303 33.0325 4.91017H16.3238C16.2447 4.90959 16.1663 4.92539 16.0935 4.95659C16.0208 4.9878 15.9553 5.03372 15.9011 5.09148C15.847 5.14923 15.8054 5.21757 15.779 5.29218C15.7526 5.3668 15.7419 5.44608 15.7476 5.52503C15.7606 5.69041 15.8347 5.84501 15.9555 5.95869C16.0763 6.07237 16.2352 6.13696 16.401 6.13988Z" fill="white"/>
<path d="M16.5884 8.97585H33.2998C33.3789 8.97644 33.4574 8.96063 33.5301 8.92943C33.6029 8.89822 33.6684 8.8523 33.7225 8.79454C33.7766 8.73679 33.8182 8.66845 33.8446 8.59384C33.8711 8.51922 33.8817 8.43995 33.876 8.361C33.863 8.19515 33.7885 8.04016 33.6671 7.92642C33.5457 7.81267 33.3862 7.74838 33.2198 7.74614H16.5057C16.4264 7.74514 16.3478 7.76066 16.2749 7.79172C16.2019 7.82278 16.1363 7.8687 16.082 7.92654C16.0278 7.98439 15.9863 8.0529 15.96 8.1277C15.9337 8.2025 15.9233 8.28195 15.9294 8.361C15.9425 8.52731 16.0175 8.68268 16.1394 8.7965C16.2614 8.91031 16.4216 8.9743 16.5884 8.97585Z" fill="white"/>
<path d="M22.4549 11.8106H33.4837C33.5631 11.8112 33.6418 11.7953 33.7147 11.764C33.7877 11.7326 33.8533 11.6864 33.9075 11.6284C33.9617 11.5703 34.0032 11.5016 34.0294 11.4267C34.0557 11.3517 34.0661 11.2722 34.06 11.193C34.0476 11.0274 33.9736 10.8724 33.8527 10.7586C33.7317 10.6448 33.5726 10.5804 33.4065 10.5781H22.3805C22.3013 10.5776 22.2229 10.5934 22.1502 10.6246C22.0774 10.6558 22.0119 10.7017 21.9578 10.7594C21.9037 10.8172 21.8621 10.8855 21.8356 10.9602C21.8092 11.0348 21.7985 11.114 21.8042 11.193C21.8159 11.3586 21.8892 11.5139 22.0096 11.6282C22.13 11.7425 22.2889 11.8076 22.4549 11.8106Z" fill="white"/>
<path d="M21.7407 18.7971H4.05604C3.58041 18.7915 3.10881 18.885 2.67122 19.0714C2.23363 19.2579 1.83961 19.5334 1.51419 19.8803C1.18878 20.2273 0.939084 20.6381 0.780971 21.0867C0.622858 21.5353 0.559786 22.0119 0.595762 22.4862L1.09206 30.2505L1.30712 33.6832L4.52477 30.2505H22.4631C22.9386 30.2553 23.41 30.1612 23.8472 29.9743C24.2845 29.7873 24.6782 29.5115 25.0032 29.1644C25.3283 28.8173 25.5777 28.4065 25.7356 27.9579C25.8936 27.5093 25.9565 27.0328 25.9206 26.5586L25.6642 22.4862C25.5874 21.4931 25.1425 20.5643 24.4168 19.8819C23.6911 19.1996 22.7367 18.8127 21.7407 18.7971Z" fill="#407BFF" fill-opacity="0.18"/>
<path opacity="0.5" d="M21.7407 18.7971H4.05604C3.58041 18.7915 3.10881 18.885 2.67122 19.0714C2.23363 19.2579 1.83961 19.5334 1.51419 19.8803C1.18878 20.2273 0.939084 20.6381 0.780971 21.0867C0.622858 21.5353 0.559786 22.0119 0.595762 22.4862L1.09206 30.2505L1.30712 33.6832L4.52477 30.2505H22.4631C22.9386 30.2553 23.41 30.1612 23.8472 29.9743C24.2845 29.7873 24.6782 29.5115 25.0032 29.1644C25.3283 28.8173 25.5777 28.4065 25.7356 27.9579C25.8936 27.5093 25.9565 27.0328 25.9206 26.5586L25.6642 22.4862C25.5874 21.4931 25.1425 20.5643 24.4168 19.8819C23.6911 19.1996 22.7367 18.8127 21.7407 18.7971Z" fill="white"/>
<path d="M21.4433 23.8547H4.72917C4.56331 23.8518 4.40448 23.7872 4.28366 23.6735C4.16285 23.5599 4.08871 23.4052 4.07571 23.2399C4.07 23.1609 4.0807 23.0816 4.10713 23.007C4.13355 22.9324 4.17514 22.8641 4.22927 22.8063C4.2834 22.7486 4.3489 22.7026 4.42165 22.6714C4.4944 22.6402 4.57281 22.6244 4.65197 22.625H21.3606C21.5269 22.6273 21.6864 22.6915 21.8078 22.8053C21.9292 22.919 22.0037 23.074 22.0168 23.2399C22.0225 23.3186 22.0119 23.3976 21.9856 23.4721C21.9593 23.5465 21.918 23.6147 21.8642 23.6724C21.8103 23.7301 21.7452 23.7761 21.6728 23.8075C21.6003 23.8388 21.5222 23.8549 21.4433 23.8547Z" fill="white"/>
<path d="M15.9306 26.6946H4.90185C4.73569 26.6917 4.57653 26.6272 4.45527 26.5136C4.334 26.4 4.25929 26.2453 4.24563 26.0797C4.23992 26.0008 4.25062 25.9215 4.27705 25.8469C4.30348 25.7723 4.34506 25.7039 4.39919 25.6462C4.45332 25.5884 4.51882 25.5425 4.59157 25.5113C4.66431 25.4801 4.74273 25.4643 4.82189 25.4649H15.8507C16.0169 25.4665 16.1764 25.5307 16.2975 25.6446C16.4186 25.7585 16.4924 25.9139 16.5041 26.0797C16.5098 26.1584 16.4992 26.2375 16.4729 26.3119C16.4467 26.3863 16.4053 26.4545 16.3515 26.5122C16.2977 26.57 16.2325 26.6159 16.1601 26.6473C16.0877 26.6787 16.0096 26.6948 15.9306 26.6946Z" fill="white"/>
<path d="M17.5329 33.6838H35.2148C36.2113 33.6994 37.166 34.0867 37.8918 34.7696C38.6176 35.4526 39.0621 36.382 39.1383 37.3756L39.6622 45.6472L39.88 49.0799L36.2295 45.6472H18.2884C17.2921 45.631 16.3378 45.2435 15.6121 44.5607C14.8864 43.8779 14.4417 42.9488 14.3649 41.9554L14.0754 37.3646C14.0411 36.8913 14.1053 36.416 14.2639 35.9688C14.4225 35.5215 14.6722 35.112 14.9971 34.7661C15.322 34.4202 15.7151 34.1454 16.1516 33.9591C16.588 33.7729 17.0584 33.6791 17.5329 33.6838Z" fill="#407BFF" fill-opacity="0.18"/>
<path d="M25.4236 39.2285C25.4491 39.5782 25.6049 39.9056 25.8601 40.1461C26.1154 40.3865 26.4515 40.5225 26.8022 40.5271C26.9697 40.5291 27.1357 40.4963 27.2898 40.4306C27.4439 40.365 27.5827 40.2681 27.6973 40.1459C27.8119 40.0238 27.8998 39.8792 27.9555 39.7212C28.0112 39.5633 28.0335 39.3955 28.0209 39.2285C27.9941 38.8792 27.838 38.5524 27.583 38.3122C27.328 38.072 26.9925 37.9357 26.6423 37.9298C26.4747 37.9274 26.3084 37.96 26.1541 38.0254C25.9998 38.0909 25.8609 38.1879 25.7462 38.3101C25.6315 38.4323 25.5436 38.5771 25.488 38.7352C25.4325 38.8934 25.4105 39.0614 25.4236 39.2285Z" fill="white"/>
<path d="M21.0935 39.6659C21.119 40.0157 21.2748 40.3431 21.53 40.5836C21.7853 40.824 22.1215 40.96 22.4721 40.9646C22.6395 40.9666 22.8054 40.9337 22.9594 40.8681C23.1133 40.8025 23.2519 40.7054 23.3663 40.5833C23.4807 40.4611 23.5684 40.3164 23.6238 40.1585C23.6792 40.0005 23.7011 39.8328 23.688 39.6659C23.6613 39.3166 23.5051 38.9899 23.2501 38.7497C22.9952 38.5095 22.6597 38.3731 22.3094 38.3673C22.1421 38.3652 21.9761 38.3981 21.8222 38.4637C21.6682 38.5294 21.5296 38.6264 21.4152 38.7486C21.3008 38.8707 21.2131 39.0154 21.1577 39.1734C21.1023 39.3313 21.0805 39.4991 21.0935 39.6659Z" fill="white"/>
<path d="M29.8472 40.3182C29.8739 40.6675 30.0301 40.9942 30.2851 41.2344C30.5401 41.4746 30.8755 41.611 31.2258 41.6169C31.3931 41.6189 31.5591 41.5861 31.7131 41.5204C31.867 41.4548 32.0056 41.3578 32.12 41.2356C32.2344 41.1134 32.3221 40.9687 32.3775 40.8108C32.4329 40.6528 32.4547 40.4851 32.4417 40.3182C32.4162 39.9685 32.2604 39.641 32.0052 39.4006C31.7499 39.1601 31.4137 39.0242 31.0631 39.0196C30.8959 39.018 30.7301 39.0511 30.5763 39.1169C30.4226 39.1827 30.2842 39.2797 30.1699 39.4018C30.0555 39.5239 29.9678 39.6684 29.9123 39.8261C29.8567 39.9839 29.8346 40.1515 29.8472 40.3182Z" fill="white"/>
</svg>
