<svg width="16" height="16" viewBox="0 0 16 16" fill="none" xmlns="http://www.w3.org/2000/svg">
<path d="M8.00282 0.265625L0.269531 5.33226V15.7322H2.40285V8.53224H13.6028V15.7322H15.7361V5.33226L8.00282 0.265625Z" fill="white"/>
<path d="M13.6055 12.5539V15.7304H15.7388V9.05469C15.2345 10.3483 14.5084 11.5301 13.6055 12.5539Z" fill="white"/>
<path d="M6.66797 4.80207C6.66797 5.53727 7.2661 6.1354 8.00129 6.1354C8.73649 6.1354 9.33462 5.53727 9.33462 4.80207C9.33462 4.06688 8.73649 3.46875 8.00129 3.46875C7.2661 3.46875 6.66797 4.06688 6.66797 4.80207ZM8.00129 4.00208C8.44236 4.00208 8.80129 4.36101 8.80129 4.80207C8.80129 5.24314 8.44236 5.60207 8.00129 5.60207C7.56023 5.60207 7.2013 5.24314 7.2013 4.80207C7.2013 4.36101 7.56023 4.00208 8.00129 4.00208Z" fill="black"/>
<path d="M15.8794 5.11003L8.14608 0.0433997C8.05755 -0.0144666 7.94235 -0.0144666 7.85382 0.0433997L0.120533 5.11003C0.045333 5.15963 0 5.24337 0 5.33323V15.7332C0 15.8806 0.119199 15.9998 0.266665 15.9998H2.39999C2.54745 15.9998 2.66665 15.8806 2.66665 15.7332V8.79988H13.3333V15.7332C13.3333 15.8806 13.4524 15.9998 13.5999 15.9998H15.7332C15.8807 15.9998 15.9999 15.8806 15.9999 15.7332V5.33323C15.9999 5.24337 15.9546 5.15963 15.8794 5.11003ZM15.4666 6.39989H12.2666V6.93322H15.4666V15.4665H13.8666V8.53321C13.8666 8.38575 13.7474 8.26655 13.5999 8.26655H2.39999C2.25252 8.26655 2.13332 8.38575 2.13332 8.53321V15.4665H0.53333V6.93322H3.73331V6.39989H0.53333V5.47723L7.99995 0.585263L15.4666 5.47723V6.39989Z" fill="#D2D2D2"/>
<path d="M11.7286 6.39844H11.1953V6.93177H11.7286V6.39844Z" fill="black"/>
<path d="M4.80286 6.39844H4.26953V6.93177H4.80286V6.39844Z" fill="black"/>
<path d="M5.74818 12.1455H5.63635V11.9219H5.4127V12.1455H5.18904V11.9219H4.96539V12.1455H4.85356C4.60642 12.1455 4.40625 12.3457 4.40625 12.5928V13.7111C4.40625 13.9582 4.60642 14.1584 4.85356 14.1584H5.74818C5.99532 14.1584 6.19549 13.9582 6.19549 13.7111V12.5928C6.19549 12.3457 5.99532 12.1455 5.74818 12.1455ZM5.30087 13.7111C5.14655 13.7111 5.0213 13.5881 5.0213 13.436C5.0213 13.3141 5.06939 13.2806 5.30087 13.0122C5.53011 13.2783 5.58044 13.3141 5.58044 13.436C5.58044 13.5881 5.45519 13.7111 5.30087 13.7111ZM5.74818 12.8165H4.85356V12.5928H5.74818V12.8165Z" fill="white"/>
<path d="M5.75009 11.6953H4.85547V11.919H5.75009V11.6953Z" fill="white"/>
<path d="M7.62708 12.1455H7.51526V11.9219H7.2916V12.1455H7.06795V11.9219H6.84429V12.1455H6.73247C6.48533 12.1455 6.28516 12.3457 6.28516 12.5928V13.7111C6.28516 13.9582 6.48533 14.1584 6.73247 14.1584H7.62708C7.87422 14.1584 8.07439 13.9582 8.07439 13.7111V12.5928C8.07439 12.3457 7.87422 12.1455 7.62708 12.1455ZM7.17977 13.7111C7.02545 13.7111 6.90021 13.5881 6.90021 13.436C6.90021 13.3141 6.94829 13.2806 7.17977 13.0122C7.40902 13.2783 7.45934 13.3141 7.45934 13.436C7.45934 13.5881 7.3341 13.7111 7.17977 13.7111ZM7.62708 12.8165H6.73247V12.5928H7.62708V12.8165Z" fill="white"/>
<path d="M7.62118 11.6953H6.72656V11.919H7.62118V11.6953Z" fill="white"/>
<path d="M7.62708 9.6299H7.51526V9.40625H7.2916V9.6299H7.06795V9.40625H6.84429V9.6299H6.73247C6.48533 9.6299 6.28516 9.83008 6.28516 10.0772V11.1955C6.28516 11.4426 6.48533 11.6428 6.73247 11.6428H7.62708C7.87422 11.6428 8.07439 11.4426 8.07439 11.1955V10.0772C8.07439 9.83008 7.87422 9.6299 7.62708 9.6299ZM7.17977 11.1955C7.02545 11.1955 6.90021 11.0725 6.90021 10.9204C6.90021 10.7985 6.94829 10.765 7.17977 10.4966C7.40902 10.7627 7.45934 10.7985 7.45934 10.9204C7.45934 11.0725 7.3341 11.1955 7.17977 11.1955ZM7.62708 10.3009H6.73247V10.0772H7.62708V10.3009Z" fill="white"/>
<path d="M7.62118 9.17969H6.72656V9.40334H7.62118V9.17969Z" fill="white"/>
<path d="M9.4474 12.1455H9.33557V11.9219H9.11191V12.1455H8.88826V11.9219H8.66461V12.1455H8.55278C8.30564 12.1455 8.10547 12.3457 8.10547 12.5928V13.7111C8.10547 13.9582 8.30564 14.1584 8.55278 14.1584H9.4474C9.69453 14.1584 9.8947 13.9582 9.8947 13.7111V12.5928C9.8947 12.3457 9.69453 12.1455 9.4474 12.1455ZM9.00009 13.7111C8.84577 13.7111 8.72052 13.5881 8.72052 13.436C8.72052 13.3141 8.7686 13.2806 9.00009 13.0122C9.22933 13.2783 9.27965 13.3141 9.27965 13.436C9.27965 13.5881 9.15441 13.7111 9.00009 13.7111ZM9.4474 12.8165H8.55278V12.5928H9.4474V12.8165Z" fill="white"/>
<path d="M9.44931 11.6953H8.55469V11.919H9.44931V11.6953Z" fill="white"/>
<path d="M9.4474 9.6299H9.33557V9.40625H9.11191V9.6299H8.88826V9.40625H8.66461V9.6299H8.55278C8.30564 9.6299 8.10547 9.83008 8.10547 10.0772V11.1955C8.10547 11.4426 8.30564 11.6428 8.55278 11.6428H9.4474C9.69453 11.6428 9.8947 11.4426 9.8947 11.1955V10.0772C9.8947 9.83008 9.69453 9.6299 9.4474 9.6299ZM9.00009 11.1955C8.84577 11.1955 8.72052 11.0725 8.72052 10.9204C8.72052 10.7985 8.7686 10.765 9.00009 10.4966C9.22933 10.7627 9.27965 10.7985 9.27965 10.9204C9.27965 11.0725 9.15441 11.1955 9.00009 11.1955ZM9.4474 10.3009H8.55278V10.0772H9.4474V10.3009Z" fill="white"/>
<path d="M9.44931 9.17969H8.55469V9.40334H9.44931V9.17969Z" fill="white"/>
<path d="M11.3146 12.1455H11.2028V11.9219H10.9791V12.1455H10.7554V11.9219H10.5318V12.1455H10.42C10.1728 12.1455 9.97266 12.3457 9.97266 12.5928V13.7111C9.97266 13.9582 10.1728 14.1584 10.42 14.1584H11.3146C11.5617 14.1584 11.7619 13.9582 11.7619 13.7111V12.5928C11.7619 12.3457 11.5617 12.1455 11.3146 12.1455ZM10.8673 13.7111C10.713 13.7111 10.5877 13.5881 10.5877 13.436C10.5877 13.3141 10.6358 13.2806 10.8673 13.0122C11.0965 13.2783 11.1468 13.3141 11.1468 13.436C11.1468 13.5881 11.0216 13.7111 10.8673 13.7111ZM11.3146 12.8165H10.42V12.5928H11.3146V12.8165Z" fill="white"/>
<path d="M11.3087 11.6953H10.4141V11.919H11.3087V11.6953Z" fill="white"/>
<path d="M11.8101 15.3839V15.6355H4.51333V15.3839H11.8101ZM5.01655 15.1323V14.629H5.26816V15.1323H5.01655ZM5.51978 15.1323V14.629H7.78428V15.1323H5.51978ZM8.03589 15.1323V14.629H8.2875V15.1323H8.03589ZM8.53911 15.1323V14.629H10.8036V15.1323H8.53911ZM11.0552 15.1323V14.629H11.3068V15.1323H11.0552ZM4.51333 14.3774V14.1258H11.8101V14.3774H4.51333Z" fill="white"/>
</svg>
