<svg width="16" height="16" viewBox="0 0 16 16" fill="none" xmlns="http://www.w3.org/2000/svg">
<g clip-path="url(#clip0_2095_57231)">
<path d="M8.0026 13.9008C7.90419 13.784 7.78929 13.6455 7.66167 13.4883C7.23061 12.9572 6.65669 12.214 6.08375 11.3649C5.50986 10.5143 4.94314 9.56637 4.52141 8.625C4.09674 7.67709 3.83594 6.77253 3.83594 5.9987C3.83594 3.69484 5.69875 1.83203 8.0026 1.83203C10.3065 1.83203 12.1693 3.69484 12.1693 5.9987C12.1693 6.77253 11.9085 7.67709 11.4838 8.625C11.0621 9.56637 10.4953 10.5143 9.92145 11.3649C9.34852 12.214 8.7746 12.9572 8.34354 13.4883C8.21592 13.6455 8.10102 13.784 8.0026 13.9008ZM5.83594 5.9987C5.83594 7.19484 6.80646 8.16536 8.0026 8.16536C9.19875 8.16536 10.1693 7.19484 10.1693 5.9987C10.1693 4.80256 9.19875 3.83203 8.0026 3.83203C6.80646 3.83203 5.83594 4.80256 5.83594 5.9987Z" stroke="#5E72E4"/>
</g>
<defs>
<clipPath id="clip0_2095_57231">
<rect width="16" height="16" fill="white"/>
</clipPath>
</defs>
</svg>
