<svg width="32" height="32" viewBox="0 0 32 32" fill="none" xmlns="http://www.w3.org/2000/svg">
<path d="M16.5334 14.666C14.7638 14.666 13.3334 16.0964 13.3334 17.866C13.3334 19.6356 14.7638 21.066 16.5334 21.066C18.303 21.066 19.7334 19.6356 19.7334 17.866C19.7334 16.0964 18.303 14.666 16.5334 14.666ZM16.5334 20.426C15.1222 20.426 13.9734 19.2772 13.9734 17.866C13.9734 16.4548 15.1222 15.306 16.5334 15.306C17.9446 15.306 19.0934 16.4548 19.0934 17.866C19.0934 19.2772 17.9446 20.426 16.5334 20.426ZM17.6822 16.266L16.5334 17.4148L15.3846 16.266L14.9334 16.7172L16.0822 17.866L14.9334 19.0148L15.3846 19.466L16.5334 18.3172L17.6822 19.466L18.1334 19.0148L16.9846 17.866L18.1334 16.7172L17.6822 16.266Z" fill="white"/>
<path d="M26.6693 11.1333V25.3333H25.6026V11.4667H6.40264V25.3333H5.33598V11.1333L16.0026 6.86667L26.6693 11.1333ZM29.336 28V9.33333L16.0026 4L2.66931 9.33333V28H9.06931V14.1333H16.0026H22.936V28H29.336Z" fill="white"/>
<g clip-path="url(#clip0_2349_10241)">
<path d="M19.3863 23.086H19.1577V22.6289H18.7006V23.086H18.2434V22.6289H17.7863V23.086H17.5577C17.0526 23.086 16.6434 23.4952 16.6434 24.0003V26.286C16.6434 26.7912 17.0526 27.2003 17.5577 27.2003H19.3863C19.8914 27.2003 20.3006 26.7912 20.3006 26.286V24.0003C20.3006 23.4952 19.8914 23.086 19.3863 23.086ZM18.472 26.286C18.1566 26.286 17.9006 26.0346 17.9006 25.7238C17.9006 25.4746 17.9989 25.406 18.472 24.8575C18.9406 25.4015 19.0434 25.4746 19.0434 25.7238C19.0434 26.0346 18.7874 26.286 18.472 26.286ZM19.3863 24.4575H17.5577V24.0003H19.3863V24.4575Z" fill="white"/>
<path d="M19.3863 22.1719H17.5577V22.629H19.3863V22.1719Z" fill="white"/>
</g>
<g clip-path="url(#clip1_2349_10241)">
<path d="M15.5009 23.086H15.2723V22.6289H14.8152V23.086H14.3581V22.6289H13.9009V23.086H13.6723C13.1672 23.086 12.7581 23.4952 12.7581 24.0003V26.286C12.7581 26.7912 13.1672 27.2003 13.6723 27.2003H15.5009C16.0061 27.2003 16.4152 26.7912 16.4152 26.286V24.0003C16.4152 23.4952 16.0061 23.086 15.5009 23.086ZM14.5866 26.286C14.2712 26.286 14.0152 26.0346 14.0152 25.7238C14.0152 25.4746 14.1135 25.406 14.5866 24.8575C15.0552 25.4015 15.1581 25.4746 15.1581 25.7238C15.1581 26.0346 14.9021 26.286 14.5866 26.286ZM15.5009 24.4575H13.6723V24.0003H15.5009V24.4575Z" fill="white"/>
<path d="M15.5009 22.1719H13.6724V22.629H15.5009V22.1719Z" fill="white"/>
</g>
<defs>
<clipPath id="clip0_2349_10241">
<rect width="5.48571" height="5.48571" fill="white" transform="translate(15.7291 21.9434)"/>
</clipPath>
<clipPath id="clip1_2349_10241">
<rect width="5.48571" height="5.48571" fill="white" transform="translate(11.8438 21.9434)"/>
</clipPath>
</defs>
</svg>
