<svg width="21" height="20" viewBox="0 0 21 20" fill="none" xmlns="http://www.w3.org/2000/svg">
<path d="M6.90774 19.7221H18.5473H20.3759V18.5265H19.1451V9.94626C19.1451 9.7001 19.0044 9.52428 18.7935 9.41878C18.5825 9.31329 18.3363 9.34845 18.1605 9.48911L13.3429 13.4979L13.3077 9.94626C13.3077 9.73527 13.1671 9.52428 12.9913 9.41878C12.7803 9.31329 12.5693 9.34845 12.3583 9.48911L7.50555 13.1111V6.67593C7.50555 6.35944 7.22423 6.07812 6.90774 6.07812H3.98906C3.67258 6.07812 3.42643 6.28911 3.39126 6.6056L1.98467 18.5265H0.789062V19.7221H2.51214H6.90774Z" fill="white"/>
<path d="M5.04475 5.69102C5.11508 5.72618 5.1854 5.72618 5.25573 5.72618C5.53705 5.72618 5.78321 5.55036 5.8887 5.26904C6.38101 3.79212 7.85793 3.58113 8.94804 3.82728C10.8469 4.28442 12.5349 4.46025 13.8711 1.89322C14.0469 1.57673 13.9063 1.15475 13.5898 1.01409C13.2733 0.83827 12.8513 0.978929 12.7107 1.29541C11.8667 2.913 11.1986 3.01849 9.26453 2.56135C7.50628 2.13937 5.39639 2.70201 4.65793 4.84706C4.51727 5.19871 4.6931 5.58552 5.04475 5.69102Z" fill="white"/>
</svg>
