<svg width="27" height="25" viewBox="0 0 27 25" fill="none" xmlns="http://www.w3.org/2000/svg">
<path d="M8.15539 25.0003H23.6694H26.1066V23.409H24.4662V11.9898C24.4662 11.6622 24.2787 11.4282 23.9975 11.2878C23.7162 11.1474 23.3882 11.1942 23.1538 11.3814L16.7326 16.7166L16.6857 11.9898C16.6857 11.709 16.4983 11.4282 16.2639 11.2878C15.9827 11.1474 15.7015 11.1942 15.4202 11.3814L8.95218 16.2018V7.6374C8.95218 7.2162 8.57722 6.8418 8.15539 6.8418H4.26517C3.84334 6.8418 3.51525 7.1226 3.46838 7.5438L1.59358 23.409H0V25.0003H2.29663H8.15539Z" fill="white"/>
<path d="M5.67404 6.32636C5.76778 6.37316 5.86152 6.37316 5.95526 6.37316C6.33022 6.37316 6.65831 6.13916 6.79892 5.76475C7.4551 3.79915 9.42365 3.51835 10.8766 3.84595C13.4076 4.45435 15.6574 4.68835 17.4384 1.27194C17.6728 0.85074 17.4853 0.289138 17.0635 0.101938C16.6416 -0.132063 16.0792 0.0551375 15.8917 0.476339C14.7668 2.62914 13.8763 2.76955 11.2984 2.16114C8.95495 1.59954 6.14274 2.34834 5.15847 5.20315C4.97099 5.67115 5.20534 6.18596 5.67404 6.32636Z" fill="white"/>
</svg>
