<svg width="53" height="53" viewBox="0 0 53 53" fill="none" xmlns="http://www.w3.org/2000/svg">
<rect width="53" height="53" rx="10" fill="url(#paint0_linear_7095_14873)"/>
<g clip-path="url(#clip0_7095_14873)">
<path d="M17.5722 32.2207C17.1014 32.2207 16.7243 31.8643 16.7243 31.4248C16.7243 30.9854 17.1066 30.6289 17.5722 30.6289H23.1612C23.632 30.6289 24.0091 30.9854 24.0091 31.4248C24.0091 31.8643 23.6294 32.2207 23.1612 32.2207H17.5722ZM26.8908 29.9136C26.6411 29.9136 26.4278 29.7134 26.4278 29.4692C26.4278 29.2349 26.6411 29.0347 26.8908 29.0347H28.1001C28.1105 29.0347 28.1365 29.0347 28.1469 29.0347C28.5735 29.0444 28.9532 29.1226 29.2731 29.313C29.6294 29.5254 29.8895 29.8477 30.0325 30.3262C30.0325 30.3359 30.0325 30.3481 30.0455 30.3604L30.1651 30.8047H40.5397C40.7997 30.8047 41.0026 31.0049 41.0026 31.2393C41.0026 31.2832 40.9896 31.3271 40.9792 31.3735L39.7698 35.9487C39.723 36.1489 39.5332 36.2832 39.3199 36.2832H31.7308C31.8973 36.8618 32.0637 37.1743 32.2874 37.3184C32.5605 37.4844 33.0338 37.4966 33.8296 37.4844H33.8401H39.2003C39.4603 37.4844 39.6632 37.6846 39.6632 37.9189C39.6632 38.1631 39.4499 38.3535 39.2003 38.3535H33.8375C32.8518 38.3633 32.2484 38.3413 31.762 38.041C31.2627 37.7285 31.0026 37.1963 30.7425 36.2271L29.1534 30.5801C29.1534 30.5679 29.1534 30.5679 29.143 30.5581C29.0728 30.314 28.9532 30.1455 28.7867 30.0576C28.6203 29.9575 28.3966 29.9136 28.1339 29.9136C28.1209 29.9136 28.1105 29.9136 28.0975 29.9136H26.8908ZM37.8114 38.8638C38.4408 38.8638 38.9506 39.3423 38.9506 39.9331C38.9506 40.5239 38.4408 41.0024 37.8114 41.0024C37.1821 41.0024 36.6723 40.5239 36.6723 39.9331C36.6723 39.3423 37.1821 38.8638 37.8114 38.8638ZM32.8179 38.8638C33.4473 38.8638 33.9571 39.3423 33.9571 39.9331C33.9571 40.5239 33.4473 41.0024 32.8179 41.0024C32.1886 41.0024 31.6788 40.5239 31.6788 39.9331C31.6788 39.3423 32.1912 38.8638 32.8179 38.8638ZM17.5722 19.1982C17.1014 19.1982 16.7243 18.8394 16.7243 18.4023C16.7243 17.9629 17.1066 17.6064 17.5722 17.6064H30.7113C31.1821 17.6064 31.5592 17.9629 31.5592 18.4023C31.5592 18.8418 31.1795 19.1982 30.7113 19.1982H17.5722ZM12.9688 11H35.2393C35.7828 11 36.277 11.2075 36.6307 11.5396C36.9844 11.8716 37.2055 12.3354 37.2055 12.8457V27.4893H35.515V12.853C35.515 12.7822 35.4837 12.7163 35.4343 12.6675C35.3823 12.6211 35.3121 12.5918 35.2367 12.5918H12.9688C12.8934 12.5918 12.8231 12.6211 12.7711 12.6675C12.7191 12.7139 12.6931 12.7822 12.6931 12.853V36.9424C12.6931 37.0132 12.7243 37.0791 12.7737 37.1279C12.8231 37.1768 12.8934 37.2036 12.9714 37.2036H27.2887C27.4473 37.7871 27.6268 38.2974 27.8687 38.7832H12.9688C12.4252 38.7832 11.9311 38.5757 11.5774 38.2437C11.2211 37.9141 11 37.4502 11 36.9399V12.8481C11 12.3379 11.2211 11.8716 11.5748 11.5396C11.9285 11.2075 12.4252 11 12.9688 11ZM17.5722 25.7095C17.1014 25.7095 16.7243 25.353 16.7243 24.9136C16.7243 24.4741 17.1066 24.1177 17.5722 24.1177H30.7113C31.1821 24.1177 31.5592 24.4741 31.5592 24.9136C31.5592 25.353 31.1795 25.7095 30.7113 25.7095H17.5722Z" fill="white"/>
</g>
<defs>
<linearGradient id="paint0_linear_7095_14873" x1="26.5" y1="0" x2="26.5" y2="53" gradientUnits="userSpaceOnUse">
<stop stop-color="#4FDBE3"/>
<stop offset="1" stop-color="#219FA7"/>
</linearGradient>
<clipPath id="clip0_7095_14873">
<rect width="30" height="30" fill="white" transform="translate(11 11)"/>
</clipPath>
</defs>
</svg>
