<svg width="31" height="25" viewBox="0 0 31 25" fill="none" xmlns="http://www.w3.org/2000/svg">
<path d="M13.367 4.454H12.2533V2.22656H10.0258V4.454H7.7984V2.22656H5.57097V4.454H4.45725C1.99593 4.454 0.00238037 6.44755 0.00238037 8.90887V20.046C0.00238037 22.5074 1.99593 24.5009 4.45725 24.5009H13.367C15.8283 24.5009 17.8219 22.5074 17.8219 20.046V8.90887C17.8219 6.44755 15.8283 4.454 13.367 4.454ZM8.91212 20.046C7.37519 20.046 6.12782 18.8209 6.12782 17.3063C6.12782 16.0923 6.60672 15.7582 8.91212 13.0853C11.1952 15.736 11.6964 16.0923 11.6964 17.3063C11.6964 18.8209 10.449 20.046 8.91212 20.046ZM13.367 11.1363H4.45725V8.90887H13.367V11.1363Z" fill="white"/>
<path d="M13.36 0H4.45026V2.22743H13.36V0Z" fill="white"/>
<path d="M27.8417 10.7721H27.0993V9.28711H25.6143V10.7721H24.1294V9.28711H22.6444V10.7721H21.9019C20.261 10.7721 18.932 12.1011 18.932 13.742V21.1668C18.932 22.8076 20.261 24.1367 21.9019 24.1367H27.8417C29.4826 24.1367 30.8117 22.8076 30.8117 21.1668V13.742C30.8117 12.1011 29.4826 10.7721 27.8417 10.7721ZM24.8718 21.1668C23.8472 21.1668 23.0156 20.35 23.0156 19.3403C23.0156 18.531 23.3349 18.3082 24.8718 16.5263C26.3939 18.2934 26.728 18.531 26.728 19.3403C26.728 20.35 25.8965 21.1668 24.8718 21.1668ZM27.8417 15.2269H21.9019V13.742H27.8417V15.2269Z" fill="white"/>
<path d="M27.837 7.79883H21.8972V9.28378H27.837V7.79883Z" fill="white"/>
</svg>
