<svg width="24" height="24" viewBox="0 0 24 24" fill="none" xmlns="http://www.w3.org/2000/svg">
<path d="M22.0756 6.01906C22.0052 5.93482 21.9172 5.86705 21.8177 5.82056C21.7183 5.77407 21.6098 5.74998 21.5 5.75H6.37625L5.91781 3.23187C5.85502 2.88625 5.67292 2.57363 5.40325 2.34851C5.13359 2.12339 4.79347 2.00005 4.44219 2H2.75C2.55109 2 2.36032 2.07902 2.21967 2.21967C2.07902 2.36032 2 2.55109 2 2.75C2 2.94891 2.07902 3.13968 2.21967 3.28033C2.36032 3.42098 2.55109 3.5 2.75 3.5H4.4375L6.83375 16.6522C6.90434 17.0422 7.07671 17.4067 7.33344 17.7087C6.97911 18.0397 6.72336 18.4623 6.59455 18.9298C6.46575 19.3972 6.46892 19.8912 6.60371 20.3569C6.73851 20.8226 6.99966 21.2419 7.35821 21.5683C7.71676 21.8947 8.1587 22.1154 8.63502 22.2059C9.11134 22.2965 9.60344 22.2533 10.0567 22.0813C10.51 21.9092 10.9068 21.615 11.2031 21.2312C11.4994 20.8474 11.6836 20.389 11.7353 19.907C11.787 19.4249 11.7041 18.9379 11.4959 18.5H15.7541C15.5863 18.8513 15.4995 19.2357 15.5 19.625C15.5 20.1442 15.654 20.6517 15.9424 21.0834C16.2308 21.5151 16.6408 21.8515 17.1205 22.0502C17.6001 22.2489 18.1279 22.3008 18.6371 22.1996C19.1463 22.0983 19.614 21.8483 19.9812 21.4812C20.3483 21.114 20.5983 20.6463 20.6996 20.1371C20.8008 19.6279 20.7489 19.1001 20.5502 18.6205C20.3515 18.1408 20.0151 17.7308 19.5834 17.4424C19.1517 17.154 18.6442 17 18.125 17H9.04719C8.87155 17 8.70149 16.9383 8.56665 16.8257C8.43182 16.7132 8.34077 16.5569 8.30938 16.3841L8.01219 14.75H18.8872C19.4141 14.7499 19.9243 14.5649 20.3288 14.2272C20.7333 13.8896 21.0064 13.4206 21.1006 12.9022L22.2406 6.63406C22.2599 6.52572 22.2551 6.41447 22.2266 6.30818C22.1981 6.2019 22.1466 6.10319 22.0756 6.01906ZM10.25 19.625C10.25 19.8475 10.184 20.065 10.0604 20.25C9.93679 20.435 9.76109 20.5792 9.55552 20.6644C9.34995 20.7495 9.12375 20.7718 8.90552 20.7284C8.68729 20.685 8.48684 20.5778 8.3295 20.4205C8.17217 20.2632 8.06502 20.0627 8.02162 19.8445C7.97821 19.6262 8.00049 19.4 8.08564 19.1945C8.17078 18.9889 8.31498 18.8132 8.49998 18.6896C8.68499 18.566 8.9025 18.5 9.125 18.5C9.42337 18.5 9.70952 18.6185 9.9205 18.8295C10.1315 19.0405 10.25 19.3266 10.25 19.625ZM19.25 19.625C19.25 19.8475 19.184 20.065 19.0604 20.25C18.9368 20.435 18.7611 20.5792 18.5555 20.6644C18.35 20.7495 18.1238 20.7718 17.9055 20.7284C17.6873 20.685 17.4868 20.5778 17.3295 20.4205C17.1722 20.2632 17.065 20.0627 17.0216 19.8445C16.9782 19.6262 17.0005 19.4 17.0856 19.1945C17.1708 18.9889 17.315 18.8132 17.5 18.6896C17.685 18.566 17.9025 18.5 18.125 18.5C18.4234 18.5 18.7095 18.6185 18.9205 18.8295C19.1315 19.0405 19.25 19.3266 19.25 19.625ZM19.625 12.6341C19.5935 12.8073 19.5021 12.964 19.3666 13.0766C19.2312 13.1893 19.0605 13.2506 18.8844 13.25H7.73938L6.64906 7.25H20.6009L19.625 12.6341Z" fill="white"/>
</svg>
