<svg width="32" height="29" viewBox="0 0 32 29" fill="none" xmlns="http://www.w3.org/2000/svg">
<path d="M11.545 19.9297C7.69259 19.9297 0.00219727 21.8631 0.00219727 25.7011V28.5868H23.0878V25.7011C23.0878 21.8631 15.3974 19.9297 11.545 19.9297Z" fill="white"/>
<path d="M27.3041 15.1427L26.5827 13.8875C26.5394 13.8009 26.4384 13.772 26.3662 13.8009L25.4717 14.1616C25.2841 14.0173 25.0821 13.9019 24.8657 13.8153L24.7358 12.863C24.7069 12.7765 24.6204 12.7188 24.5338 12.7188H23.091C23.0044 12.7188 22.9322 12.7765 22.9178 12.8775L22.788 13.8297C22.5715 13.9163 22.3695 14.0462 22.182 14.176L21.2874 13.8153C21.2008 13.7865 21.1143 13.8153 21.071 13.9019L20.3495 15.1572C20.3063 15.2437 20.3207 15.3303 20.3928 15.388L21.1575 15.9796C21.1431 16.095 21.1287 16.2104 21.1287 16.3259C21.1287 16.4413 21.1431 16.5712 21.1575 16.6722L20.3928 17.2637C20.3207 17.3214 20.3063 17.4224 20.3495 17.4946L21.071 18.7499C21.1143 18.8364 21.2153 18.8653 21.2874 18.8364L22.182 18.4757C22.3695 18.62 22.5715 18.7354 22.788 18.822L22.9178 19.7743C22.9322 19.8753 23.0044 19.933 23.091 19.933H24.5338C24.6204 19.933 24.707 19.8753 24.707 19.7743L24.8368 18.822C25.0532 18.7354 25.2552 18.6056 25.4428 18.4757L26.3374 18.8364C26.4239 18.8653 26.5105 18.8364 26.5538 18.7499L27.2752 17.4946C27.3185 17.408 27.3041 17.3214 27.2319 17.2637L26.4817 16.6722C26.4961 16.5567 26.5105 16.4413 26.5105 16.3259C26.5105 16.2104 26.4961 16.0806 26.4817 15.9796L27.2464 15.388C27.3185 15.3303 27.3329 15.2293 27.3041 15.1427ZM23.8124 17.5234C23.1487 17.5234 22.6148 16.9752 22.6148 16.3259C22.6148 15.6622 23.1631 15.1283 23.8124 15.1283C24.4617 15.1283 25.0099 15.6766 25.0099 16.3259C25.0099 16.9896 24.4761 17.5234 23.8124 17.5234Z" fill="white"/>
<path d="M5.40377 11.2728H17.7113C18.1009 11.2728 18.4183 10.9554 18.4183 10.5658V10.537C18.4183 10.1474 18.1009 9.82999 17.7113 9.82999H17.3217C17.3217 7.69458 16.153 5.86216 14.436 4.85216V6.22287C14.436 6.62687 14.1186 6.94429 13.7146 6.94429C13.3106 6.94429 12.9932 6.62687 12.9932 6.22287V4.26059C12.5315 4.14516 12.0553 4.05859 11.5503 4.05859C11.0453 4.05859 10.5692 4.14516 10.1075 4.26059V6.22287C10.1075 6.62687 9.79004 6.94429 9.38604 6.94429C8.98204 6.94429 8.66462 6.62687 8.66462 6.22287V4.85216C6.94762 5.86216 5.77892 7.69458 5.77892 9.82999H5.40377C5.0142 9.82999 4.69678 10.1474 4.69678 10.537V10.5803C4.69678 10.9554 5.0142 11.2728 5.40377 11.2728Z" fill="white"/>
<path d="M11.5555 17.0473C14.2392 17.0473 16.4756 15.2005 17.1249 12.7188H5.98608C6.63537 15.2005 8.87178 17.0473 11.5555 17.0473Z" fill="white"/>
<path d="M26.1181 8.52267H24.9819V7.38643H26.1181V8.52267ZM26.1181 6.25018H24.9819V2.84145H26.1181V6.25018ZM25.55 11.3633C28.686 11.3633 31.2312 8.81809 31.2312 5.68206C31.2312 2.54602 28.686 0.000836372 25.55 0.000836372C22.4139 0.000836372 19.8688 2.54602 19.8688 5.68206C19.8688 8.81809 22.4139 11.3633 25.55 11.3633ZM25.55 1.13708C28.0554 1.13708 30.095 3.17664 30.095 5.68206C30.095 8.18748 28.0554 10.227 25.55 10.227C23.0446 10.227 21.005 8.18748 21.005 5.68206C21.005 3.17664 23.0446 1.13708 25.55 1.13708Z" fill="white"/>
</svg>
