<svg width="16" height="16" viewBox="0 0 16 16" fill="none" xmlns="http://www.w3.org/2000/svg">
<g clip-path="url(#clip0_1513_20411)">
<path d="M11.1 1.45V7.15H10.95L8.7 7.5V11C8.7 12.4 9.5 14.2 10.7 15.05C10.75 15.1 10.8 15.1 10.8 15.15C10.65 15.35 10.4 15.45 10.1 15.45H1.45C0.95 15.45 0.5 15 0.5 14.5V1.5C0.5 0.95 0.9 0.5 1.45 0.5H10.15C10.65 0.5 11.1 0.95 11.1 1.45Z" stroke="#5E72E4" stroke-miterlimit="10" stroke-linecap="round" stroke-linejoin="round"/>
<path d="M1.90039 2.5498H4.90039" stroke="#5E72E4" stroke-miterlimit="10" stroke-linecap="round" stroke-linejoin="round"/>
<path d="M1.90039 4.7002H7.25039" stroke="#5E72E4" stroke-miterlimit="10" stroke-linecap="round" stroke-linejoin="round"/>
<path d="M1.90039 6.8501H7.25039" stroke="#5E72E4" stroke-miterlimit="10" stroke-linecap="round" stroke-linejoin="round"/>
<path d="M7.30039 9H1.90039" stroke="#5E72E4" stroke-miterlimit="10" stroke-linecap="round" stroke-linejoin="round"/>
<path d="M7.30039 11.1499H1.90039" stroke="#5E72E4" stroke-miterlimit="10" stroke-linecap="round" stroke-linejoin="round"/>
<path d="M1.7998 13.2998H7.2998" stroke="#5E72E4" stroke-miterlimit="10" stroke-linecap="round" stroke-linejoin="round"/>
<path d="M15.5002 7.5V11C15.5002 12.9 13.9502 15.5 12.1002 15.5C11.6002 15.5 11.1502 15.3 10.7002 15C9.5002 14.15 8.7002 12.4 8.7002 10.95V7.5L10.9002 7.15L12.0002 7L15.5002 7.5Z" stroke="#5E72E4" stroke-miterlimit="10" stroke-linecap="round" stroke-linejoin="round"/>
<path d="M10.6504 11.6499L11.3504 12.3499L13.5504 10.1499" stroke="#5E72E4" stroke-miterlimit="10" stroke-linecap="round" stroke-linejoin="round"/>
</g>
<defs>
<clipPath id="clip0_1513_20411">
<rect width="16" height="16" fill="white"/>
</clipPath>
</defs>
</svg>
