<svg width="17" height="16" viewBox="0 0 17 16" fill="none" xmlns="http://www.w3.org/2000/svg">
<rect width="17" height="16" fill="#EDE5E5"/>
<g clip-path="url(#clip0_0_1)">
<rect width="1920" height="1156" transform="translate(-367 -541)" fill="#F8F9FE"/>
<g filter="url(#filter0_d_0_1)">
<rect x="-31" y="-187" width="1584" height="786" rx="15" fill="white" shape-rendering="crispEdges"/>
<g clip-path="url(#clip1_0_1)">
<mask id="path-2-outside-1_0_1" maskUnits="userSpaceOnUse" x="-1" y="-1" width="18" height="18" fill="black">
<rect fill="white" x="-1" y="-1" width="18" height="18"/>
<path d="M0.907871 1.57205e-05H6.54164C6.67617 -4.32304e-05 6.80901 0.0300166 6.93042 0.08799C7.05182 0.145963 7.1587 0.23038 7.24323 0.335046C7.31033 0.414571 7.36202 0.505911 7.39564 0.604384C7.43155 0.701529 7.44979 0.804314 7.4495 0.907882V6.51668C7.44901 6.63931 7.424 6.7606 7.37594 6.87341C7.32788 6.98623 7.25774 7.08829 7.16965 7.17361C7.0004 7.33542 6.77579 7.42658 6.54164 7.42849H0.907871C0.793081 7.42673 0.679732 7.40263 0.574154 7.35755C0.463144 7.31453 0.361884 7.24969 0.276358 7.16687C0.190831 7.08406 0.122773 6.98493 0.076207 6.87536C0.0256056 6.76258 -0.000372628 6.6403 4.03813e-06 6.51668V0.907882C0.00139705 0.68863 0.0810747 0.477088 0.224671 0.311397L0.262773 0.274609C0.340805 0.195012 0.432472 0.130044 0.533425 0.0827879C0.651037 0.0291924 0.778626 0.000988648 0.907871 1.57205e-05ZM9.60289 8.57417H15.2406C15.377 8.57336 15.5117 8.60346 15.6348 8.66219C15.7558 8.72069 15.8625 8.805 15.9475 8.9092C16.0129 8.9874 16.0645 9.07628 16.0999 9.17196C16.1358 9.26956 16.154 9.37278 16.1537 9.47678V15.0856C16.1534 15.2072 16.1284 15.3274 16.0802 15.439C16.032 15.5516 15.9619 15.6534 15.8739 15.7386C15.7898 15.8196 15.6907 15.8834 15.5822 15.9264C15.4755 15.9705 15.3613 15.9933 15.2459 15.9934H9.60289C9.4881 15.9927 9.37446 15.9704 9.26787 15.9278C9.16052 15.8851 9.06239 15.8222 8.97882 15.7425C8.8901 15.6574 8.8191 15.5556 8.76992 15.4429C8.72047 15.3303 8.69497 15.2086 8.69503 15.0856V9.48335C8.69468 9.37417 8.71473 9.26589 8.75415 9.16408C8.79202 9.06227 8.84762 8.96796 8.91838 8.88555L8.95517 8.84876C9.03352 8.76928 9.12567 8.70473 9.22714 8.65825C9.34483 8.60336 9.47303 8.57468 9.60289 8.57417ZM15.2406 9.47941H9.60289V15.0921C10.0864 15.0921 15.238 15.0921 15.2432 15.0921C15.2432 14.6192 15.2432 9.48203 15.2432 9.47941H15.2406ZM0.907871 8.57417H6.54164C6.67617 8.57411 6.80901 8.60417 6.93042 8.66214C7.05182 8.72011 7.1587 8.80453 7.24323 8.9092C7.30964 8.98676 7.36129 9.07581 7.39564 9.17196C7.43156 9.26956 7.4498 9.37278 7.4495 9.47678V15.0856C7.44921 15.2072 7.42418 15.3274 7.37593 15.439C7.32881 15.5521 7.25855 15.6542 7.16965 15.7386C7.0004 15.9004 6.77579 15.9915 6.54164 15.9934H0.907871C0.79349 15.9927 0.68027 15.9704 0.574154 15.9278C0.466253 15.8855 0.367629 15.8225 0.283795 15.7425C0.195062 15.6577 0.124443 15.5558 0.076207 15.4429C0.0266523 15.3326 0.000696895 15.2131 4.03813e-06 15.0921V9.48335C0.000308964 9.37423 0.0203388 9.26607 0.0591271 9.16408C0.0975147 9.06223 0.153553 8.96794 0.224671 8.88555L0.262773 8.84876C0.340516 8.76916 0.432267 8.70458 0.533425 8.65825C0.650703 8.60351 0.778448 8.57482 0.907871 8.57417ZM6.54164 9.47941H0.907871V15.0921C1.39005 15.0921 6.54295 15.0921 6.54689 15.0921C6.54689 14.6192 6.54689 9.48203 6.54689 9.47941H6.54164ZM9.60289 1.57205e-05H15.2406C15.377 -0.000788946 15.5117 0.0293069 15.6348 0.0880433C15.7558 0.146536 15.8625 0.230849 15.9475 0.335046C16.0136 0.41523 16.0652 0.506389 16.0999 0.604384C16.1358 0.701529 16.154 0.804314 16.1537 0.907882V6.51668C16.1536 6.6387 16.1285 6.75941 16.0802 6.87142C16.0317 6.98386 15.9616 7.08565 15.8739 7.17098C15.7866 7.25207 15.6844 7.31543 15.573 7.35755C15.4662 7.40105 15.352 7.42379 15.2367 7.42455H9.60289C9.48794 7.42404 9.37417 7.40129 9.26787 7.35755C9.16085 7.31488 9.0628 7.25248 8.97882 7.17361C8.8901 7.08852 8.8191 6.98671 8.76992 6.87405C8.72037 6.76097 8.69487 6.63883 8.69503 6.51537V0.907882C8.69481 0.799146 8.71486 0.691321 8.75415 0.589932C8.79179 0.488008 8.84741 0.393667 8.91838 0.311397L8.95517 0.274609C9.03376 0.195078 9.12584 0.130129 9.22714 0.0827879C9.34515 0.0290119 9.47321 0.000803896 9.60289 1.57205e-05ZM15.2406 0.905255H9.60289V6.52063C10.0864 6.52063 15.238 6.52063 15.2432 6.52063C15.2432 6.04764 15.2432 0.907882 15.2432 0.907882L15.2406 0.905255ZM6.54558 0.905255H0.907871V6.518C1.39005 6.518 6.54295 6.518 6.54689 6.518C6.54689 6.04501 6.54689 0.905255 6.54689 0.905255H6.54558Z"/>
</mask>
<path d="M0.907871 1.57205e-05H6.54164C6.67617 -4.32304e-05 6.80901 0.0300166 6.93042 0.08799C7.05182 0.145963 7.1587 0.23038 7.24323 0.335046C7.31033 0.414571 7.36202 0.505911 7.39564 0.604384C7.43155 0.701529 7.44979 0.804314 7.4495 0.907882V6.51668C7.44901 6.63931 7.424 6.7606 7.37594 6.87341C7.32788 6.98623 7.25774 7.08829 7.16965 7.17361C7.0004 7.33542 6.77579 7.42658 6.54164 7.42849H0.907871C0.793081 7.42673 0.679732 7.40263 0.574154 7.35755C0.463144 7.31453 0.361884 7.24969 0.276358 7.16687C0.190831 7.08406 0.122773 6.98493 0.076207 6.87536C0.0256056 6.76258 -0.000372628 6.6403 4.03813e-06 6.51668V0.907882C0.00139705 0.68863 0.0810747 0.477088 0.224671 0.311397L0.262773 0.274609C0.340805 0.195012 0.432472 0.130044 0.533425 0.0827879C0.651037 0.0291924 0.778626 0.000988648 0.907871 1.57205e-05ZM9.60289 8.57417H15.2406C15.377 8.57336 15.5117 8.60346 15.6348 8.66219C15.7558 8.72069 15.8625 8.805 15.9475 8.9092C16.0129 8.9874 16.0645 9.07628 16.0999 9.17196C16.1358 9.26956 16.154 9.37278 16.1537 9.47678V15.0856C16.1534 15.2072 16.1284 15.3274 16.0802 15.439C16.032 15.5516 15.9619 15.6534 15.8739 15.7386C15.7898 15.8196 15.6907 15.8834 15.5822 15.9264C15.4755 15.9705 15.3613 15.9933 15.2459 15.9934H9.60289C9.4881 15.9927 9.37446 15.9704 9.26787 15.9278C9.16052 15.8851 9.06239 15.8222 8.97882 15.7425C8.8901 15.6574 8.8191 15.5556 8.76992 15.4429C8.72047 15.3303 8.69497 15.2086 8.69503 15.0856V9.48335C8.69468 9.37417 8.71473 9.26589 8.75415 9.16408C8.79202 9.06227 8.84762 8.96796 8.91838 8.88555L8.95517 8.84876C9.03352 8.76928 9.12567 8.70473 9.22714 8.65825C9.34483 8.60336 9.47303 8.57468 9.60289 8.57417ZM15.2406 9.47941H9.60289V15.0921C10.0864 15.0921 15.238 15.0921 15.2432 15.0921C15.2432 14.6192 15.2432 9.48203 15.2432 9.47941H15.2406ZM0.907871 8.57417H6.54164C6.67617 8.57411 6.80901 8.60417 6.93042 8.66214C7.05182 8.72011 7.1587 8.80453 7.24323 8.9092C7.30964 8.98676 7.36129 9.07581 7.39564 9.17196C7.43156 9.26956 7.4498 9.37278 7.4495 9.47678V15.0856C7.44921 15.2072 7.42418 15.3274 7.37593 15.439C7.32881 15.5521 7.25855 15.6542 7.16965 15.7386C7.0004 15.9004 6.77579 15.9915 6.54164 15.9934H0.907871C0.79349 15.9927 0.68027 15.9704 0.574154 15.9278C0.466253 15.8855 0.367629 15.8225 0.283795 15.7425C0.195062 15.6577 0.124443 15.5558 0.076207 15.4429C0.0266523 15.3326 0.000696895 15.2131 4.03813e-06 15.0921V9.48335C0.000308964 9.37423 0.0203388 9.26607 0.0591271 9.16408C0.0975147 9.06223 0.153553 8.96794 0.224671 8.88555L0.262773 8.84876C0.340516 8.76916 0.432267 8.70458 0.533425 8.65825C0.650703 8.60351 0.778448 8.57482 0.907871 8.57417ZM6.54164 9.47941H0.907871V15.0921C1.39005 15.0921 6.54295 15.0921 6.54689 15.0921C6.54689 14.6192 6.54689 9.48203 6.54689 9.47941H6.54164ZM9.60289 1.57205e-05H15.2406C15.377 -0.000788946 15.5117 0.0293069 15.6348 0.0880433C15.7558 0.146536 15.8625 0.230849 15.9475 0.335046C16.0136 0.41523 16.0652 0.506389 16.0999 0.604384C16.1358 0.701529 16.154 0.804314 16.1537 0.907882V6.51668C16.1536 6.6387 16.1285 6.75941 16.0802 6.87142C16.0317 6.98386 15.9616 7.08565 15.8739 7.17098C15.7866 7.25207 15.6844 7.31543 15.573 7.35755C15.4662 7.40105 15.352 7.42379 15.2367 7.42455H9.60289C9.48794 7.42404 9.37417 7.40129 9.26787 7.35755C9.16085 7.31488 9.0628 7.25248 8.97882 7.17361C8.8901 7.08852 8.8191 6.98671 8.76992 6.87405C8.72037 6.76097 8.69487 6.63883 8.69503 6.51537V0.907882C8.69481 0.799146 8.71486 0.691321 8.75415 0.589932C8.79179 0.488008 8.84741 0.393667 8.91838 0.311397L8.95517 0.274609C9.03376 0.195078 9.12584 0.130129 9.22714 0.0827879C9.34515 0.0290119 9.47321 0.000803896 9.60289 1.57205e-05ZM15.2406 0.905255H9.60289V6.52063C10.0864 6.52063 15.238 6.52063 15.2432 6.52063C15.2432 6.04764 15.2432 0.907882 15.2432 0.907882L15.2406 0.905255ZM6.54558 0.905255H0.907871V6.518C1.39005 6.518 6.54295 6.518 6.54689 6.518C6.54689 6.04501 6.54689 0.905255 6.54689 0.905255H6.54558Z" fill="#5E72E4"/>
<path d="M0.907871 1.57205e-05H6.54164C6.67617 -4.32304e-05 6.80901 0.0300166 6.93042 0.08799C7.05182 0.145963 7.1587 0.23038 7.24323 0.335046C7.31033 0.414571 7.36202 0.505911 7.39564 0.604384C7.43155 0.701529 7.44979 0.804314 7.4495 0.907882V6.51668C7.44901 6.63931 7.424 6.7606 7.37594 6.87341C7.32788 6.98623 7.25774 7.08829 7.16965 7.17361C7.0004 7.33542 6.77579 7.42658 6.54164 7.42849H0.907871C0.793081 7.42673 0.679732 7.40263 0.574154 7.35755C0.463144 7.31453 0.361884 7.24969 0.276358 7.16687C0.190831 7.08406 0.122773 6.98493 0.076207 6.87536C0.0256056 6.76258 -0.000372628 6.6403 4.03813e-06 6.51668V0.907882C0.00139705 0.68863 0.0810747 0.477088 0.224671 0.311397L0.262773 0.274609C0.340805 0.195012 0.432472 0.130044 0.533425 0.0827879C0.651037 0.0291924 0.778626 0.000988648 0.907871 1.57205e-05ZM9.60289 8.57417H15.2406C15.377 8.57336 15.5117 8.60346 15.6348 8.66219C15.7558 8.72069 15.8625 8.805 15.9475 8.9092C16.0129 8.9874 16.0645 9.07628 16.0999 9.17196C16.1358 9.26956 16.154 9.37278 16.1537 9.47678V15.0856C16.1534 15.2072 16.1284 15.3274 16.0802 15.439C16.032 15.5516 15.9619 15.6534 15.8739 15.7386C15.7898 15.8196 15.6907 15.8834 15.5822 15.9264C15.4755 15.9705 15.3613 15.9933 15.2459 15.9934H9.60289C9.4881 15.9927 9.37446 15.9704 9.26787 15.9278C9.16052 15.8851 9.06239 15.8222 8.97882 15.7425C8.8901 15.6574 8.8191 15.5556 8.76992 15.4429C8.72047 15.3303 8.69497 15.2086 8.69503 15.0856V9.48335C8.69468 9.37417 8.71473 9.26589 8.75415 9.16408C8.79202 9.06227 8.84762 8.96796 8.91838 8.88555L8.95517 8.84876C9.03352 8.76928 9.12567 8.70473 9.22714 8.65825C9.34483 8.60336 9.47303 8.57468 9.60289 8.57417ZM15.2406 9.47941H9.60289V15.0921C10.0864 15.0921 15.238 15.0921 15.2432 15.0921C15.2432 14.6192 15.2432 9.48203 15.2432 9.47941H15.2406ZM0.907871 8.57417H6.54164C6.67617 8.57411 6.80901 8.60417 6.93042 8.66214C7.05182 8.72011 7.1587 8.80453 7.24323 8.9092C7.30964 8.98676 7.36129 9.07581 7.39564 9.17196C7.43156 9.26956 7.4498 9.37278 7.4495 9.47678V15.0856C7.44921 15.2072 7.42418 15.3274 7.37593 15.439C7.32881 15.5521 7.25855 15.6542 7.16965 15.7386C7.0004 15.9004 6.77579 15.9915 6.54164 15.9934H0.907871C0.79349 15.9927 0.68027 15.9704 0.574154 15.9278C0.466253 15.8855 0.367629 15.8225 0.283795 15.7425C0.195062 15.6577 0.124443 15.5558 0.076207 15.4429C0.0266523 15.3326 0.000696895 15.2131 4.03813e-06 15.0921V9.48335C0.000308964 9.37423 0.0203388 9.26607 0.0591271 9.16408C0.0975147 9.06223 0.153553 8.96794 0.224671 8.88555L0.262773 8.84876C0.340516 8.76916 0.432267 8.70458 0.533425 8.65825C0.650703 8.60351 0.778448 8.57482 0.907871 8.57417ZM6.54164 9.47941H0.907871V15.0921C1.39005 15.0921 6.54295 15.0921 6.54689 15.0921C6.54689 14.6192 6.54689 9.48203 6.54689 9.47941H6.54164ZM9.60289 1.57205e-05H15.2406C15.377 -0.000788946 15.5117 0.0293069 15.6348 0.0880433C15.7558 0.146536 15.8625 0.230849 15.9475 0.335046C16.0136 0.41523 16.0652 0.506389 16.0999 0.604384C16.1358 0.701529 16.154 0.804314 16.1537 0.907882V6.51668C16.1536 6.6387 16.1285 6.75941 16.0802 6.87142C16.0317 6.98386 15.9616 7.08565 15.8739 7.17098C15.7866 7.25207 15.6844 7.31543 15.573 7.35755C15.4662 7.40105 15.352 7.42379 15.2367 7.42455H9.60289C9.48794 7.42404 9.37417 7.40129 9.26787 7.35755C9.16085 7.31488 9.0628 7.25248 8.97882 7.17361C8.8901 7.08852 8.8191 6.98671 8.76992 6.87405C8.72037 6.76097 8.69487 6.63883 8.69503 6.51537V0.907882C8.69481 0.799146 8.71486 0.691321 8.75415 0.589932C8.79179 0.488008 8.84741 0.393667 8.91838 0.311397L8.95517 0.274609C9.03376 0.195078 9.12584 0.130129 9.22714 0.0827879C9.34515 0.0290119 9.47321 0.000803896 9.60289 1.57205e-05ZM15.2406 0.905255H9.60289V6.52063C10.0864 6.52063 15.238 6.52063 15.2432 6.52063C15.2432 6.04764 15.2432 0.907882 15.2432 0.907882L15.2406 0.905255ZM6.54558 0.905255H0.907871V6.518C1.39005 6.518 6.54295 6.518 6.54689 6.518C6.54689 6.04501 6.54689 0.905255 6.54689 0.905255H6.54558Z" stroke="#5E72E4" stroke-width="0.4" mask="url(#path-2-outside-1_0_1)"/>
</g>
</g>
</g>
<defs>
<filter id="filter0_d_0_1" x="-33" y="-189" width="1588" height="790" filterUnits="userSpaceOnUse" color-interpolation-filters="sRGB">
<feFlood flood-opacity="0" result="BackgroundImageFix"/>
<feColorMatrix in="SourceAlpha" type="matrix" values="0 0 0 0 0 0 0 0 0 0 0 0 0 0 0 0 0 0 127 0" result="hardAlpha"/>
<feOffset/>
<feGaussianBlur stdDeviation="1"/>
<feComposite in2="hardAlpha" operator="out"/>
<feColorMatrix type="matrix" values="0 0 0 0 0 0 0 0 0 0 0 0 0 0 0 0 0 0 0.25 0"/>
<feBlend mode="normal" in2="BackgroundImageFix" result="effect1_dropShadow_0_1"/>
<feBlend mode="normal" in="SourceGraphic" in2="effect1_dropShadow_0_1" result="shape"/>
</filter>
<clipPath id="clip0_0_1">
<rect width="1920" height="1156" fill="white" transform="translate(-367 -541)"/>
</clipPath>
<clipPath id="clip1_0_1">
<rect width="16.1445" height="16" fill="white"/>
</clipPath>
</defs>
</svg>
