<svg width="16" height="19" viewBox="0 0 16 19" fill="none" xmlns="http://www.w3.org/2000/svg">
<rect width="16" height="19" fill="#EDE5E5"/>
<g clip-path="url(#clip0_0_1)">
<rect width="1920" height="1156" transform="translate(-725 -461)" fill="#F8F9FE"/>
<g filter="url(#filter0_d_0_1)">
<rect x="-389" y="-107" width="1584" height="786" rx="15" fill="white" shape-rendering="crispEdges"/>
<g clip-path="url(#clip1_0_1)">
<path d="M13.5245 11.7534L13.5936 11.6814L14.1783 11.0728C14.1785 11.0726 14.1786 11.0725 14.1787 11.0724C14.2684 10.9772 14.3806 10.9264 14.5102 10.9245C14.6386 10.9226 14.7523 10.9673 14.8473 11.0586L13.5245 11.7534ZM13.5245 11.7534L13.5963 11.8226L15.2388 13.4083L15.3109 13.4779L15.3804 13.4056L15.9711 12.7909C15.9712 12.7908 15.9714 12.7907 15.9715 12.7906C16.0637 12.6961 16.1003 12.5759 16.0985 12.453L16.0985 12.4529C16.0966 12.3287 16.0515 12.211 15.9584 12.1217L15.9583 12.1216L14.8475 11.0587L13.5245 11.7534ZM15.4224 0.251205L15.4221 0.25094C15.2054 0.0358549 14.9065 -0.1 14.5761 -0.1H1.09751C0.767386 -0.1 0.468269 0.034143 0.251206 0.251206C0.034143 0.468269 -0.1 0.767386 -0.1 1.09751V17.3011C-0.1 17.6313 0.0341431 17.9304 0.251206 18.1474C0.468269 18.3645 0.767387 18.4987 1.09751 18.4987H7.00281C7.31856 18.4987 7.57445 18.2428 7.57445 17.927C7.57445 17.6454 7.37087 17.4114 7.10281 17.3641V17.3539H7.00281H1.09751C1.08452 17.3539 1.07039 17.3482 1.05892 17.3367C1.04946 17.3273 1.04329 17.3133 1.04329 17.2996V1.09751C1.04329 1.08632 1.04761 1.07293 1.05977 1.0583C1.07146 1.04836 1.08524 1.04329 1.09751 1.04329H14.5761C14.588 1.04329 14.6009 1.04814 14.6132 1.06042L14.6131 1.06044L14.6151 1.0623C14.6244 1.0711 14.6303 1.08409 14.6303 1.09751V8.6049C14.6303 8.92066 14.8862 9.17655 15.2019 9.17655C15.5177 9.17655 15.7736 8.92066 15.7736 8.6049V1.09751C15.7736 0.767386 15.6394 0.468269 15.4224 0.251205ZM11.7405 17.1659L11.7648 17.1582L9.55718 17.7758L9.58369 17.8722C9.584 17.8721 9.58431 17.872 9.58463 17.8719C9.6495 17.854 9.93879 17.76 10.4448 17.5938L10.4452 17.5937C10.5383 17.5626 10.6308 17.5315 10.7233 17.5004C10.8462 17.4591 10.9691 17.4178 11.0931 17.3767C11.1583 17.3554 11.2233 17.3341 11.2883 17.3127C11.4389 17.2633 11.5892 17.2139 11.7405 17.1659ZM5.43696 9.19933C5.43696 9.49649 5.64274 9.76947 5.93225 9.76947H11.1563C11.4456 9.76947 11.6516 9.49821 11.6516 9.19933C11.6516 8.90216 11.4458 8.62918 11.1563 8.62918H5.93225C5.64293 8.62918 5.43696 8.90044 5.43696 9.19933ZM5.43547 12.5413C5.43547 12.8419 5.6419 13.1189 5.93225 13.1189H8.50608C8.79643 13.1189 9.00286 12.8419 9.00286 12.5413C9.00286 12.2406 8.79643 11.9636 8.50608 11.9636H5.93225C5.6419 11.9636 5.43547 12.2406 5.43547 12.5413ZM5.43696 5.85738C5.43696 6.15455 5.64274 6.42753 5.93225 6.42753H11.1563C11.4456 6.42753 11.6516 6.15626 11.6516 5.85738C11.6516 5.56022 11.4458 5.28724 11.1563 5.28724H5.93225C5.64293 5.28724 5.43696 5.5585 5.43696 5.85738ZM4.32235 12.4544C4.32235 12.0924 4.0292 11.7974 3.66536 11.7974C3.30318 11.7974 3.00837 12.0923 3.00837 12.4544C3.00837 12.8164 3.30151 13.1114 3.66536 13.1114C4.02735 13.1114 4.32235 12.8183 4.32235 12.4544ZM4.32235 9.1574C4.32235 8.7954 4.0292 8.50041 3.66536 8.50041C3.30318 8.50041 3.00837 8.79523 3.00837 9.1574C3.00837 9.5194 3.30151 9.81439 3.66536 9.81439C4.02735 9.81439 4.32235 9.52125 4.32235 9.1574ZM4.32235 5.86038C4.32235 5.49838 4.0292 5.20339 3.66536 5.20339C3.30336 5.20339 3.00837 5.49653 3.00837 5.86038C3.00837 6.22237 3.30151 6.51737 3.66536 6.51737C4.02735 6.51737 4.32235 6.22422 4.32235 5.86038Z" fill="#5E72E4" stroke="#5E72E4" stroke-width="0.2"/>
</g>
</g>
</g>
<defs>
<filter id="filter0_d_0_1" x="-391" y="-109" width="1588" height="790" filterUnits="userSpaceOnUse" color-interpolation-filters="sRGB">
<feFlood flood-opacity="0" result="BackgroundImageFix"/>
<feColorMatrix in="SourceAlpha" type="matrix" values="0 0 0 0 0 0 0 0 0 0 0 0 0 0 0 0 0 0 127 0" result="hardAlpha"/>
<feOffset/>
<feGaussianBlur stdDeviation="1"/>
<feComposite in2="hardAlpha" operator="out"/>
<feColorMatrix type="matrix" values="0 0 0 0 0 0 0 0 0 0 0 0 0 0 0 0 0 0 0.25 0"/>
<feBlend mode="normal" in2="BackgroundImageFix" result="effect1_dropShadow_0_1"/>
<feBlend mode="normal" in="SourceGraphic" in2="effect1_dropShadow_0_1" result="shape"/>
</filter>
<clipPath id="clip0_0_1">
<rect width="1920" height="1156" fill="white" transform="translate(-725 -461)"/>
</clipPath>
<clipPath id="clip1_0_1">
<rect width="16" height="18.3987" fill="white"/>
</clipPath>
</defs>
</svg>
