<svg width="16" height="16" viewBox="0 0 16 16" fill="none" xmlns="http://www.w3.org/2000/svg">
<path d="M15.9599 3.62378L16 11.4099C16.0031 11.8169 15.732 12.1653 15.3501 12.3117V12.3147L8.2356 15.0496C8.174 15.0613 8.1124 15.0642 8.05081 15.0642C7.91221 15.0642 7.7767 15.0379 7.65042 14.9881L0.643695 12.4406V12.4377C0.26487 12.2854 0 11.9252 0 11.5065L0.0400376 3.81997C0.0338778 3.73798 0.0400385 3.65599 0.0554379 3.574C0.0585178 3.45687 0.0831568 3.33975 0.132435 3.2314C0.243311 2.97958 0.455822 2.79217 0.708372 2.69554L7.55187 0.0748061C7.83213 -0.030609 8.13088 -0.0218244 8.38651 0.0835907L15.2208 2.432C15.6304 2.57256 15.8891 2.92101 15.9076 3.30168C15.9384 3.40709 15.9599 3.51544 15.9599 3.62378ZM6.7049 13.4303L6.75726 6.64861L1.27815 4.39682L1.16111 11.2049L6.7049 13.4303ZM14.7896 4.39682L8.66678 6.65154L8.71606 13.4245L14.8296 11.2547L14.7896 4.39682Z" fill="#5E72E4"/>
</svg>
