<svg width="16" height="15" viewBox="0 0 16 15" fill="none" xmlns="http://www.w3.org/2000/svg">
<g clip-path="url(#clip0_3925_17145)">
<path d="M7.59387 8.05225H2.11986C2.09635 8.05229 2.07307 8.05697 2.05137 8.06603C2.02968 8.07509 2.00998 8.08834 1.99342 8.10503L1.99325 8.1052C1.95902 8.13953 1.94008 8.18489 1.94009 8.23181V8.23184V10.4277C1.94009 10.6556 1.75528 10.8404 1.52734 10.8404C1.2994 10.8404 1.11462 10.6556 1.11462 10.4277V8.23184C1.11462 7.97077 1.21578 7.73224 1.38025 7.55343V7.55095L1.40954 7.52166C1.59126 7.33995 1.84276 7.22678 2.11969 7.22678H7.59387V6.30253H4.93556C4.65864 6.30253 4.40714 6.18937 4.22542 6.00762C4.22542 6.00762 4.22541 6.00761 4.22541 6.00761M7.59387 8.05225L4.29612 5.93691L4.22541 6.00761M7.59387 8.05225V10.4277C7.59387 10.6556 7.77869 10.8404 8.00663 10.8404C8.23457 10.8404 8.41934 10.6556 8.41934 10.4277V8.05225H13.8934M7.59387 8.05225H13.8934M4.22541 6.00761C4.04366 5.82589 3.9305 5.57436 3.9305 5.29747V0.905062C3.9305 0.62813 4.04367 0.376629 4.22541 0.194883C4.40713 0.0131667 4.65863 -0.1 4.93556 -0.1H11.0777C11.3546 -0.1 11.6061 0.013164 11.7878 0.194883L11.7878 0.19489C11.9695 0.376627 12.0828 0.628123 12.0828 0.905062V5.29747C12.0828 5.57437 11.9696 5.8259 11.7878 6.00761C11.7878 6.00761 11.7878 6.00761 11.7878 6.00762L4.22541 6.00761ZM14.0732 8.23184L14.0732 8.23202L14.0732 10.4254C14.0732 10.6534 14.2579 10.8382 14.4859 10.8382C14.7138 10.8382 14.8986 10.6534 14.8986 10.4254V8.23184C14.8986 7.95491 14.7854 7.70338 14.6037 7.52166C14.422 7.33995 14.1705 7.22678 13.8935 7.22678H8.41934V6.30253L14.0732 8.23184ZM14.0732 8.23184C14.0731 8.20839 14.0684 8.18518 14.0594 8.16353C14.0503 8.14183 14.0371 8.12213 14.0204 8.10557L14.0198 8.10504C14.0033 8.08835 13.9836 8.07509 13.9619 8.06603C13.9402 8.05697 13.9169 8.05229 13.8934 8.05225M14.0732 8.23184L13.8934 8.05225M4.75597 5.29727V5.29747H4.65597C4.65604 5.33415 4.66335 5.37045 4.67748 5.4043C4.69161 5.43815 4.71229 5.46887 4.73831 5.49472C4.78909 5.5455 4.85897 5.57706 4.93556 5.57706H7.97506M4.75597 5.29727C4.75602 5.32079 4.7607 5.34407 4.76976 5.36578C4.77883 5.38748 4.79208 5.40718 4.80877 5.42376L4.80902 5.42401C4.84212 5.45711 4.88697 5.47706 4.93556 5.47706H7.97031M4.75597 5.29727V0.905062C4.75597 0.856468 4.77592 0.811622 4.80902 0.778523C4.84212 0.745424 4.88697 0.725469 4.93556 0.725469H11.0776M4.75597 5.29727L11.0776 0.725469M7.97031 5.47706C7.9685 5.47722 7.96668 5.4774 7.96487 5.47758L7.97506 5.57706M7.97031 5.47706H7.97506V5.57706M7.97031 5.47706C7.99447 5.47491 8.01878 5.47491 8.04294 5.47706M7.97506 5.57706C7.99605 5.57491 8.0172 5.57491 8.03819 5.57706M8.03819 5.57706V5.47706H8.04294M8.03819 5.57706L8.04838 5.47758C8.04657 5.4774 8.04475 5.47722 8.04294 5.47706M8.03819 5.57706L11.2573 5.29727M8.04294 5.47706H11.0775C11.101 5.47702 11.1243 5.47233 11.146 5.46327C11.1677 5.45421 11.1874 5.44095 11.204 5.42426L11.2045 5.42376C11.2212 5.40719 11.2344 5.38748 11.2435 5.36578C11.2525 5.34413 11.2572 5.32092 11.2573 5.29747C11.2573 5.2974 11.2573 5.29734 11.2573 5.29727M11.2573 5.29727L11.2573 0.905062C11.2573 0.856468 11.2373 0.811622 11.2042 0.778523L11.204 0.778272C11.1874 0.761579 11.1677 0.748322 11.146 0.739261C11.1243 0.730211 11.101 0.725524 11.0776 0.725469M11.2573 5.29727L11.0776 0.725469M3.14509 14.6063V11.4989C3.14509 11.2399 2.93355 11.0283 2.6745 11.0283H0.370625C0.111542 11.0283 -0.1 11.2399 -0.1 11.4989V14.6063C-0.1 14.8653 0.11161 15.077 0.370625 15.077H2.6745C2.93347 15.077 3.14509 14.8654 3.14509 14.6063ZM9.63228 14.6063V11.4989C9.63228 11.2399 9.42073 11.0283 9.16166 11.0283H6.85778C6.59872 11.0283 6.38719 11.2399 6.38719 11.4989V14.6063C6.38719 14.8653 6.59879 15.077 6.85778 15.077H9.16166C9.42066 15.077 9.63228 14.8654 9.63228 14.6063ZM16.1 14.6063V11.4989C16.1 11.2399 15.8884 11.0283 15.6294 11.0283H13.3255C13.0664 11.0283 12.8549 11.2399 12.8549 11.4989V14.6063C12.8549 14.8653 13.0665 15.077 13.3255 15.077H15.6294C15.8884 15.077 16.1 14.8654 16.1 14.6063Z" fill="#5E72E4" stroke="#5E72E4" stroke-width="0.2"/>
</g>
<defs>
<clipPath id="clip0_3925_17145">
<rect width="16" height="14.977" fill="white"/>
</clipPath>
</defs>
</svg>
