<svg width="30" height="25" viewBox="0 0 30 25" fill="none" xmlns="http://www.w3.org/2000/svg">
<g clip-path="url(#clip0_3357_14370)">
<path d="M0.908192 1.8372C0.418965 1.8372 0 1.41824 0 0.908192C0 0.418965 0.418965 0 0.908192 0H3.28146C3.30488 0 3.35172 0 3.37514 0C4.21307 0.0234204 4.95732 0.184761 5.58447 0.580306C6.28188 1.02269 6.79452 1.69668 7.07297 2.69595C7.07297 2.71937 7.07297 2.74279 7.09639 2.76621L7.32799 3.69522H16.1783C14.4114 7.90309 15.9935 13.5969 20.9274 15.1374H10.3961C10.7213 16.3475 11.0466 16.998 11.489 17.2999C12.0251 17.6486 12.9541 17.672 14.5129 17.6486H14.5363H25.0494C25.5621 17.6486 25.955 18.0676 25.955 18.5568C25.955 19.0668 25.5361 19.4624 25.0494 19.4624H14.5363C12.6054 19.4858 11.4188 19.4389 10.4663 18.8118C9.49048 18.1612 8.97783 17.0449 8.46518 15.0203L5.35027 3.23202C5.35027 3.2086 5.35027 3.2086 5.32684 3.18518C5.18632 2.67253 4.95472 2.32383 4.62944 2.13907C4.30415 1.93088 3.86177 1.8372 3.34912 1.8372C3.3257 1.8372 3.30228 1.8372 3.27886 1.8372H0.908192ZM22.3249 20.5345C23.5583 20.5345 24.5576 21.5338 24.5576 22.7673C24.5576 24.0007 23.5583 25 22.3249 25C21.0914 25 20.0921 24.0007 20.0921 22.7673C20.0947 21.5364 21.094 20.5345 22.3249 20.5345ZM12.5351 20.5345C13.7686 20.5345 14.7679 21.5338 14.7679 22.7673C14.7679 24.0007 13.7686 25 12.5351 25C11.3017 25 10.3024 24.0007 10.3024 22.7673C10.3024 21.5364 11.3017 20.5345 12.5351 20.5345Z" fill="white"/>
<path fill-rule="evenodd" clip-rule="evenodd" d="M23.686 1.375C26.9206 1.375 29.5437 3.99809 29.5437 7.23271C29.5437 10.4673 26.9206 13.0904 23.686 13.0904C15.9833 13.0904 15.9833 1.375 23.686 1.375ZM21.0941 7.38884C21.1722 6.93345 21.6926 6.67842 22.1038 6.92564C22.1402 6.94906 22.1767 6.97508 22.2105 7.00371L22.2131 7.00631C22.3979 7.18326 22.6034 7.36803 22.8064 7.54758L22.9834 7.70372L25.0652 5.52041C25.1901 5.3903 25.2812 5.30443 25.4685 5.26279C26.1061 5.12227 26.5563 5.90295 26.1061 6.37916L23.509 9.10894C23.2644 9.36917 22.8272 9.39259 22.5644 9.14277C22.4135 9.00485 22.2495 8.86173 22.0856 8.716C21.7993 8.46618 21.5079 8.21116 21.2685 7.96134C21.1227 7.82082 21.0603 7.58401 21.0941 7.38884Z" fill="white"/>
</g>
<defs>
<clipPath id="clip0_3357_14370">
<rect width="29.5436" height="25" fill="white"/>
</clipPath>
</defs>
</svg>
