<svg width="16" height="16" viewBox="0 0 16 16" fill="none" xmlns="http://www.w3.org/2000/svg">
<path d="M4.10313 9.54062L7.3625 12.8562C7.53281 13.0297 7.75938 13.1234 8 13.1234C8.24062 13.1234 8.46719 13.0281 8.6375 12.8562L11.8969 9.54062C12.4203 9.00937 12.825 8.38594 13.1 7.69219C13.3656 7.02187 13.5 6.31406 13.5 5.5875C13.5 4.86094 13.3656 4.15312 13.1 3.48281C12.825 2.7875 12.4188 2.16562 11.8969 1.63437C11.3734 1.10156 10.7609 0.689062 10.0766 0.407812C9.41563 0.1375 8.71719 0 8 0C7.28281 0 6.58437 0.1375 5.92344 0.409375C5.23906 0.690625 4.62656 1.10312 4.10313 1.63594C3.57969 2.16719 3.175 2.79062 2.9 3.48437C2.63438 4.15469 2.5 4.8625 2.5 5.58906C2.5 6.31562 2.63438 7.02344 2.9 7.69375C3.17656 8.3875 3.58125 9.00937 4.10313 9.54062ZM4.77187 2.29219C5.63125 1.41875 6.77656 0.9375 8 0.9375C9.22344 0.9375 10.3687 1.41875 11.2281 2.29219C12.0891 3.16875 12.5625 4.33906 12.5625 5.5875C12.5625 6.83594 12.0891 8.00781 11.2281 8.88281L8.16719 11.9984C8.075 12.0922 7.925 12.0922 7.83281 11.9984L4.77187 8.88437C3.91094 8.00781 3.4375 6.8375 3.4375 5.58906C3.4375 4.34062 3.91094 3.16875 4.77187 2.29219Z" fill="#5E72E4"/>
<path d="M8 8.21875C9.37813 8.21875 10.5 7.09687 10.5 5.71875C10.5 4.34063 9.37813 3.21875 8 3.21875C6.62187 3.21875 5.5 4.34063 5.5 5.71875C5.5 7.09687 6.62187 8.21875 8 8.21875ZM8 4.15625C8.86094 4.15625 9.5625 4.85781 9.5625 5.71875C9.5625 6.57969 8.86094 7.28125 8 7.28125C7.13906 7.28125 6.4375 6.57969 6.4375 5.71875C6.4375 4.85781 7.13906 4.15625 8 4.15625ZM14.2953 12.3313C13.925 12.0578 13.4062 11.8172 12.7578 11.6156C12.3906 11.5016 11.9875 11.4016 11.5594 11.3172C11.2703 11.2609 11 11.4812 11 11.7766C11 12 11.1578 12.1937 11.3781 12.2359C11.7734 12.3125 12.1422 12.4047 12.4797 12.5094C13.7312 12.9016 14.0625 13.3281 14.0625 13.5C14.0625 13.6719 13.7312 14.0984 12.4797 14.4891C11.2891 14.8594 9.69844 15.0625 8 15.0625C6.30156 15.0625 4.71094 14.8594 3.52031 14.4891C2.26875 14.0984 1.9375 13.6719 1.9375 13.5C1.9375 13.3281 2.26875 12.9016 3.52031 12.5109C3.85781 12.4062 4.22656 12.3141 4.62187 12.2375C4.84062 12.1953 5 12.0016 5 11.7781C5 11.4828 4.72969 11.2609 4.44063 11.3188C4.0125 11.4031 3.60938 11.5016 3.24219 11.6172C2.59219 11.8188 2.075 12.0594 1.70469 12.3328C1.38281 12.5672 1 12.9625 1 13.5C1 14.0375 1.38281 14.4328 1.70469 14.6687C2.075 14.9422 2.59375 15.1828 3.24219 15.3844C4.52031 15.7812 6.20937 16 8 16C9.79062 16 11.4797 15.7812 12.7578 15.3844C13.4078 15.1828 13.925 14.9422 14.2953 14.6687C14.6172 14.4328 15 14.0375 15 13.5C15 12.9625 14.6172 12.5672 14.2953 12.3313Z" fill="#5E72E4"/>
</svg>
