<svg width="16" height="16" viewBox="0 0 16 16" fill="none" xmlns="http://www.w3.org/2000/svg">
<g clip-path="url(#clip0_1513_20405)">
<path d="M14.355 3.14501L11.355 0.145008C11.3083 0.0986677 11.2529 0.062005 11.192 0.0371227C11.131 0.0122404 11.0658 -0.000372089 11 8.35714e-06H3C2.60218 8.35714e-06 2.22064 0.158044 1.93934 0.439348C1.65804 0.720653 1.5 1.10218 1.5 1.50001V14.5C1.5 14.8978 1.65804 15.2794 1.93934 15.5607C2.22064 15.842 2.60218 16 3 16H13C13.3978 16 13.7794 15.842 14.0607 15.5607C14.342 15.2794 14.5 14.8978 14.5 14.5V3.50001C14.5004 3.43421 14.4878 3.36897 14.4629 3.30806C14.438 3.24714 14.4013 3.19173 14.355 3.14501ZM13.5 14.5C13.5 14.6326 13.4473 14.7598 13.3536 14.8536C13.2598 14.9473 13.1326 15 13 15H3C2.86739 15 2.74021 14.9473 2.64645 14.8536C2.55268 14.7598 2.5 14.6326 2.5 14.5V1.50001C2.5 1.3674 2.55268 1.24022 2.64645 1.14645C2.74021 1.05269 2.86739 1.00001 3 1.00001H10.5V3.00001C10.5 3.26522 10.6054 3.51958 10.7929 3.70712C10.9804 3.89465 11.2348 4.00001 11.5 4.00001H13.5V14.5Z" fill="#5E72E4"/>
<path d="M12.5 10H3.5V11H12.5V10Z" fill="#5E72E4"/>
<path d="M12.5 12.5H3.5V13.5H12.5V12.5Z" fill="#5E72E4"/>
<path d="M3.5 6V8C3.5 8.13261 3.55268 8.25979 3.64645 8.35355C3.74021 8.44732 3.86739 8.5 4 8.5H12C12.1326 8.5 12.2598 8.44732 12.3536 8.35355C12.4473 8.25979 12.5 8.13261 12.5 8V6C12.5 5.86739 12.4473 5.74021 12.3536 5.64645C12.2598 5.55268 12.1326 5.5 12 5.5H4C3.86739 5.5 3.74021 5.55268 3.64645 5.64645C3.55268 5.74021 3.5 5.86739 3.5 6ZM4.5 6.5H11.5V7.5H4.5V6.5Z" fill="#5E72E4"/>
</g>
<defs>
<clipPath id="clip0_1513_20405">
<rect width="16" height="16" fill="white"/>
</clipPath>
</defs>
</svg>
