<svg width="32" height="32" viewBox="0 0 32 32" fill="none" xmlns="http://www.w3.org/2000/svg">
<g clip-path="url(#clip0_8856_59837)">
<g clip-path="url(#clip1_8856_59837)">
<path fill-rule="evenodd" clip-rule="evenodd" d="M15.2488 10.7922V8.255H13.5538V10.8255C14.08 10.7393 14.7272 10.7862 15.2488 10.7862V10.7922ZM17.3506 10.7922C17.8858 10.7922 18.5285 10.7423 19.0456 10.83V8.255H17.3506V10.7922ZM19.6307 10.96C20.21 11.1647 20.7117 11.5436 21.0672 12.0447C21.4226 12.5457 21.6143 13.1445 21.6161 13.7588V14.1943H11V13.7588C11.0017 13.1479 11.1912 12.5524 11.5429 12.0528C11.8945 11.5532 12.3912 11.1739 12.9657 10.9661V8.255H12.9218C12.7562 8.25341 12.5978 8.18669 12.4809 8.06927C12.3641 7.95185 12.2981 7.79316 12.2973 7.6275C12.2977 7.4612 12.364 7.30182 12.4816 7.18423C12.5992 7.06664 12.7585 7.0004 12.9248 7H19.6761C19.8423 7.0008 20.0014 7.06716 20.1189 7.18467C20.2364 7.30218 20.3028 7.46132 20.3036 7.6275C20.3028 7.79368 20.2364 7.95282 20.1189 8.07033C20.0014 8.18784 19.8423 8.2542 19.6761 8.255H19.6323V10.96H19.6307ZM21.6161 14.8808V19.931H11V14.8808H21.6161ZM21.6161 20.6175V22.2278C21.6156 22.5876 21.5196 22.9408 21.3379 23.2514C21.1562 23.5619 20.8953 23.8187 20.5818 23.9954V25.0326C20.5814 25.1777 20.5236 25.3167 20.4211 25.4192C20.3185 25.5218 20.1795 25.5796 20.0345 25.58H12.5801C12.435 25.5796 12.296 25.5218 12.1935 25.4192C12.0909 25.3167 12.0331 25.1777 12.0327 25.0326V23.9954C11.7197 23.8184 11.4592 23.5615 11.2777 23.251C11.0963 22.9405 11.0005 22.5874 11 22.2278V20.6175H21.6161Z" fill="white"/>
</g>
<path d="M30 24.241L29 28.241C28.9572 28.4121 28.8699 28.5688 28.7469 28.6953C28.624 28.8217 28.4698 28.9134 28.3 28.961C28.2032 28.9924 28.1016 29.006 28 29.001C27.8684 29.0018 27.7379 28.9766 27.6161 28.9268C27.4943 28.8771 27.3834 28.8037 27.29 28.711L26.57 28.001C25.7478 28.7378 24.8494 29.3848 23.89 29.931L23.38 30.201C21.1023 31.3904 18.5695 32.0081 16 32.001C11.7565 32.001 7.68687 30.3153 4.68629 27.3148C1.68571 24.3142 7.48154e-07 20.2445 7.48154e-07 16.001C-0.000383589 14.7513 0.147313 13.506 0.440001 12.291C0.517141 12.0516 0.68171 11.85 0.90089 11.7265C1.12007 11.603 1.37775 11.5666 1.62255 11.6246C1.86735 11.6827 2.08127 11.8309 2.22166 12.0396C2.36205 12.2484 2.41859 12.5024 2.38 12.751C2.12817 13.8161 2.00065 14.9067 2 16.001C1.99928 18.4501 2.64102 20.8565 3.86116 22.98C5.0813 25.1035 6.83713 26.8698 8.95336 28.1025C11.0696 29.3352 13.4722 29.9912 15.9212 30.0049C18.3702 30.0187 20.78 29.3898 22.91 28.181L23 28.121C23.7695 27.6809 24.4931 27.165 25.16 26.581L24.29 25.711C24.1615 25.5828 24.0703 25.4219 24.0262 25.2457C23.9822 25.0696 23.9869 24.8847 24.04 24.711C24.0876 24.5412 24.1793 24.387 24.3058 24.2641C24.4322 24.1412 24.5889 24.0539 24.76 24.011L28.76 23.011C28.9311 22.9617 29.1122 22.959 29.2847 23.0031C29.4572 23.0472 29.6147 23.1366 29.7411 23.262C29.8675 23.3874 29.9582 23.5442 30.0037 23.7163C30.0492 23.8884 30.0479 24.0696 30 24.241Z" fill="white"/>
<path d="M32.0035 16.0007C32.0039 17.2504 31.8562 18.4957 31.5635 19.7107C31.5107 19.9344 31.3825 20.1331 31.2003 20.2733C31.0182 20.4136 30.7933 20.4868 30.5635 20.4807C30.4872 20.4911 30.4098 20.4911 30.3335 20.4807C30.0767 20.4189 29.8547 20.2581 29.7161 20.0333C29.5774 19.8084 29.5334 19.5379 29.5935 19.2807C29.8578 18.2071 29.9954 17.1063 30.0035 16.0007C30.0042 13.5516 29.3625 11.1452 28.1424 9.02169C26.9222 6.89819 25.1664 5.13192 23.0502 3.89923C20.9339 2.66653 18.5314 2.01055 16.0823 1.99676C13.6333 1.98297 11.2235 2.61187 9.09353 3.82066C8.29006 4.27838 7.53606 4.81791 6.84353 5.43066L7.71353 6.29066C7.84207 6.41894 7.93325 6.5798 7.9773 6.75597C8.02134 6.93215 8.01658 7.11699 7.96353 7.29066C7.9159 7.46047 7.82421 7.61466 7.69776 7.73759C7.57131 7.86053 7.4146 7.94784 7.24353 7.99066L3.24353 8.99066L3.00353 9.00066C2.87192 9.00143 2.74146 8.9762 2.61962 8.92644C2.49778 8.87667 2.38697 8.80335 2.29353 8.71066C2.16325 8.58345 2.07018 8.42307 2.02436 8.24685C1.97855 8.07062 1.98171 7.88522 2.03353 7.71066L3.03353 3.71066C3.0779 3.54143 3.16589 3.38679 3.28873 3.2622C3.41156 3.13761 3.56493 3.04743 3.73353 3.00066C3.9072 2.94761 4.09204 2.94285 4.26822 2.98689C4.44439 3.03094 4.60525 3.12212 4.73353 3.25066L5.42353 4.00066C6.25222 3.27042 7.1536 2.62705 8.11353 2.08066C10.5476 0.70095 13.3009 -0.0163662 16.0987 0.00028337C18.8966 0.016933 21.6412 0.766967 24.0586 2.17555C26.4761 3.58414 28.4819 5.60202 29.876 8.02789C31.2701 10.4537 32.0036 13.2028 32.0035 16.0007Z" fill="white"/>
</g>
<defs>
<clipPath id="clip0_8856_59837">
<rect width="32" height="32" fill="white"/>
</clipPath>
<clipPath id="clip1_8856_59837">
<rect width="10.6161" height="18.58" fill="white" transform="translate(11 7)"/>
</clipPath>
</defs>
</svg>
