<svg width="28" height="28" viewBox="0 0 28 28" fill="none" xmlns="http://www.w3.org/2000/svg">
<g clip-path="url(#clip0_2349_10094)">
<path d="M18.6667 5.83333H17.5V3.5H15.1667V5.83333H12.8333V3.5H10.5V5.83333H9.33332C6.75499 5.83333 4.66666 7.92167 4.66666 10.5V22.1667C4.66666 24.745 6.75499 26.8333 9.33332 26.8333H18.6667C21.245 26.8333 23.3333 24.745 23.3333 22.1667V10.5C23.3333 7.92167 21.245 5.83333 18.6667 5.83333ZM14 22.1667C12.39 22.1667 11.0833 20.8833 11.0833 19.2967C11.0833 18.025 11.585 17.675 14 14.875C16.3917 17.6517 16.9167 18.025 16.9167 19.2967C16.9167 20.8833 15.61 22.1667 14 22.1667ZM18.6667 12.8333H9.33332V10.5H18.6667V12.8333Z" fill="white"/>
<path d="M18.6666 1.16602H9.33331V3.49935H18.6666V1.16602Z" fill="white"/>
</g>
<defs>
<clipPath id="clip0_2349_10094">
<rect width="28" height="28" fill="white"/>
</clipPath>
</defs>
</svg>
