<svg width="36" height="33" viewBox="0 0 36 33" fill="none" xmlns="http://www.w3.org/2000/svg">
<path d="M30.9786 13.9542H29.9546V11.9062H27.9067V13.9542H25.8588V11.9062H23.8109V13.9542H22.787C20.524 13.9542 18.6912 15.787 18.6912 18.05V28.2895C18.6912 30.5524 20.524 32.3853 22.787 32.3853H30.9786C33.2415 32.3853 35.0744 30.5524 35.0744 28.2895V18.05C35.0744 15.787 33.2415 13.9542 30.9786 13.9542ZM26.8828 28.2895C25.4697 28.2895 24.3229 27.1631 24.3229 25.7706C24.3229 24.6545 24.7632 24.3473 26.8828 21.8898C28.9819 24.3268 29.4427 24.6545 29.4427 25.7706C29.4427 27.1631 28.2958 28.2895 26.8828 28.2895ZM30.9786 20.0979H22.787V18.05H30.9786V20.0979Z" fill="white"/>
<path d="M30.9751 9.85547H22.7834V11.9034H30.9751V9.85547Z" fill="white"/>
<path d="M19.7921 2.37445H19.1987V1.1875H18.0117V2.37445H16.8247V1.1875H15.6378V2.37445H15.0443C13.7327 2.37445 12.6704 3.43678 12.6704 4.74836V10.6831C12.6704 11.9947 13.7327 13.057 15.0443 13.057H19.7921C21.1037 13.057 22.166 11.9947 22.166 10.6831V4.74836C22.166 3.43678 21.1037 2.37445 19.7921 2.37445ZM17.4182 10.6831C16.5992 10.6831 15.9345 10.0303 15.9345 9.22318C15.9345 8.57629 16.1897 8.39825 17.4182 6.9739C18.6349 8.38638 18.9019 8.57629 18.9019 9.22318C18.9019 10.0303 18.2372 10.6831 17.4182 10.6831ZM19.7921 5.93532H15.0443V4.74836H19.7921V5.93532Z" fill="white"/>
<path d="M19.78 0H15.0322V1.18695H19.78V0Z" fill="white"/>
<path d="M12.2874 13.9542H11.2635V11.9062H9.21558V13.9542H7.16767V11.9062H5.11976V13.9542H4.09581C1.83288 13.9542 0 15.787 0 18.05V28.2895C0 30.5524 1.83288 32.3853 4.09581 32.3853H12.2874C14.5504 32.3853 16.3832 30.5524 16.3832 28.2895V18.05C16.3832 15.787 14.5504 13.9542 12.2874 13.9542ZM8.19162 28.2895C6.77857 28.2895 5.63174 27.1631 5.63174 25.7706C5.63174 24.6545 6.07204 24.3473 8.19162 21.8898C10.2907 24.3268 10.7515 24.6545 10.7515 25.7706C10.7515 27.1631 9.60468 28.2895 8.19162 28.2895ZM12.2874 20.0979H4.09581V18.05H12.2874V20.0979Z" fill="white"/>
<path d="M12.28 9.85547H4.08838V11.9034H12.28V9.85547Z" fill="white"/>
</svg>
