<svg width="166" height="124" viewBox="0 0 166 124" fill="none" xmlns="http://www.w3.org/2000/svg">
<path d="M113.102 99.6641C116.365 100.48 123.103 104.56 123.942 114.351" stroke="#FF3D00"/>
<path d="M0.5 88.8265C6.56146 91.8572 19.6635 94.7714 23.5802 82.1822C24.5127 79.268 24.5593 73.2299 17.2856 72.3906C18.2181 76.587 20.7826 90.2253 36.519 76.2373" stroke="#1480CE"/>
<path d="M118.344 25.1791C137.577 25.1791 129.884 6.29537 141.074 4.54688" stroke="#FF0000"/>
<circle cx="83.0264" cy="60.1475" r="41.9639" fill="#0A7B37"/>
<circle cx="94.923" cy="119.599" r="4.19639" fill="#59B286"/>
<circle cx="131.985" cy="56.6495" r="3.69639" stroke="#7B44F1"/>
<circle cx="41.0636" cy="106.31" r="3.69639" stroke="#7B44F1"/>
<circle cx="32.673" cy="43.3605" r="3.69639" stroke="#FC9113"/>
<circle cx="161.306" cy="93.3214" r="3.69639" stroke="#FC9113"/>
<circle cx="69.7433" cy="4.19639" r="4.19639" fill="#59B286"/>
<circle cx="83.0357" cy="115.403" r="2.0982" fill="#59B286"/>
<circle cx="80.9263" cy="10.4927" r="2.0982" fill="#FF0000"/>
<circle cx="83.0246" cy="60.1457" r="33.9699" stroke="white" stroke-width="2"/>
<path d="M75.6571 69.6543L65.9768 59.7897L62.75 63.0779L75.6571 76.2308L103.315 48.046L100.088 44.7578L75.6571 69.6543Z" fill="white"/>
</svg>
