<svg width="32" height="32" viewBox="0 0 32 32" fill="none" xmlns="http://www.w3.org/2000/svg">
<path d="M24.2349 6.42592L20.2349 2.78094L15.7349 1.96094L11.7499 2.50094L7.84992 5.88592L6.42492 9.85592L6.04492 12.9559L6.42492 13.6209L10.6749 22.9059L14.6349 27.8159L16.5649 28.0409L18.6249 26.7109L24.9649 15.7459L25.8199 10.9609L24.2349 6.42592ZM15.9999 19.3559C14.5027 19.3559 13.0392 18.912 11.7943 18.0802C10.5494 17.2484 9.57912 16.0661 9.00617 14.6829C8.43322 13.2996 8.28332 11.7775 8.57542 10.3091C8.86747 8.84067 9.58847 7.49182 10.6471 6.43312C11.7058 5.37447 13.0547 4.65349 14.5231 4.36139C15.9915 4.0693 17.5136 4.21922 18.8969 4.79217C20.2801 5.36512 21.4624 6.33542 22.2942 7.58027C23.126 8.82517 23.5699 10.2887 23.5699 11.7859C23.5699 13.7936 22.7724 15.7191 21.3527 17.1387C19.9331 18.5584 18.0076 19.3559 15.9999 19.3559Z" fill="white"/>
<path d="M16 28.4316C16.5627 28.433 17.1173 28.2971 17.6157 28.0357C18.1141 27.7743 18.5412 27.3953 18.86 26.9316C22.29 22.0766 26.36 15.5166 26.36 11.8516C26.36 9.09995 25.2669 6.461 23.3212 4.51533C21.3755 2.56964 18.7366 1.47656 15.985 1.47656C13.2333 1.47656 10.5944 2.56964 8.64874 4.51533C6.70304 6.461 5.60999 9.09995 5.60999 11.8516C5.60999 15.5166 9.69498 22.0766 13.11 26.9316C13.4316 27.3996 13.8635 27.7812 14.3675 28.0428C14.8715 28.3044 15.4321 28.4379 16 28.4316ZM16 2.49656C18.4856 2.49921 20.8686 3.48778 22.6262 5.24535C24.3837 7.00295 25.3723 9.38595 25.375 11.8716C25.375 15.4566 20.78 22.4966 18.04 26.3716C17.809 26.6977 17.5032 26.9636 17.1483 27.1471C16.7933 27.3307 16.3995 27.4265 16 27.4265C15.6004 27.4265 15.2066 27.3307 14.8517 27.1471C14.4967 26.9636 14.1909 26.6977 13.96 26.3716C11.22 22.4916 6.62499 15.4516 6.62499 11.8716C6.62764 9.38595 7.61619 7.00295 9.37379 5.24535C11.1313 3.48778 13.5144 2.49921 16 2.49656Z" fill="white"/>
<path d="M23.225 24.6261C23.1593 24.6137 23.0919 24.6142 23.0264 24.6278C22.961 24.6414 22.8989 24.6678 22.8436 24.7054C22.7884 24.743 22.7411 24.7911 22.7044 24.847C22.6678 24.9029 22.6425 24.9655 22.63 25.0311C22.6175 25.0968 22.6181 25.1643 22.6317 25.2297C22.6453 25.2951 22.6717 25.3573 22.7093 25.4125C22.7469 25.4678 22.795 25.5151 22.8509 25.5517C22.9068 25.5884 22.9693 25.6137 23.035 25.6261C26.11 26.2361 26.785 27.0161 26.785 27.2661C26.785 27.8061 24.61 28.9861 19.365 29.3861C17.1249 29.5561 14.8751 29.5561 12.635 29.3861C7.38995 28.9861 5.21495 27.8061 5.21495 27.2661C5.21495 27.0161 5.88995 26.2361 8.96495 25.6261C9.09755 25.6009 9.21475 25.5241 9.2907 25.4125C9.36665 25.3009 9.39515 25.1637 9.36995 25.0311C9.34475 24.8985 9.26795 24.7814 9.15635 24.7054C9.04475 24.6295 8.90755 24.6009 8.77495 24.6261C6.69495 25.0361 4.21497 25.8211 4.21497 27.2461C4.21497 29.5461 10.6 30.2161 12.555 30.3661C13.66 30.4511 14.82 30.4961 16 30.4961C17.18 30.4961 18.34 30.4511 19.445 30.3661C21.4 30.2161 27.785 29.5461 27.785 27.2461C27.785 25.8211 25.305 25.0361 23.225 24.6261Z" fill="white"/>
<path d="M17.9619 8.37056H17.4954V7.4375H16.5623V8.37056H15.6292V7.4375H14.6962V8.37056H14.2296C13.1986 8.37056 12.3635 9.20565 12.3635 10.2367V14.902C12.3635 15.933 13.1986 16.7681 14.2296 16.7681H17.9619C18.9929 16.7681 19.828 15.933 19.828 14.902V10.2367C19.828 9.20565 18.9929 8.37056 17.9619 8.37056ZM16.0958 14.902C15.452 14.902 14.9294 14.3888 14.9294 13.7543C14.9294 13.2458 15.1301 13.1058 16.0958 11.9862C17.0522 13.0965 17.2621 13.2458 17.2621 13.7543C17.2621 14.3888 16.7396 14.902 16.0958 14.902ZM17.9619 11.1697H14.2296V10.2367H17.9619V11.1697Z" fill="white"/>
<path d="M17.9586 6.5H14.2263V7.43306H17.9586V6.5Z" fill="white"/>
</svg>
