<svg width="16" height="12" viewBox="0 0 16 12" fill="none" xmlns="http://www.w3.org/2000/svg">
<path d="M13.0909 7.47195V1.65376C13.0909 0.853764 12.4364 0.199219 11.6364 0.199219H1.45455C0.654545 0.199219 0 0.853764 0 1.65376V7.47195C0 8.27195 0.654545 8.92649 1.45455 8.92649H11.6364C12.4364 8.92649 13.0909 8.27195 13.0909 7.47195ZM6.54545 6.74467C5.33818 6.74467 4.36364 5.77013 4.36364 4.56286C4.36364 3.35558 5.33818 2.38104 6.54545 2.38104C7.75273 2.38104 8.72727 3.35558 8.72727 4.56286C8.72727 5.77013 7.75273 6.74467 6.54545 6.74467ZM16 2.38104V10.381C16 11.181 15.3455 11.8356 14.5455 11.8356H2.18182V10.381H14.5455V2.38104H16Z" fill="#5E72E4"/>
</svg>
