<svg width="36" height="36" viewBox="0 0 36 36" fill="none" xmlns="http://www.w3.org/2000/svg">
<path d="M33.9807 9.47752C32.4153 6.60729 30.1078 4.21015 27.2993 2.5366C25.0264 1.18094 22.4821 0.344071 19.8482 0.0857857C17.2143 -0.1725 14.5559 0.154178 12.0629 1.04247C9.60049 1.92112 7.36141 3.33055 5.50432 5.1709C3.64724 7.01125 2.2176 9.23749 1.31671 11.6919L2.70795 12.2212C3.8825 9.27708 5.89611 6.74296 8.49865 4.93359C11.0635 3.14513 14.0992 2.15345 17.2253 2.08285C20.3513 2.01224 23.4287 2.86584 26.0717 4.53667C28.513 6.08541 30.4817 8.27546 31.7624 10.8675L30.0822 11.9202L35.2982 13.9026L35.6895 8.40679L33.9807 9.47752Z" fill="white"/>
<path d="M1.70884 26.5189C3.27418 29.3891 5.58166 31.7862 8.39017 33.4598C10.6631 34.8154 13.2074 35.6523 15.8413 35.9106C18.4752 36.1689 21.1336 35.8422 23.6266 34.9539C26.089 34.0753 28.3281 32.6658 30.1852 30.8255C32.0423 28.9851 33.4719 26.7589 34.3728 24.3045L32.9816 23.7752C31.807 26.7193 29.7934 29.2534 27.1909 31.0628C24.626 32.8512 21.5903 33.8429 18.4642 33.9135C15.3382 33.9841 12.2608 33.1305 9.61783 31.4597C7.17648 29.911 5.20786 27.7209 3.92712 25.1289L5.60731 24.0761L0.391325 22.0938L0 27.5896L1.70884 26.5189Z" fill="white"/>
<path d="M12.8502 23.4864C12.8149 23.5218 12.7869 23.5637 12.7678 23.6099C12.7486 23.656 12.7388 23.7055 12.7388 23.7555C12.7388 23.8054 12.7486 23.8549 12.7678 23.9011C12.7869 23.9472 12.8149 23.9892 12.8502 24.0245C12.8856 24.0598 12.9275 24.0878 12.9736 24.107C13.0198 24.1261 13.0693 24.1359 13.1192 24.1359C13.1692 24.1359 13.2187 24.1261 13.2648 24.107C13.311 24.0878 13.3529 24.0598 13.3882 24.0245C13.4596 23.9531 13.4997 23.8564 13.4997 23.7555C13.4997 23.6546 13.4596 23.5578 13.3882 23.4864C13.3169 23.4151 13.2201 23.375 13.1192 23.375C13.0183 23.375 12.9216 23.4151 12.8502 23.4864Z" fill="white"/>
<path d="M27.7043 9.58437H27.7047C28.1963 9.58545 28.6674 9.78123 29.015 10.1288L29.015 10.1288C29.3625 10.4764 29.5583 10.9475 29.5594 11.4391V11.4394V22.4275V22.4373L29.5591 22.4373C29.5244 22.9657 29.3786 23.3582 29.1417 23.6433C28.9046 23.9286 28.5887 24.0916 28.2416 24.1837C27.8963 24.2753 27.5129 24.2988 27.1312 24.3006C26.9397 24.3015 26.7462 24.2969 26.5566 24.2922L26.528 24.2915C26.3935 24.2881 26.2611 24.2848 26.1314 24.2833C25.371 29.8043 17.5375 29.8129 16.7921 24.2825H14.2535C14.1132 24.2825 13.9786 24.2268 13.8795 24.1276C13.7803 24.0284 13.7246 23.8939 13.7246 23.7536C13.7246 23.6133 13.7803 23.4788 13.8795 23.3796C13.9786 23.2805 14.1132 23.2247 14.2535 23.2247H16.811C17.5526 17.7002 25.3867 17.6968 26.1319 23.2247H27.7043C27.9158 23.2247 28.1185 23.1407 28.2681 22.9912C28.2681 22.9912 28.2681 22.9912 28.2681 22.9912M27.7043 9.58437L28.6516 22.4275C28.6516 22.6787 28.5518 22.9196 28.3742 23.0973L28.2681 22.9912M27.7043 9.58437L9.13833 9.58437L9.138 9.58438C8.64643 9.58545 8.17531 9.78122 7.82773 10.1288L7.82772 10.1288C7.48014 10.4764 7.28438 10.9475 7.28329 11.4391V11.4394L7.28329 22.4275L7.28329 22.4278C7.28438 22.9194 7.48014 23.3905 7.82772 23.7381L7.82773 23.7381C8.17531 24.0857 8.64643 24.2814 9.138 24.2825H9.13833H11.9801C12.1203 24.2825 12.2549 24.2268 12.3541 24.1276C12.4532 24.0284 12.509 23.8939 12.509 23.7536C12.509 23.6133 12.4532 23.4788 12.3541 23.3796C12.2549 23.2805 12.1203 23.2247 11.9801 23.2247H9.13833C8.92689 23.2247 8.7241 23.1407 8.57459 22.9912C8.42507 22.8417 8.34109 22.6389 8.34109 22.4275V15.189H10.4645C10.6047 15.189 10.7393 15.1332 10.8385 15.034C10.9376 14.9349 10.9934 14.8003 10.9934 14.6601C10.9934 14.5198 10.9376 14.3852 10.8385 14.2861C10.7393 14.1869 10.6047 14.1312 10.4645 14.1312H8.34109V12.9156H17.6635C17.8038 12.9156 17.9384 12.8598 18.0375 12.7606C18.1367 12.6615 18.1924 12.5269 18.1924 12.3867C18.1924 12.2464 18.1367 12.1118 18.0375 12.0127C17.9384 11.9135 17.8038 11.8578 17.6635 11.8578H8.33162C8.31829 11.5578 8.348 11.2736 8.4507 11.0571C8.50854 10.9351 8.58843 10.8369 8.69603 10.7667C8.80328 10.6969 8.94679 10.6493 9.14101 10.6422H27.7013C27.8946 10.6502 28.0381 10.6979 28.1457 10.7679C28.2537 10.8381 28.334 10.9362 28.3922 11.0576C28.4956 11.2734 28.5261 11.5569 28.5116 11.8578H26.7571C26.6168 11.8578 26.4823 11.9135 26.3831 12.0127C26.2839 12.1118 26.2282 12.2464 26.2282 12.3867C26.2282 12.5269 26.2839 12.6615 26.3831 12.7606C26.4823 12.8598 26.6168 12.9156 26.7571 12.9156H28.5016V14.1312H16.148C16.0077 14.1312 15.8731 14.1869 15.774 14.2861C15.6748 14.3852 15.6191 14.5198 15.6191 14.6601C15.6191 14.8003 15.6748 14.9349 15.774 15.034C15.8731 15.1332 16.0077 15.189 16.148 15.189H28.5016M27.7043 9.58437L28.5016 15.189M28.2681 22.9912C28.4176 22.8417 28.5016 22.6389 28.5016 22.4275V15.189M28.2681 22.9912L28.5016 15.189M21.4525 27.3926C20.4874 27.3926 19.5618 27.0092 18.8794 26.3268C18.1977 25.6451 17.8144 24.7207 17.8135 23.7567C18.0167 18.9259 24.8883 18.9271 25.0915 23.7567C25.0907 24.7207 24.7074 25.6451 24.0257 26.3268C23.3432 27.0092 22.4177 27.3926 21.4525 27.3926Z" fill="white" stroke="white" stroke-width="0.3"/>
<path d="M11.5299 14.2812C11.4294 14.2812 11.333 14.3212 11.262 14.3922C11.1909 14.4633 11.151 14.5597 11.151 14.6601C11.151 14.7606 11.1909 14.857 11.262 14.9281C11.333 14.9991 11.4294 15.039 11.5299 15.039C11.6304 15.039 11.7267 14.9991 11.7978 14.9281C11.8689 14.857 11.9088 14.7606 11.9088 14.6601C11.9088 14.5597 11.8689 14.4633 11.7978 14.3922C11.7267 14.3212 11.6304 14.2812 11.5299 14.2812Z" fill="white"/>
<path d="M15.278 14.9307C15.3494 14.8594 15.3894 14.7626 15.3894 14.6617C15.3894 14.5608 15.3494 14.464 15.278 14.3927C15.2067 14.3213 15.1099 14.2812 15.009 14.2812C14.9081 14.2812 14.8113 14.3213 14.74 14.3927C14.6686 14.464 14.6285 14.5608 14.6285 14.6617C14.6285 14.7626 14.6686 14.8594 14.74 14.9307C14.8113 15.0021 14.9081 15.0422 15.009 15.0422C15.1099 15.0422 15.2067 15.0021 15.278 14.9307Z" fill="white"/>
<path d="M13.8748 15.039C13.9753 15.039 14.0717 14.9991 14.1428 14.9281C14.2138 14.857 14.2537 14.7606 14.2537 14.6601C14.2537 14.5597 14.2138 14.4633 14.1428 14.3922C14.0717 14.3212 13.9753 14.2812 13.8748 14.2812H12.7382C12.6377 14.2812 12.5413 14.3212 12.4702 14.3922C12.3992 14.4633 12.3593 14.5597 12.3593 14.6601C12.3593 14.7606 12.3992 14.857 12.4702 14.9281C12.5413 14.9991 12.6377 15.039 12.7382 15.039H13.8748Z" fill="white"/>
<path d="M18.6583 12.7323C18.7392 12.7657 18.8292 12.7701 18.9129 12.7446C18.9967 12.7191 19.0691 12.6655 19.1177 12.5927C19.1664 12.5199 19.1884 12.4326 19.1799 12.3454C19.1714 12.2583 19.133 12.1768 19.0713 12.1147C18.6318 11.7093 18.1127 12.4898 18.6583 12.7323Z" fill="white"/>
<path d="M22.2072 12.7673C22.2569 12.7721 22.3071 12.7669 22.3549 12.7522C22.4027 12.7376 22.4471 12.7136 22.4856 12.6818C22.5241 12.65 22.556 12.6108 22.5794 12.5667C22.6028 12.5225 22.6173 12.4742 22.6221 12.4244C22.6268 12.3747 22.6216 12.3245 22.607 12.2767C22.5923 12.2289 22.5684 12.1845 22.5365 12.146C22.5047 12.1074 22.4656 12.0756 22.4214 12.0521C22.3772 12.0287 22.3289 12.0143 22.2791 12.0095C22.1786 12 22.0785 12.0307 22.0007 12.095C21.9229 12.1593 21.8738 12.2519 21.8643 12.3524C21.8547 12.4529 21.8855 12.5531 21.9498 12.6309C22.0141 12.7087 22.1066 12.7578 22.2072 12.7673Z" fill="white"/>
<path d="M25.4741 12.7323C25.555 12.7657 25.645 12.7701 25.7287 12.7446C25.8125 12.7191 25.8849 12.6655 25.9335 12.5927C25.9822 12.5199 26.0042 12.4326 25.9957 12.3454C25.9872 12.2583 25.9488 12.1768 25.8871 12.1147C25.4476 11.7093 24.9285 12.4898 25.4741 12.7323Z" fill="white"/>
<path d="M21.0701 12.7656C21.1706 12.7656 21.267 12.7257 21.338 12.6546C21.4091 12.5836 21.449 12.4872 21.449 12.3867C21.449 12.2862 21.4091 12.1898 21.338 12.1188C21.267 12.0477 21.1706 12.0078 21.0701 12.0078H19.9334C19.8329 12.0078 19.7365 12.0477 19.6655 12.1188C19.5944 12.1898 19.5545 12.2862 19.5545 12.3867C19.5545 12.4872 19.5944 12.5836 19.6655 12.6546C19.7365 12.7257 19.8329 12.7656 19.9334 12.7656H21.0701Z" fill="white"/>
<path d="M24.4857 12.7656C24.5862 12.7656 24.6826 12.7257 24.7537 12.6546C24.8247 12.5836 24.8646 12.4872 24.8646 12.3867C24.8646 12.2862 24.8247 12.1898 24.7537 12.1188C24.6826 12.0477 24.5862 12.0078 24.4857 12.0078H23.3491C23.2486 12.0078 23.1522 12.0477 23.0811 12.1188C23.0101 12.1898 22.9702 12.2862 22.9702 12.3867C22.9702 12.4872 23.0101 12.5836 23.0811 12.6546C23.1522 12.7257 23.2486 12.7656 23.3491 12.7656H24.4857Z" fill="white"/>
<path d="M23.4615 22.3485L21.0214 24.7924L19.3769 23.8073C19.2915 23.7686 19.1947 23.7631 19.1053 23.7917C19.016 23.8203 18.9405 23.881 18.8933 23.9621C18.8462 24.0432 18.8308 24.1389 18.8501 24.2306C18.8695 24.3225 18.9222 24.4038 18.998 24.459C19.0852 24.4893 21.0251 25.7359 21.0858 25.6487C21.1857 25.6455 21.2812 25.6065 21.3548 25.5388L24.0071 22.8865C24.0784 22.8142 24.1181 22.7165 24.1174 22.6148C24.1167 22.5132 24.0756 22.4161 24.0033 22.3447C23.9309 22.2734 23.8332 22.2337 23.7316 22.2344C23.63 22.2351 23.5328 22.2761 23.4615 22.3485Z" fill="white"/>
</svg>
