<svg width="15" height="16" viewBox="0 0 15 16" fill="none" xmlns="http://www.w3.org/2000/svg">
<path d="M14.6326 5.16406C14.5613 5.30231 14.4824 5.43655 14.3964 5.56618L12.3855 8.3817C12.2174 8.6166 11.9957 8.80806 11.7388 8.94021C11.4819 9.07237 11.1972 9.14141 10.9083 9.14163C10.7298 9.13874 10.5527 9.10923 10.3828 9.05406V14.8757L13.8774 15.9734C13.9338 15.9905 13.9925 15.9991 14.0514 15.9991C14.1309 15.9991 14.2095 15.9834 14.283 15.953C14.3564 15.9227 14.4231 15.8781 14.4792 15.8219C14.5354 15.7657 14.58 15.699 14.6104 15.6256C14.6408 15.5522 14.6564 15.4735 14.6564 15.3941V5.30981C14.6545 5.26043 14.6466 5.21147 14.6326 5.16406Z" fill="white"/>
<path d="M6.75948 4.16406L5.48828 4.514V15.8527L9.17005 14.8394V8.01755L7.41761 5.56442C7.11535 5.14128 6.89237 4.66681 6.75948 4.16406Z" fill="white"/>
<path d="M0.243897 3.47897C0.168185 3.53526 0.106694 3.60848 0.0643433 3.69278C0.0219928 3.77709 -4.23917e-05 3.87013 6.12259e-08 3.96447V14.0487C-3.56088e-05 14.1788 0.0418803 14.3054 0.119525 14.4098C0.19717 14.5142 0.306403 14.5907 0.431008 14.6281L4.28006 15.8371V4.48493L0.778968 3.38509C0.688646 3.35785 0.593199 3.35216 0.500279 3.36846C0.407359 3.38476 0.319551 3.42261 0.243897 3.47897Z" fill="white"/>
<path d="M10.4158 7.67918C10.4718 7.75756 10.5457 7.82145 10.6313 7.86553C10.717 7.9096 10.8119 7.9326 10.9082 7.9326C11.0045 7.9326 11.0995 7.9096 11.1851 7.86553C11.2708 7.82145 11.3446 7.75756 11.4006 7.67918L13.4116 4.86399C13.74 4.40405 13.9354 3.86251 13.9763 3.2988C14.0172 2.73509 13.9021 2.17101 13.6434 1.66847C13.3848 1.16594 12.9927 0.744367 12.5102 0.450038C12.0277 0.15571 11.4734 0 10.9082 0C10.343 0 9.78877 0.15571 9.30626 0.450038C8.82376 0.744367 8.43167 1.16594 8.17303 1.66847C7.91439 2.17101 7.7992 2.73509 7.8401 3.2988C7.881 3.86251 8.07641 4.40405 8.40488 4.86399L10.4158 7.67918ZM10.9082 2.06768C11.1077 2.06768 11.3026 2.12682 11.4685 2.23763C11.6343 2.34844 11.7636 2.50593 11.8399 2.6902C11.9162 2.87446 11.9362 3.07723 11.8973 3.27284C11.8584 3.46846 11.7623 3.64814 11.6213 3.78917C11.4803 3.9302 11.3006 4.02624 11.105 4.06516C10.9093 4.10407 10.7066 4.0841 10.5223 4.00777C10.338 3.93144 10.1806 3.80219 10.0697 3.63636C9.95894 3.47052 9.89979 3.27555 9.89979 3.07611C9.89979 2.94368 9.92587 2.81254 9.97655 2.69019C10.0272 2.56785 10.1015 2.45668 10.1951 2.36303C10.2888 2.26939 10.4 2.19511 10.5223 2.14444C10.6447 2.09376 10.7758 2.06768 10.9082 2.06768Z" fill="white"/>
</svg>
