<svg width="155" height="169" viewBox="0 0 155 169" fill="none" xmlns="http://www.w3.org/2000/svg">
<path d="M154.446 54.5312C153.693 55.9905 152.861 57.4075 151.953 58.7758L130.727 88.4949C128.952 90.9744 126.612 92.9953 123.9 94.3903C121.189 95.7852 118.184 96.514 115.134 96.5163C113.25 96.4858 111.38 96.1743 109.587 95.592V157.042L146.475 168.629C147.07 168.81 147.689 168.901 148.311 168.9C149.15 168.9 149.98 168.735 150.755 168.414C151.53 168.093 152.234 167.623 152.827 167.03C153.42 166.437 153.891 165.733 154.211 164.958C154.532 164.183 154.697 163.352 154.697 162.514V56.0697C154.678 55.5485 154.593 55.0317 154.446 54.5312Z" fill="url(#paint0_linear_5113_18576)"/>
<path d="M71.3698 43.9766L57.9517 47.6704V167.356L96.8144 156.659V84.6519L78.3166 58.758C75.1262 54.2915 72.7724 49.2833 71.3698 43.9766Z" fill="url(#paint1_linear_5113_18576)"/>
<path d="M2.57445 36.739C1.77527 37.3331 1.1262 38.106 0.679174 38.9959C0.232144 39.8857 -0.000447464 40.8678 6.46267e-07 41.8637V148.308C-0.000375868 149.681 0.442066 151.017 1.26164 152.119C2.08122 153.221 3.23423 154.029 4.54949 154.423L45.178 167.185V47.3574L8.22237 35.748C7.26898 35.4605 6.26149 35.4004 5.28067 35.5725C4.29986 35.7446 3.37301 36.1441 2.57445 36.739Z" fill="url(#paint2_linear_5113_18576)"/>
<path d="M109.935 81.0573C110.526 81.8847 111.306 82.559 112.21 83.0243C113.114 83.4895 114.116 83.7322 115.132 83.7322C116.149 83.7322 117.151 83.4895 118.055 83.0243C118.959 82.559 119.739 81.8847 120.33 81.0573L141.556 51.3417C145.024 46.4868 147.086 40.7706 147.518 34.8204C147.95 28.8702 146.734 22.916 144.004 17.6115C141.274 12.307 137.135 7.85714 132.042 4.75036C126.949 1.64359 121.098 0 115.132 0C109.167 0 103.316 1.64359 98.2231 4.75036C93.13 7.85714 88.9913 12.307 86.2613 17.6115C83.5312 22.916 82.3153 28.8702 82.747 34.8204C83.1787 40.7706 85.2414 46.4868 88.7086 51.3417L109.935 81.0573ZM115.132 21.8253C117.238 21.8253 119.296 22.4496 121.046 23.6192C122.797 24.7889 124.161 26.4513 124.967 28.3963C125.772 30.3413 125.983 32.4815 125.572 34.5463C125.162 36.6112 124.148 38.5078 122.659 39.9965C121.171 41.4851 119.274 42.4989 117.209 42.9096C115.144 43.3203 113.004 43.1095 111.059 42.3039C109.114 41.4982 107.452 40.1339 106.282 38.3834C105.112 36.633 104.488 34.575 104.488 32.4697C104.488 31.0719 104.763 29.6877 105.298 28.3962C105.833 27.1048 106.617 25.9313 107.606 24.9429C108.594 23.9545 109.768 23.1704 111.059 22.6355C112.35 22.1006 113.735 21.8253 115.132 21.8253Z" fill="url(#paint3_linear_5113_18576)"/>
<defs>
<linearGradient id="paint0_linear_5113_18576" x1="103.61" y1="57.9169" x2="190.473" y2="93.9803" gradientUnits="userSpaceOnUse">
<stop stop-color="#FFDD7C"/>
<stop offset="1" stop-color="#EAAE03"/>
</linearGradient>
<linearGradient id="paint1_linear_5113_18576" x1="52.8017" y1="47.629" x2="131.846" y2="73.8366" gradientUnits="userSpaceOnUse">
<stop stop-color="#FFDD7C"/>
<stop offset="1" stop-color="#EAAE03"/>
</linearGradient>
<linearGradient id="paint2_linear_5113_18576" x1="-5.98686" y1="39.3756" x2="84.2414" y2="71.9533" gradientUnits="userSpaceOnUse">
<stop stop-color="#FFDD7C"/>
<stop offset="1" stop-color="#EAAE03"/>
</linearGradient>
<linearGradient id="paint3_linear_5113_18576" x1="74.056" y1="2.47875" x2="162.03" y2="74.2991" gradientUnits="userSpaceOnUse">
<stop stop-color="#FFDD7C"/>
<stop offset="1" stop-color="#EAAE03"/>
</linearGradient>
</defs>
</svg>
