<svg width="14" height="16" viewBox="0 0 14 16" fill="none" xmlns="http://www.w3.org/2000/svg">
<path d="M6.8623 8C7.65343 8 8.42679 7.76541 9.08459 7.32588C9.74238 6.88635 10.2551 6.26164 10.5578 5.53074C10.8606 4.79983 10.9398 3.99556 10.7854 3.21964C10.6311 2.44372 10.2501 1.73098 9.69073 1.17157C9.13132 0.612165 8.41859 0.231202 7.64267 0.0768607C6.86674 -0.0774802 6.06247 0.00173313 5.33157 0.304484C4.60067 0.607234 3.97595 1.11992 3.53643 1.77772C3.0969 2.43552 2.8623 3.20888 2.8623 4C2.8623 5.06087 3.28373 6.07828 4.03388 6.82843C4.78402 7.57857 5.80144 8 6.8623 8ZM6.8623 1.14286C7.42739 1.14286 7.97979 1.31043 8.44965 1.62437C8.9195 1.93832 9.28571 2.38455 9.50196 2.90662C9.71821 3.42869 9.77479 4.00317 9.66455 4.5574C9.5543 5.11163 9.28219 5.62073 8.88261 6.02031C8.48303 6.41989 7.97394 6.692 7.41971 6.80225C6.86547 6.91249 6.291 6.85591 5.76892 6.63966C5.24685 6.42341 4.80062 6.0572 4.48668 5.58734C4.17273 5.11749 4.00516 4.56509 4.00516 4C4.00516 3.24224 4.30618 2.51551 4.842 1.9797C5.37782 1.44388 6.10454 1.14286 6.8623 1.14286Z" fill="#5E72E4"/>
<path d="M7.42857 9.14453H6.28571C4.61864 9.14453 3.01984 9.80677 1.84104 10.9856C0.662243 12.1644 0 13.7632 0 15.4302C0 15.5818 0.060204 15.7271 0.167368 15.8343C0.274531 15.9415 0.419876 16.0017 0.571428 16.0017H13.1429C13.2944 16.0017 13.4398 15.9415 13.5469 15.8343C13.6541 15.7271 13.7143 15.5818 13.7143 15.4302C13.7143 13.7632 13.052 12.1644 11.8732 10.9856C10.6944 9.80677 9.09564 9.14453 7.42857 9.14453ZM1.17714 14.8588C1.31765 13.602 1.91629 12.4411 2.85867 11.5978C3.80106 10.7545 5.02111 10.288 6.28571 10.2874H7.42857C8.69318 10.288 9.91323 10.7545 10.8556 11.5978C11.798 12.4411 12.3966 13.602 12.5371 14.8588H1.17714Z" fill="#5E72E4"/>
</svg>
