<svg width="32" height="26" viewBox="0 0 32 26" fill="none" xmlns="http://www.w3.org/2000/svg">
<path d="M7.64926 25.5029C6.94322 25.5029 6.25304 25.2935 5.66599 24.9012C5.07894 24.509 4.62139 23.9515 4.3512 23.2992C4.08101 22.6469 4.01032 21.9291 4.14806 21.2366C4.2858 20.5442 4.62579 19.9081 5.12504 19.4088C5.62428 18.9096 6.26036 18.5696 6.95283 18.4319C7.6453 18.2941 8.36307 18.3648 9.01536 18.635C9.66765 18.9052 10.2252 19.3628 10.6174 19.9498C11.0097 20.5369 11.2191 21.227 11.2191 21.9331C11.2178 22.8795 10.8413 23.7868 10.1721 24.456C9.50294 25.1252 8.59565 25.5016 7.64926 25.5029ZM7.64926 20.4032C7.34667 20.4032 7.05088 20.4929 6.79929 20.661C6.54769 20.8291 6.3516 21.068 6.23581 21.3476C6.12001 21.6272 6.08971 21.9348 6.14875 22.2315C6.20778 22.5283 6.35349 22.8009 6.56745 23.0149C6.78141 23.2288 7.05402 23.3746 7.35079 23.4336C7.64756 23.4926 7.95518 23.4623 8.23473 23.3465C8.51429 23.2307 8.75323 23.0346 8.92133 22.783C9.08944 22.5315 9.17917 22.2357 9.17917 21.9331C9.17917 21.5273 9.01798 21.1382 8.73107 20.8513C8.44416 20.5644 8.05502 20.4032 7.64926 20.4032Z" fill="white"/>
<path d="M23.984 25.5029C23.2779 25.5029 22.5878 25.2935 22.0007 24.9012C21.4137 24.509 20.9561 23.9515 20.6859 23.2992C20.4157 22.6469 20.345 21.9291 20.4828 21.2366C20.6205 20.5442 20.9605 19.9081 21.4598 19.4088C21.959 18.9096 22.5951 18.5696 23.2875 18.4319C23.98 18.2941 24.6978 18.3648 25.3501 18.635C26.0024 18.9052 26.5599 19.3628 26.9521 19.9498C27.3444 20.5369 27.5538 21.227 27.5538 21.9331C27.5526 22.8795 27.1761 23.7868 26.5069 24.456C25.8377 25.1252 24.9304 25.5016 23.984 25.5029ZM23.984 20.4032C23.6814 20.4032 23.3856 20.4929 23.134 20.661C22.8824 20.8291 22.6863 21.068 22.5705 21.3476C22.4547 21.6272 22.4244 21.9348 22.4835 22.2315C22.5425 22.5283 22.6882 22.8009 22.9022 23.0149C23.1161 23.2288 23.3887 23.3746 23.6855 23.4336C23.9823 23.4926 24.2899 23.4623 24.5694 23.3465C24.849 23.2307 25.0879 23.0346 25.256 22.783C25.4242 22.5315 25.5139 22.2357 25.5139 21.9331C25.5139 21.5273 25.3527 21.1382 25.0658 20.8513C24.7789 20.5644 24.3897 20.4032 23.984 20.4032Z" fill="white"/>
<path d="M31.5586 12.5271L27.9888 5.38749C27.9462 5.30233 27.8807 5.23078 27.7996 5.18094C27.7184 5.1311 27.625 5.10496 27.5298 5.10548H20.3902C20.255 5.10548 20.1253 5.1592 20.0296 5.25484C19.934 5.35048 19.8802 5.48019 19.8802 5.61545V19.838C20.3515 18.9237 21.1161 18.1942 22.0516 17.7665C22.9871 17.3388 24.0391 17.2377 25.0388 17.4795C26.0386 17.7213 26.9282 18.2919 27.5648 19.0997C28.2015 19.9076 28.5484 20.9059 28.5497 21.9345H31.0996C31.2348 21.9345 31.3646 21.8808 31.4602 21.7851C31.5558 21.6895 31.6096 21.5598 31.6096 21.4245V12.755C31.6104 12.6761 31.593 12.5981 31.5586 12.5271ZM21.4102 12.2451V6.63539H26.8995L29.7043 12.2451H21.4102Z" fill="white"/>
<path d="M17.849 0H1.01994C0.749435 0 0.490009 0.107458 0.298734 0.298734C0.107458 0.490009 0 0.749435 0 1.01994V20.9088C0 21.1793 0.107458 21.4387 0.298734 21.63C0.490009 21.8213 0.749435 21.9287 1.01994 21.9287H3.05982C3.05982 20.7114 3.54338 19.544 4.40412 18.6833C5.26486 17.8225 6.43228 17.339 7.64955 17.339C8.86682 17.339 10.0342 17.8225 10.895 18.6833C11.7557 19.544 12.2393 20.7114 12.2393 21.9287H18.3589C18.4942 21.9287 18.6239 21.875 18.7195 21.7793C18.8152 21.6837 18.8689 21.554 18.8689 21.4187V1.01994C18.8689 0.749435 18.7614 0.490009 18.5702 0.298734C18.3789 0.107458 18.1195 0 17.849 0Z" fill="white"/>
</svg>
