<svg width="18" height="14" viewBox="0 0 18 14" fill="none" xmlns="http://www.w3.org/2000/svg">
<g clip-path="url(#clip0_1513_20408)">
<path d="M15.0769 4.84615C15.0769 4.54877 14.8358 4.30769 14.5385 4.30769H10.2308C9.93338 4.30769 9.69231 4.54877 9.69231 4.84615C9.69231 5.14354 9.93338 5.38462 10.2308 5.38462H14.5385C14.8358 5.38462 15.0769 5.14354 15.0769 4.84615ZM15.0769 7C15.0769 6.70262 14.8358 6.46154 14.5385 6.46154H10.2308C9.93338 6.46154 9.69231 6.70262 9.69231 7C9.69231 7.29738 9.93338 7.53846 10.2308 7.53846H14.5385C14.8358 7.53846 15.0769 7.29738 15.0769 7ZM12.9231 9.15385C12.9231 8.85646 12.682 8.61539 12.3846 8.61539H10.2308C9.93339 8.61539 9.69231 8.85646 9.69231 9.15385C9.69231 9.45123 9.93338 9.69231 10.2308 9.69231H12.3846C12.682 9.69231 12.9231 9.45123 12.9231 9.15385ZM2 0C0.89543 0 0 0.895431 0 2V12C0 13.1046 0.895431 14 2 14H15.2308C16.3353 14 17.2308 13.1046 17.2308 12V2C17.2308 0.89543 16.3353 0 15.2308 0H2ZM16.1538 10.9231C16.1538 12.0276 15.2584 12.9231 14.1538 12.9231H3.07692C1.97235 12.9231 1.07692 12.0276 1.07692 10.9231V3.07692C1.07692 1.97235 1.97235 1.07692 3.07692 1.07692H8.88461H14.1538C15.2584 1.07692 16.1538 1.97235 16.1538 3.07692V10.9231Z" fill="#5E72E4"/>
<rect x="2.25" y="4.875" width="5.125" height="4.25" rx="1.5" stroke="#5E72E4"/>
</g>
<defs>
<clipPath id="clip0_1513_20408">
<rect width="17.2308" height="14" fill="white"/>
</clipPath>
</defs>
</svg>
