<svg width="16" height="16" viewBox="0 0 16 16" fill="none" xmlns="http://www.w3.org/2000/svg">
<g clip-path="url(#clip0_1513_20409)">
<path d="M15.5 15V7.5C15.5 5.51088 14.7098 3.60322 13.3033 2.1967C11.8968 0.790176 9.98912 0 8 0C6.01088 0 4.10322 0.790176 2.6967 2.1967C1.29018 3.60322 0.5 5.51088 0.5 7.5V15C0.367392 15 0.240215 15.0527 0.146447 15.1464C0.0526784 15.2402 0 15.3674 0 15.5C0 15.6326 0.0526784 15.7598 0.146447 15.8536C0.240215 15.9473 0.367392 16 0.5 16H15.5C15.6326 16 15.7598 15.9473 15.8536 15.8536C15.9473 15.7598 16 15.6326 16 15.5C16 15.3674 15.9473 15.2402 15.8536 15.1464C15.7598 15.0527 15.6326 15 15.5 15ZM9 12H7V10H9V12ZM6.5 13H7.5V15H5.5V13H6.5ZM8.5 15V13H10.5V15H8.5ZM11.5 15V12.5C11.5 12.3674 11.4473 12.2402 11.3536 12.1464C11.2598 12.0527 11.1326 12 11 12H10V9.5C10 9.36739 9.94732 9.24021 9.85355 9.14645C9.75979 9.05268 9.63261 9 9.5 9H6.5C6.36739 9 6.24021 9.05268 6.14645 9.14645C6.05268 9.24021 6 9.36739 6 9.5V12H5C4.86739 12 4.74021 12.0527 4.64645 12.1464C4.55268 12.2402 4.5 12.3674 4.5 12.5V15H3.5V8H12.5V15H11.5ZM13.5 15V7.5C13.5 7.36739 13.4473 7.24021 13.3536 7.14645C13.2598 7.05268 13.1326 7 13 7H3C2.86739 7 2.74021 7.05268 2.64645 7.14645C2.55268 7.24021 2.5 7.36739 2.5 7.5V15H1.5V7.5C1.5 5.77609 2.18482 4.12279 3.40381 2.90381C4.62279 1.68482 6.27609 1 8 1C9.72391 1 11.3772 1.68482 12.5962 2.90381C13.8152 4.12279 14.5 5.77609 14.5 7.5V15H13.5Z" fill="#5E72E4"/>
</g>
<defs>
<clipPath id="clip0_1513_20409">
<rect width="16" height="16" fill="white"/>
</clipPath>
</defs>
</svg>
