<svg width="16" height="12" viewBox="0 0 16 12" fill="none" xmlns="http://www.w3.org/2000/svg">
<path fill-rule="evenodd" clip-rule="evenodd" d="M12.1706 7.86887C11.7328 8.32281 11.2231 8.72946 10.6509 9.05809C10.5803 9.10714 10.485 9.11305 10.4065 9.06547C9.56122 8.55687 8.8509 7.94601 8.29278 7.28195C7.52246 6.36817 7.03778 5.35539 6.87184 4.37955C6.70278 3.39041 6.8609 2.43821 7.38153 1.66451C7.58653 1.35894 7.84871 1.08025 8.16809 0.839689C8.90246 0.286752 9.74121 -0.00582278 10.5775 8.78183e-05C11.3822 0.00599842 12.1768 0.289707 12.8634 0.882836C13.1047 1.09 13.3072 1.32761 13.4731 1.58531C14.0331 2.45742 14.1537 3.5695 13.9078 4.69636C13.665 5.80992 13.0622 6.9412 12.1706 7.8668V7.86887ZM6.22371 6.36344C6.48559 6.36344 6.69809 6.5644 6.69809 6.81206C6.69809 7.06001 6.48559 7.26067 6.22371 7.26067H2.14465L1.08528 11.1029H14.9078L13.8072 7.22698C13.7397 6.9879 13.89 6.74231 14.1425 6.67848C14.3953 6.61464 14.655 6.7565 14.7225 6.99558L15.9762 11.4111C15.9915 11.4554 16 11.5024 16 11.5515C16 11.7991 15.7875 12.0001 15.5256 12.0001H0.472777V11.9986C0.433715 11.9986 0.394027 11.9939 0.35434 11.9844C0.101527 11.9224 -0.0503479 11.6783 0.0152771 11.4392L1.31215 6.73552C1.35059 6.52421 1.54528 6.36344 1.77965 6.36344H6.22371ZM10.4178 1.86193C11.4431 1.86193 12.2743 2.64804 12.2743 3.61767C12.2743 4.58731 11.4431 5.37342 10.4178 5.37342C9.39246 5.37342 8.56121 4.58731 8.56121 3.61767C8.56121 2.64804 9.39246 1.86193 10.4178 1.86193Z" fill="#5E72E4"/>
</svg>
